<mxfile host="app.diagrams.net" modified="2024-07-14T04:56:07.865Z" agent="Mozilla/5.0 (Macintosh; Intel Mac OS X 10_15_7) AppleWebKit/537.36 (KHTML, like Gecko) Chrome/126.0.0.0 Safari/537.36" etag="AahIopPkLjBArAXFwOL7" version="24.4.4" type="github">
  <diagram name="Page-1" id="vI6fyg07oReVQBKQa_ft">
    <mxGraphModel dx="1087" dy="1996" grid="1" gridSize="10" guides="1" tooltips="1" connect="1" arrows="1" fold="1" page="1" pageScale="1" pageWidth="827" pageHeight="1169" math="0" shadow="0">
      <root>
        <mxCell id="0" />
        <mxCell id="1" parent="0" />
        <mxCell id="fpwWL5qKGAFFPtYYpQE2-1" value="" style="shape=image;verticalLabelPosition=bottom;labelBackgroundColor=default;verticalAlign=top;aspect=fixed;imageAspect=0;image=data:image/png,iVBORw0KGgoAAAANSUhEUgAAApQAAAMbCAYAAADzXgWFAAABXmlDQ1BJQ0MgUHJvZmlsZQAAKJFtkLFLAmEYxp8rQ7ikHCIiChyiySSuI1xPKREaDrsg287z0kDPj/Mk2hpsDaGh2sLGmnP1P2goGiKaItojl5Kv99NKrT54eX7fw/u+vDzAUNBkrOADUHQ8N5WIhTbTWyH/C/wYwyhkREyrzDRdX6MWfOvga91BEnqzIHY1JqP7hxdcmtXkYyNZff7bP/DkrF22SD+oli3meoCkEuu7HhNcJZ5w6SjiE8G5Ll8KznS52ekxUnHiW+KglTezxE/E4Uyfn+vjYqFifd0grg/YzsY66TTVDBJIUmmIIQ0DKwjRT4GKVcrp/zm1MxdHCQx7cLGDHPLwaFIjh6EAmzgJBxYiCBMrWBQ7Rd6/c+x5pToQfQOGaz0vcwo0DoCp+543dwaMU1ZX18x0zZ90pZavvL2kdDkQA0YeOX+dB/xHQLvG+Xud8/Y57X8Ams4nGwdkFx0daoQAAABiZVhJZk1NACoAAAAIAAIBEgADAAAAAQABAACHaQAEAAAAAQAAACYAAAAAAAOShgAHAAAAEgAAAFCgAgAEAAAAAQAAApSgAwAEAAAAAQAAAxsAAAAAQVNDSUkAAABTY3JlZW5zaG90BLMYqgAAAj1pVFh0WE1MOmNvbS5hZG9iZS54bXAAAAAAADx4OnhtcG1ldGEgeG1sbnM6eD0iYWRvYmU6bnM6bWV0YS8iIHg6eG1wdGs9IlhNUCBDb3JlIDYuMC4wIj4KICAgPHJkZjpSREYgeG1sbnM6cmRmPSJodHRwOi8vd3d3LnczLm9yZy8xOTk5LzAyLzIyLXJkZi1zeW50YXgtbnMjIj4KICAgICAgPHJkZjpEZXNjcmlwdGlvbiByZGY6YWJvdXQ9IiIKICAgICAgICAgICAgeG1sbnM6ZXhpZj0iaHR0cDovL25zLmFkb2JlLmNvbS9leGlmLzEuMC8iCiAgICAgICAgICAgIHhtbG5zOnRpZmY9Imh0dHA6Ly9ucy5hZG9iZS5jb20vdGlmZi8xLjAvIj4KICAgICAgICAgPGV4aWY6UGl4ZWxZRGltZW5zaW9uPjc5NTwvZXhpZjpQaXhlbFlEaW1lbnNpb24+CiAgICAgICAgIDxleGlmOlVzZXJDb21tZW50PlNjcmVlbnNob3Q8L2V4aWY6VXNlckNvbW1lbnQ+CiAgICAgICAgIDxleGlmOlBpeGVsWERpbWVuc2lvbj42NjA8L2V4aWY6UGl4ZWxYRGltZW5zaW9uPgogICAgICAgICA8dGlmZjpPcmllbnRhdGlvbj4xPC90aWZmOk9yaWVudGF0aW9uPgogICAgICA8L3JkZjpEZXNjcmlwdGlvbj4KICAgPC9yZGY6UkRGPgo8L3g6eG1wbWV0YT4Kh9agDAAAQABJREFUeAHsnQdclWX7x39sZC9RQByoqODEXe69R1riqMxZ+mbZMP9tW29DraysrMxRJmmpr1scuSc4UFy4ZajsKft/Xzc8x3PgcAYggVzX53POcz/3fr7PKX9c9zLx9vbOBxsTYAJMgAkwASbABJgAEyglAdNSluNiTIAJMAEmwASYABNgAkxAEmBByT8EJsAEmAATYAJMgAkwgTIRYEFZJnxcmAkwASbABJgAE2ACTIAFJf8GmAATYAJMgAkwASbABMpEwHBBaWZRpoa4MBNgAkyACTABJsAEmMCjSUCvoMwZ+Dmy5t5E9vR9jyYBfiomwASYABNgAkyACTCBMhEw11na3Ap5rQJhvuV1mJ4J0pmVE5kAE2ACTIAJMAEmwASqJwGdHsp8a0dJxeT2iepJh5+aCTABJsAEmAATYAJMQC8BnYISyrzJvBy9FXEGJsAEmAATYAJMgAkwgepJQKegzPMdAAgxaZJ0u3rS4admAkyACTABJsAEmAAT0EtA6xzK/LqdkD36VyA/D+Z/TRHXXL0VcQYmwASYABNgAkyACTCB6klAq4fSJCYM5msnwST+KnL7flg9yfBTMwEmwASYABNgAkyACRhEQKugRFYaTG8ehvn2t5Dv5I18O3eDKuNMTIAJMAEmwASYABNgAtWPgHZBqXBIjSkIWdopMXxlAkyACTABJsAEmAATYAIaBHQKSpPMFJk5372pRiG+YQJMgAkwASbABJgAE2ACCgGdghLZGTC9shs5I35A9qRtShm+MgEmwASYABNgAkyACTABFQETb2/vfNVdSQGxwXm+GPY2SY4sKQfHMwEmwASYABNgAkyACVRTAlq3DSrG4n4STMSHjQkwASbABJgAE2ACTIAJFCWge8i7aG6+ZwJMgAkwASbABJgAE2ACRQiwoCwChG+ZABNgAkyACTABJsAEjCOgVVB6eXkZVwvnZgJMgAkwASbABJgAE6i2BLQKympLgx+cCTABJsAEmAATYAJMwGgCLCiNRsYFmAATYAJMgAkwASbABNQJVBpBaedWGx0DZ8DezQMWVjVk2K1+E/W+ynD9dt3RtOfwYvHqEQEjJ6FO8w4yytMvAO2fnC7DrvUay3otatiqZy9VuHuTuqjv5ijLdvTxRJParqWqp6oU6urrrXpebX02MzXB0NaNYG9tqS25QuNqOdiin38DjTYdaljJ/pmbGv+Tr27vWgMc3zABJsAEmAATMICA8f+6GlBpabLU8W+PrpPegHfrzrB395Rh/76jilXVccwMdBP5dFmXia+h+YCnZJZ2o6ah+9Q3Zdiv90hZr2OtOrqKG5Q2s1cA+jf3kXkpHNixmarcny+MwPA2jVX3n4zqji+e6iXvf3xmAOYM7KRKG9jCB5RfMW8Xe3lPcfQZ18lPSdJ5XfLsAI1ySnlrC3PoavP3aUPxn95tNer+aeJAvDP0cY24iY+3QOeGJc+ttTQzw9Odm6O2ox3MhGhT2v9j+nAsGtcXzTzLLriXTxmCoOeHw9bKQvbtyfZNZTtTu7fW6Ku/lxue69JSI87TyU72z6awrEainhtd71pPUU5mAkyACTABJlAtCBi2D2UlQrFt/qswt65RiXpkWFdM1LKphwHNu6jEVMxevUvmnl8oQtWKlhh86+99sDQ3k+nCWYiPn+iOpIxM3M/OkXGarTy4uxAdj5Z1aqrqJQ+jo/DmHbmiuYn93LX/IC0zW5XPkMCa4xdw6U48RrdrgnnDu2LWqmDEJKUZUlRrHlMTE5iIT+9m9fG/U5fRQ3iJycxEnLodiojE+ag49SgOMwEmwASYABNgAg+RQJURlDTUPfzdHySKu1fC8cfsB95LGsoOnP8naji6IC3+HszMCzxYhnCzt7fH4sWLkZmZiSlTphhS5KHmyc3LR2RCSrE2+vrVF8KsKZ5fsQ3K0UZvDXlMisZvd4XgXkq6qsz4Tv6wEuLy0y1HVHElBQ5G3MbzPdrAxtIC6VnZaN/AQ2Y9VCgoXx/QES0KBWfQsfPYfOaKqqq29WtjVp92sBZthWsRcPHp93H61l2cjbyHFcK7OK6jPxbuOAYShuT169zIS4rBK/cS8cmmw0jNzMKw1o0xpFVDvBq0Gyn3s0BtvCg8qO+t3y/bvS3Y9GxWF4dF/1xsayAh7b6qP+TdJSFNlpGVg+mClTYj+fm68BLXcbbHG2v3yLza8nEcE2ACTIAJMAEmYBiBSiMoYy6HIWxbEGIunhai8K4MRxzaoXqK6POh2PjRDDF8/ZacZ6lKEIEBr3whvZa7F7+P5v2fgq3LA4/bueC1yEiOl9mvHNkJGyc3pMbGqIqbiuFZCwsLmJsbh2LNiQsIj4yV9ZDQuqsm6FSVlxCgIVkaBidzFaLIEAu5EQMa2m1dtxZO3ryDGpbmaOXtju92h2oU9xBDzsPEXMYNwoOnLkxLapOEGQlKEpJ7L94EzQclcap4I5cfCoO9lSXeHd4FNA9R3f7Tqy3uJaeDWEwqMsSsno9EcnRiGuoIwUdGUwVoTubG0xG4K8o/+3hzKTA/23pECNYIDGrZEG8KsfzJpkN4pV97HLwciRtxybLssatRGBngi1Ftm+BSTDzcHWxkPH3FJKVj3oYD6CCegYSpNiMx+c6wx9G4lgvmrCkQkz+IaQjONprPRmX3Xbol+ZblXWvrA8cxASbABJgAE3jUCBinoh7i0ydGXcf2hXNULaiHKTIzLQVXj+0RC2yeh2PtByKC0mo29MP5PRsQuv5XeZ255iRFSyMRSR+yqPBQ+ZE3hV/379/H8ePHkZ7+wMOnnl5SmIZzFVP32ilxuq5ZObmqoV+ae+hsa60ru0yLF544Gi7u17yBFJS9mtZDfn6+EFu3NcrOGdQRCemZ+ONIuEZ8SW2SJ+9Ocho6FArKph6u+OfCDVVZEnx3kY6c3DxVHAVc7WrIuYwfC9EXcTdBekSLzsVUL0AC1dPZTkZ19a0jPYsrD52V982FwA6oV0uGSXy+v2E/vh7bB99O6IfkjCz88M+D95khhvCvxiahV7N6WLTzBMgbq1h2bi7I21mvcLGUEq9+pbmhXsIzOXv1TtU7mL/tqBTo6vkoTM9OVpZ3LSvgLybABJgAE2ACjziBSrMop7ScbRxdYW5pBfJgkmUkxSM3x/C5fjTUvWDBAnz//fel7UKxciT0ilqeWtzlOwlSDJEg2nX+gXgrWqbo/a7z16VXkoaMewpBeVZ4SHPyHgg98ux5OdmLoe7DqmFxpQ5dbR6/Fg0/TzfUtLdBDbGIZ9/FW0qxEq/KvMurQsCRUf26zE7MzSRxSEZzNG8lFHgc6Z4EqYUQ1oqRcD4m+kR9WSFEpzo7yrNVDLsni/mhh69EKUUMvpKopRXptHhIMZprSoK96IfEKxsTYAJMgAkwASagn0Cl8VDq76r2HOlJccjLyYGyxRBtOWTMHEozIWSGDh0q51Bu3bpVeyNGxpLII8+jYrRVDc0PNMZogQ0JH/IgKrYr/Ib0yHVr4o26rg74QnjWFCORRqust4ZdwXXhwTPGaGh3SKtGGNSiIRQvn77yl2IKBKSHWD1NQ+vKcLa2crTq28PJFseuRstk8lbS1j6Kebs4aAjjxrWc5dA7zY+c3qM1QsVwf6bw6ipG/aVPaYzmZk7r1hqv9u8g56NSXz4d3UPrdkc0HeDLHcf1NuPr6wv6XL58GRcvXtSbnzMwASbABJgAE3jUCFR5DyW9kPhbEWjaYxhcvBui3+xPjXpHdnZ2CAwMxDPPPGNUOV2ZE8WQcxcxrEvzHGmhCImtW/HFF9oUreMlscCFtuYhMTlYeBvJ1MUhiVKaSzhNzKUk0XpCePEUe0UIJIoj7yLtj6l8DNl3kdogwTaopY/WxTVKG+rXyMQUWSawQzMx/9BazmtUT6ewmxgWp0U1NF+U+rHq6DmZhRbquAtvKM3bbCD62k7kUeZI0jZHb4th6TO37+KlP3bKVd3q2ywVbcPYexKQn28rWKz05uDHZPHpy7dhwk8bi33Ig2yIDRs2DBMmTABd2ZgAE2ACTIAJVEcCVcZDOXX5fjh6FGwTQy/qtR03kJ2Rhq+H+2Hf0s8w8oNfMOmX3dJbmZf7wKun76VqG57WV0Zf+re7Q/C2WFSyfPIQmZUWuaw+qjmn8UEdD4bHKTRbLEJRjIaCaQGOuu0Mv4bJXVvJIeEHJQFfsciEPJr/Fd42dXvzr73qt4Vh9ZIFUeFRsWgjFvzQqm9DjeYWTujsr/ImFi1HC2doTiQ9/zvr9qvmJK4Vi3hIaNIKcjJaXf7tzhAZVuLmbzsmtzyihTkfjuxWbKNymbnwq/jTqKcWD5PXl+ZN0ip5miawhVauP5g5ULyAnhj6o4QsMbFg+F9Pdk5mAkyACTABJvDIETDx9vYu9u+xl5cXIiM19yGs7E9uKlZpu/v44U7EOeTnPRge/bf6TfMcacV1Rna2nJtnaD9o3iCtXKaFNTRPsDKYiejEarGhOC2O2XPhpkaXyKPoJFZIl2Z/SRqmp/K0KKg87enHmss9Kif/uqU8qy2xrl9//RXW1taYPHmy0Yu7SqyUE5gAE2ACTIAJVCECVcZDqY8pzaOMuXRGX7YKS6eFJDQsbKzRQhBl+NfYsuWdn1ZD0yrqemK+Jpm2RTC0cXpMkuEeYfU+0mIY+pSXjRHD7zT/soVXzWLCt7zaKFqPjY2NFJN79+5lMVkUDt8zASbABJhAtSHwyAjKavPGKvBBc8WczFSxuTgNg28+fUV16k4FdsGopmgoOz71PuZvPwZauV4RRttNjR07tiKa4jaYABNgAkyACVRaAo/MkHelJcwdYwJMgAkwASbABJjAI07gkVjl/Yi/I348JsAEmAATYAJMgAlUagIsKCv166n6naMjDn+eOFBuY1T1n4afgAkwASbABJgAE9BGgAWlNiocVy4EbCwt8M7Qx+SZ3er7aZZL5VwJE2ACTIAJMAEmUGkI8KKcSvMqHr2ONHR3wupj5wv2eXz0Ho+fiAkwASbABJgAEygkUGk8lHZutdExcAbs3TxAxydSWDlO8d94Ww+rP3RkYs+mBRu0036TvZrVkyfjlNczdvTxxI/PDICrOKXm37YL0fEY2MIHL/d9sFm7ep9or87+zRvAzspSPbrMYTqhh7gaavbinPGhrRvJjeENLaPkI96j2zWVH/XjJJV05fp/gzvjlX4dlFt5dObD/B2oGuIAE2ACTIAJMIEKIFBpBGUd//boOukNeLfuDHt3Txn27zuqAhBob+Jh9aeffwO80DNANtq+vgee79FGHl3YXOyd+OcLI/D90/1VHWpY00nGtRYn2BhiNcVxhi/1bYeVh88iLjXDkCIPNc+Mnm3kPpNt6tWSxywWbYyOmKRTf2i/y/I0P083TBfHUxpqnuI8cjoHXf38dUPLUt99xd6XT7VvCt/aLlqLPUlpYi7pj3tPqtJL+h2oMnCACTABJsAEmEAVIsBD3pXkZQlnnTTyLNLZ1ieux8BUHKVIVpgkw7q+Grk748d/TuHA5du6slVIGnkfk+9nChF1Cl5CsDXxcC3WbqbYFP2NNXtwOyG1WFpZImgPytdFvRVhf4dclM0EiZOESjKaS/rG2j2gc8TZmAATYAJMgAk8igSqjKB88e8wcRLOadRpIc5/FmLl9MaV2P39PPlOuk6ag3ajpsLMwlKe5X09ZB/WvTsZ+fl5mLX+nMxvaW0jT9Kp7dtSXn97cZgs2/+Vz+HX5wmYmVsgLf4u/nxjHOJuXDboXc+ePRsBAQHYtGkTgoKCDCqjL1N82n3Q0YEkKNVtYWBvORdxZ/h1Gf2DGNZefjAM04Qn7vkV2zAiwBfDxLCtuakp6AztTzYfkqfc0Fngu8/fQAM3R3FOeAfUEsPsZAcjIrFo5wkZLumLhml9hJfUQQwJh0fHSU9cojgS8u2/94mjIe/LofUl+04hpLCvyyYPxqdbjuCCyGsnyjSp7SrOMx+MXHFq0P5Lt6QwVs75pHO0SQCTzfvfARi6aIc8gi/1aac6vSfkxh18vvWI6hFoRbmZYJCZkyu5KAk0pN2jST0RnwPy/F6LTcLCHcdU54tTvknCW9qlcR155CUdM1n0HHWlLkOuLrbW+HJsH8HjsHxPVIaG4cd19MN08b7YmAATYAJMgAk8SgQqzZB3zOUwhG0LQszF01LYUTji0A4Vaytbe3i37Iz9v36OqHMhCBjxnNCVBd2n69HV32HVyyNxNGgxfDr2QqfxL8qyljVscevUISTduQ33Rv7Y9d27qN2klZyf2XHsf9BiwBic370eWz6fDVMhKge/8bUsp68/lMnZ2RkWFhZwcnKSZQz5olNn1p64ILOGRd7DutBLGmd2rxFpdAZ40yIePfJcOoizrxUjwTK7X3t5FjYNtZKIPHY1Gt/uDgUNfS8a1xc0VJ4iTrqhoeUPRnaT1292heCjTYdAp+DoM1fbGrL89nPX4C+GkX/ZfwY037CLbx1ZlM7wVp//SJ44OoucbFaftvB2scfP+05jx9lrYt5oPfTyqy/T6GvFoTB8FXwctlYWsBLnsBtqzwqxTWXm/rUX7204gIi7CRpFP9t6FMHh18Q0ggesKAOdG079IcH+VfAJGe7f3EejbFMPFykySYzSkZNlMWonXXgkR7TxVVVDojYyMVWwz5enD+n6HagKcYAJMAEmwASYQBUgYPi/5A/5YRKjrmP7wjmqVtTDSuTVY7txYu1PuHxgG6auOIC6bR7DjdAD2PfLp7C0sYO/8DTSgh4615s8kYqd370BjR7PkGkn/7cCvWd+ACfPemgz9GnkZGUiIykeNRs0Rez1i/AWHlALIUIN6c/+/fuRlJSEkJAQpSm91/NRcaAP2c24ZPEJ1ygTJc7/vnQnHhMfbyEE3GmNNPUbEiVX7iVgzfEL6N6krhQpXxd6HGlOIAnM1cfCEXojBo81rCNEmxk+2ngQF2PiZTVht++pV1di+JwQvUevRGGAEF/k6RzUoiFchNDUZzSPkcoFF3pUyfPXzdcbuwrvb8Wn4F6K8fM8nWysZdM5ubm4di9RekPV+3JZsPNwtFWP0gh/teM4coSYpgUxNG9V3ZYKwUxeSXo+4l9W23b2KgI7+EmvMQlxLyd7/H64wJuq73dQ1ra5PBNgAkyACTCBiiRQaQSlIQ8dee64zJYUc0tebZ0LBMHA1xcIMTkKmWkpSE+MhYmZqRSPSp1Z99OkcMzLzZFR+ciHuRCeVvaOwstpgkad+ypZkRB5DTaOLmIxSZoqrqRAcHAw6FPeRkPZHz/RXXjRHHRWvffCTZy+dVd6wWJT01V5LxWKRhqKJuHp4WQrhv/zVWJSldGAQE5uPrJy82R5yk5ijDyeuozmfNLQ+6U7D7yHkWKepLPwqpbVlh44I1eNLxjTWw5rrzpyDlvDrhpUbXJGpuw/Zaahew8hvNVNEdvxaRmlWvGtXheFtwvPLA1xdxfilUQueT6LTmUoWobvmQATYAJMgAlURQJVSlCSKCpqpmK4lMRk2PY/pYfTxNQMr2yNkPMmi+Ytep+dnibnWf4yqWfRJIPuW7ZsCR8fH5w5cwZXrxomagyp+LIQYpHCUzmmfTNV9hwh6uzEUC8ZDTObFS7YofskIZR8aztTUBptTURGooksVqz4JuFMQ77kGTTGSHyXZDQ3koafyahuxagECdm6anG1hKAioVZWo/mZNGeUpgXQCnnyJO4Mv4Fs4bEsq2n7fRlap3hcWBcR2vfFoqOzkbEYKLy7ND3A2MVSnTt3hqurKw4dOoT4+ALPsqH94XxMgAkwASbABCqSQKWZQ1nah84XQitXeB5rODjLYe9Bcxaq5lbqq/OKGEK3dXFHu9FTxfxJc7h4N0SPaW/rK6ZKHz16NAIDA9G37wMPpyqxjIEVB89qePSuxSbKrXdoLuD4Tn4atYeIYW0LMzO55yPtbUlb0pA3jgQNGXkqSSxN695GLMqxlfMuB7VsqFFHaW6ihNeRhrFpbufYjppzDm8npKBTQy+532JncaU5n6fEcHJZjZ6NGMQkpeJCTJxc8FMWIVjW/ijlb8Uno7dfffmcNL1AsfUnL0kGxOh/Jw1b7KWUnThxIiZMmIAWLco+/K7UyVcmwASYABNgAg+DQNXyUJIbSM1oFTd9aMV3mxET5YpumhOZTcPVRb2ZRe/F0G3w1/8nFuf4ShGpCEkaTv9nyUdqrZQcVISMci05p/6Uot2juXy0sIOEGNmWM1fxav/2+EmsYr6Xki4FolIrraAmYfdcl5byQ8PSn2w6rCRLD+ainSGY2TsA34wvEL9XxfzDLWeuqPLoDjzgTiHleTediRD7PbaRZ3UXXaX9za4T+FAsBJr/VC9ZNaWvCy0QVI3Fvo00pK/YhyO7yiBtMaTMsVTSil4Ht2qIKd1ayT7QcwaJk3joSjZWDC+PFKvdFaN9PcmmLNta7Oeg5KGr8rN68JTqqYaFae/Pmb3aglbf0/zUD8V8VTIKZwhhnyoWR0ULEWyMWVoWbPgeGxtrTDHOywSYABNgAkygwgmYeHt7F/t31MvLC5GRkRXembI0SFsGkYfx3tXzRldDi3DcfZohQSwMSk+ovP940zA3rfa+m/xgvqT6w9Lws1MNa9DCnmIvtTAjDRWTACNRWh5GcyVpOJeG1bVZbTHUnZGVI0WttvTSxDmLhTk24lkjhRe0shu9k6XPDcIKITg3nzZUwAMODg5YsmQJ4uLiMHPmzMr+mNw/JsAEmAATqOYEqpSHUte7ys3OKpWYpDrJoxl5TveejLrarqg0mpdYkpikPtDG2fo2zzbWS6bv2UicliQmqWxMkv7FTfraKJpOe2DSp7LbmA7N5PQDWoyz4+x1o7rbsWNHmf/nn382qhxnZgJMgAkwASbwbxB4ZDyU/wY8bpMJ6CIwvE1jOb90m1iFXl4eYV3tcRoTYAJMgAkwgX+LwCPjofy3AHK7TKAkAhuMXIRTUj0czwSYABNgAkygshOo8qu8Kztg7h8TYAJMgAkwASbABB51AiwoH/U3zM/HBJgAE2ACTIAJMIGHTIAF5UMGzNUzASbABJgAE2ACTOBRJ8CC8lF/w/x8TIAJMAEmwASYABN4yATMHB0d3y/aBu2Bl5JSsXv82bnVRpthzyA55jbyxTF67Z+chszUZHE2d1zR7hW7r9uqM9o/NR0+HXuJM7qtEXdTHL1YRitLf3Q1TcciBtSrBdrom0616ejjKY5ZTJVHFeoq9yimmYrjIPs1b4A7SenivPCyH52oMHITe3XSKT3XBGNDzN7aEv1FP67cTdC5Abq2uuj90UlAfp5uiBN7cerbtkmpg38HCgm+MgEmwASYwKNAoNJ4KOv4t0fXSW/Au3Vn2Lt7yrB/31EGMbZ390Jt31ZoOXAcWg971qAy+jKVpT+66qajA1/oGSCztK/vIc+jpo26q6NZiiMKJ3dtBS/nB+eAlwcHEnfTu7c2uCpPJzs83bk5LMXxlcYa9d1XnPzzVPum4jx1F4OL8+/AYFSckQkwASbABKoAgUojKMvC6lzwWvz24jCkxt8tSzVctoIJZIojCd9Yswd0DGR52vFr0Xhd1FsR9nfIRXyy+bDqOMqKaJPbYAJMgAkwASZQ2QhUmX0oa/u2xNC3F8OxVh3JMOp8KFa9/IRenuT19O06EL8810Pm7T/7M9QSda14YSDMLa0w7uv18tjFHHHSTsLtq8hKT8Ufr4zWWy9lmD17NgICArBp0yYEBQUZVEZXpvpujpg3oiuOXolCV3E2d3JGJn745yToXG+yH8U50Uv2nULI9Rh5v2zyYHy65QguRMfJDbTfHNwZDUQdueJgcDrf+4c9J1VHMFL87H4dUEsMs5MdjIjEop26Twf6P1GfT00nOIgh4XDRBnniEtMz8fbf++RJNWXpz1tDHkMjd2fZl3n/OyCnAMgbPV/kEXypTzvUE1MHyEJu3MHnW4+oSv0szjo3E8dB0uk0z6/Ypoof2roRejSpJ+Jz0FA8Ew2HL9xxTOPkoUnCW9qlcZ1i3FWVGBGgM9i/HNtHvJ/DOB9VMG2jV7N6GCfOG5+u1i8jquSsTIAJMAEmwAQqLYFK46GMuRyGsG1BiLl4GmnC00jhiEM7VOD6vPgRLKxtEPR6IP5+dxJiLoWp0nQF7FzdYevirspCYbvC+3ajp0kxGbr+V4Tv/As1xXnedjU9ZF59/aFMzs7OsLAQ52c7Oanq1xc4GHEba09ckNnCIu9hXeglKWAowkoMAdewMEczT1cpdkgUje/kr6qSzsy2s7JU3dtYWsj8FDGrT1t4u9jj532nxTF/19CzaT308qsv89LQ8gcju4Gu3+wKwUebDok5m3kyTdeXq20NpNzPwvZz1+AvhpF/2X8GNN+wi2+BqC9tf6jNFYfC8FXwcdBZ11bmhv9d8+xjzWWZuX/txXsbDiBCzHtUt8+2HkVw+DU4C1bq5ljDSvKJT7sv2j0hw/2b+6hnQVMPF63cNTIZeEPtpIujMEe08VWVIFGrzJfV9TtQFeAAE2ACTIAJMIEqQsDwf8kf8gMlRl3H9oVzVK2ohymyhqMLTMQijpzM+7h15giuHt2tylvaQOMuA5B05zZ2fz9PVtGk2xBVVfr6Qxn379+PpKQkhISEqMrpC5C3SvFY3YxLxs248GJFlgrhRl5JFyHoJj7eoli6tgiaN0iezeDw6zKZPG3dhJdzl7jv2MBTitWPNh7ExZh4mR52+568Dmzho3UO4+U7BULtnBC9VO8AIb52n7+BQS0ayn7Jwjq+dPWHit2KTxHHEWYUq0FXf/ZevAmnwvmmOWIRzzUxVE7eWXW7fCceHo626lEa4a92HAedP96zaV0096qpkaaNeytvd7RvUPBHhnrmVCG0Vx87rx5VLLzt7FUEdvCDufCYkhD3crLH74cLvKmG/A6KVcgRTIAJMAEmwAQqKYFKIyj18dn13bsYNOdLjP9mA3JzsnEs6HscXL5AXzGd6S5eDXD77HFVnpR7UbCwsVPd6wsEBweDPuVtiuiLT8sQw7cmequnHCRaLhWKQCoQmZAKZzHsSubhZCvn+Cn1ysjCrwZuTmhYOPSsHn9fzG8ky8nNFyuw81RzBEmMkadTl+nrj66y+vqz9MAZvNy3PRaM6S2HtVcdOYet4qxsQ4ymEFD/yWjo3kMsxlE3hY8691oOtmjm4aaeTYaTMu4XiysasV14immIu7sQryRyyeN8onC6QtG8fM8EmAATYAJMoCoTqDKCkjyS345qBfeGflJYdh73Io6tXozszAderrycLFiIbYPULfu+EGXmFqooJ896qnBi9E04e9VX3dNWQZliDqWh1rJlS/j4+ODMmTO4etUwUWNI3fliDqQ2o7mRNERMRsPbilHu3Lx81FWLqyUEDAkjslixnQ15d6kMeQbVbfGeUPVbjXBr71piDqb2vlDG0vZHo5EiN7r6Q1nJI0lzIz0c7eQKefLg7gy/gexy2HZIG/cdYrifPvpM4Id1EaFNovxsZCwGCu8uTQ84cPm2vmo00jt37gxXV1ccOnQI8fEFnmWNDHzDBJgAE2ACTKCSEKg0cyj18eg84SXYu3ng3tULiL50Bnl5ucJrVuBtUsreCjsm5kH6wcu/nRwip/grR3bCzMISDTv1kftUOtdpoGRHxOFgOHnUQ4cxL+Cxp2fD2t7wuZBUyejRoxEYGIi+ffuq6nyYgSjhdaRhbAcxH3BsR3+Npm4npMi9F2l/Q9oXkRaFnCpczEOLeEgsTeveRizKsYW1mKc5qGVDjfKluSltf0rTllKGttuh+ZAxSam4EBMnRa02Iajkr6jrrfhk9ParL7nTXFjF1p+8BHon9M7+d/KyEm3QdeLEiZgwYQJatDBs2oNBlXImJsAEmAATYAIPgUCV8VC2HjIBjz/zCoQyQp7wRp3csAw5WZkaSI6s+gZ1mrfH2C//Qq5Ytf3l4Ma4fmIfaCh75Ae/yLLqG6UfX/MjmvUchm6T5yJPrP7NSIpHnihnqClCRrkaWq6kfOTlIivJJ7jpTITYX7ENaCUzbYyubt/sOoEPxcKb+U/1ktGUvi60QMAkiaHeRTtDMLN3AL4ZXyB+aaueLWeuqFehI/ygRxRSnre0/WksVot//ER3VXsfjuwqwz/uPSXnfKoStAQGt2qIKd1ayT7Q8HWQmMeoDGOPFcPLIwMeLIL584URsoYpy7bSz6ZE08e9xIJqCSsPn8XMXm3xg1iJT/NTPxTzVckonCE8lTTnMlqIYGPM0rJgAVZsbKwxxTgvE2ACTIAJMIEKJ2Di7e1d7J9aLy8vREZGVnhn9DVIWwbR4pwY4aE01ly8GyIp5pYUmkXLkgeTBOis9ecQvutv7PzmnaJZKs09zZWk4VMaxtZmtcVQd0ZWDkhEajMaKiYBdi8lXVuy0XFl7Y/RDYoCtBG8jRj6jxRe2cpuNEVh6XODsEIIzs2nDRXwAJ1WtWTJEsTFxWHmzJmV/TG5f0yACTABJlDNCVQZDyW9J1qRTZ/SWPyt4v+Yu9VvgsCFaxB9/iTc6vvCsoYtTvz1S2mqr7AyJAZLEpPUiZikNJ19MdZLprMykVjW/uirX1t6Qvp9uQ+mtrTKFDemQzPQED0txtlx9rpRXevYsaPM//PPPxtVjjMzASbABJgAE/g3CFQpD2V5A7IUK7p7THsLrnUbI/rCKRxd/R0ykjX3NSzvNrm+6kNgeJvGcu7kNrEKvbw8wtWHHj8pE2ACTIAJVCUC1VpQVqUXxX1lAkyACTABJsAEmEBlJVBlVnlXVoDcLybABJgAE2ACTIAJVHcCLCir+y+An7/aEWhcy0XuFEBnx7MxASbABJgAEygPAiwoy4Mi18EEqggBOv/9naGPYePpiGJbT1WRR+BuMgEmwASYQCUkUKVWeVdCftwlJlClCDR0d5JnkBu+B2mVejzuLBNgAkyACfxLBCqNh5KOPewYOEOehmNhVUOGaVsfbWZqbo7uU9+ErYu7tuQKjavfrjua9hxe7m22HDQOnn4B5VIv1dP+yemyLtd6jSVbC7FFUlmte5O6UIZNO/p4okltV6OqfLV/B3w9ro84r7x8foYNazphdLum8tPcq2axvswZ2An0qWgjNj+KDc9d7WpUdNPF2qON1pt5uOrkTv2l033K09zEs/dqVs/gKu2tLTG0dSODzrIvWqm+34GSnzbBp9+fcrIRnWZEfaSTmCzMzGSYTpZiYwJMgAkwAf0Eyudfcv3t6M1Rx789uk56A96tO8Pe3VOG/fuO0lrO0tpWCqSaPs20pldkZMcxM9BN9NsYo+2Kpq08JI6JLLn/Paa/jdZDnjam2hLzths1TQpwyuDXe6RkS5vEl9Vm9gpAf3FONRmFAzsWPA8d7Uin1NDnj+nD5T/aTWq7aDT3eKM6INFHm7BP795aI620N07iuElfcQrPyIDG6Otfv1g134tzy/293EDb+VSU1bS3wUt924FO0okrYTP6iuoLtWMI96niJCL6Y6E8zc/Tzaj37Olkh6c7N4elEHbGmr7fAdVHf/w81b4Zvt0VKvcJpbgGYk7p8z3aoKG7szw8gMIdfDwoiY0JMAEmwAT0EOAhbz2A9CVvm/8qzK2N8zzRyTwOtbxg41SyR2/1K6ORllA1j9wzKYS25vgFXLoTLzyGTeSxkDN/26Haj9FZiL/3N+zHXXFizxjxDzuVKXZkkz74RdLpzHL6LBjTu0hKwW2KOP5w7pp/0EeL2NRaoBwiGwlx8uM/p3Dgcuk25C+HLmhUYQj3d9btR2qm4UeQajRQws3xa9F4fc2eElLLN1rf74Baq+/mgM+2HsFl8ftkYwJMgAkwgbITqDKC0r/vaPR96ROYCzF279oFjSe3srXH6P+uRO0mrYQwMZFHM65+9UnVWd+D536NRo/1g4W1jYxb//5Uccb3XllHneYdMPTtxbB1dpP3N04ewJq5E2S4XkAXcQb4UoSuW4q2T0yGmbkFzgavxbb5r4GGuoe/+4PMd/dKOP6Y/cCb+sziLTCztIJjbW/ZXzoq8g8hEOl4x6krDsDOtZYsN+qj5eKM6TzcDjuqarPXjHloMeApmR66fhn2L/1MhumrfttuGPrWd7Cyc5B1HVyxEMeCvpfp4xetl4qMjpgkHrfPHUfQa4HIz8tVldcVWLRoEZydnTFv3jxEREToympwWrw40eb0rbs4G3kPK6YMAZ21vWjnCekdIi/hM481R644SPtabCLsxBAnCT7ydLrb2+I9ITYVWzSuL/ZevIm/Qi4qUUZfySP12oAOcjiT2qRh3/9uPizb1FfZkmcHiGeIRbv6tWFiYoK/RT/WhV7CwsDe8jz0neHXZRV0jvfyg2GYJjyuz6/YhhFiSHWYGLal4ylHtW2CTzYfwvhO/jh58w52n78hPWKz+3VALQcbWf5gRKTko6s/w1o3lkPBDoLXneR0OSRMw8MLth+TrGlI/05ymuwH1TNveFfJf82JCzAVfScv3LhOfjAT4SviPHdbK0uVeHxC9HFoq0ay+bUhFww+KtLL2R4v9WmHeoXD5CE37uBzIdYUo7PnaVoDnRhEXBSjIe0eTeqJ+BzQMPU1cf78wh3HcFc8l2KTurZCl8Z1kCyOEv3hn5OSnZJWmisNcR8U4v5P8ccOGXmQ54/phU82HSpNdVyGCTABJsAECglUmiHvmMthCNsWhJiLp5EWf1eGIw7tUL2oPi9+iHThsdvx9ZtySFyVIAKjPl6BWo1a4ODyhdj/6+dwb+SPzhNekllIhDXrNQIhf/+ClTOH4MTaJcgTwo6M5hE++fkqmFlYYPf387Dx45nIy30gwCzE0Lq5EIYkJsN3rUPwN28jNTZGlo0+H4qNH81A8p1IOe9TRhZ+2Qhx6lq3Ec7vXo/Q9b+itm9LtBpSIFKpzOZPZ8mcB5bPx19vPoNd372nKh6y7hdZr4mpmai3tirexMQUI+b9LAXojq/+Dwm3r6Lb5LkgAUlm6+wOj2ZtcH7Pehz541uQUG7QrptMOydE8OnNv8vwlSM7JVvlOWSk+HJ0dISF4GBlZaVE6b2SSDlw6ZbMF3TsvBRXdEPDymRNhYhrU7eWFI3RiWmoI4QHmaW5KfZcuIE31v4jBYS3iwP+07utTDsmPFnNPF1V8w39xVApnU9+5GqUTC/tl6429dVJc+o6iqHPX/afwUkhlgLFkYrkUaU5kTTvTjEX4XWd3a89aMjfVwzxk4g8djUa3+4OlcKFhHFrwYOEs6W5GT4Y2U1ev9kVgo+EoMkVx2rqM0dxjruNpTmoDHEJj4rDbXGmOYlXMnchkGi+omJu9jVA/SKj6Qldfb2xVZzcs/RAmJz/SgJesX/EO/l0yxGYmpqIMg/qUNJLuj4r/jCgM8vn/rVX/CFwABF3NU+b+mzrUQSHXxNnsD9gRXURV28Xe8Sn3cdXwSdkWJlCobTV1MNF/kZIjJIYL6tdionHoJYF/81QXYNFmIQ2xRNH+kPhVnyyfEcUPiP+IGJjAkyACTAB/QQqjYcyMeo6ti+co+qxetjJs770LpJn8UboARnu+fw7qryeQkgl3Y2UnjmKJOHZvN+Twrv3uSoPBRIir+HAsvmquBYDxkiv4/pPX8K14//I+Iv7NqvSlQB5Cvf+9LFyK6+ZaSm4emyPmMv5vPBEFniY1DPcT0lUPY9v10Fo/Hh/6ekkb6VyHvkdIaJvnj6sXgxJ0TflJy83RyPe07+tFLd7l3yEM1tWIeLgdsxYE4pWg8dhzw8fyrz03Du/KeDSbvQ0NO4yUPaRRCR9yKLCQ+VH3qh97dmzB66urrhz545arO4gDWkrtvnMFSWo+gebRBgJBvLIpWVmo5YQQGS0MOSc8PjRvDqaK5cgBIUiNk8IQUniYUjLRlh+KAxDhMeMji2MFP/Yl8V0tWlIvfsu3pJeUhIYnRp6ynl2RcuR5/PKvQQQF5qDSPdfC48sGT0nCczVx8IReiMGjzWsIxeDfLTxIC4KMUNGfTTE6Cx3GkJ/UYjwQxG3pYAPqPfgj4+S6ujqW0eyXnnorMzSXAj/gHoF3nKKIGFHn2zB3xhzsikQrDnij7Frwut5ITpOozgNK3sUvnuNhMKbr3Ycl2fC92xaV86rVc+zlES8+P2QwJ34eAv1pFKF14delu+G/mg5L8Q4vSdiSNMtaI7rH0fDVfWqh1WRHGACTIAJMAGtBCqNoNTau8JIEmNkN08ViK9bpx8MTzmIBTxiHBKWwtvYqHNfmS/7fjrupyTJ8PWQfaLcIXQa96L8kGdvrfAKJsXckl5E4fJTiUlZQMuX4t3TklRilCIaKUO8ELLuOhbglFiJWoKLVwN5d+3EPnlNT4pDbk62mIvprcpFglmx7Iw01HBwVm71XpctW6Y3j6EZvhAeqeViiHu5EC67CoeDaUg7SQxbkpGX7v8GdcJ9IVyiE1NBQ7bZhZ5h+oedvJ49hLj47cg5mbc8/mHX1abslJ6vi4Vz7RLEMD4Z9Vmb7b1wUw49j2jji9jUB0O35AEjo/l9JDQ9nGzFTy9fJSa11VVSHJVXLDs3T7DLk8PqSlxJV/II3kpIViWTJ5FWdJfVlh44g5f7tpdzV+mPgVXivZEX1BCjoeycQs9sYnqm4GKnUUwR2/FpGaVa8a1RmbiJTEyRUwKGtWqMPMGRPKvrT14umo3vmQATYAJMwEgClWbIW1e/SRCS1RJD2fLa+IGnIiW2wKN2S3j6fpnUU/X5/aURMi99/TlnLL4c3Bj/CO+ek1d9dJvyfzIt+c5tKUY9muheZZwWZ7jXTmnUzuWB58ehpoccGlfSSMSS0ZxMQy35XpTMSt5YMhqup/I0PUCxPAPnSyr51a89e/bEiBEjYG9vrx5dLmGaP0cC6mZcgZh5rksLXBfhZ3/ehLlr/xHCK0OjHfoHnv6hn9S1pRiOBILPPRDKGhlLuCFxSsPO6qavTfW82sKFr0wjKUcIOTvRTzI7MRfRjDpbaCSelaFmilK24SHRREbPTPMxyYNrrGnri1JHlnh22rxcMVqEo5j0Eqttg0NTDRQxp+QpzZU8kjQ38qVVO3H1bqL0JNK2O+VhJLpLa9p+B1TXNiF26Q8MEv3k/aY/agw1X19fDBkyBE2aNDG0COdjAkyACVQLAlVCUNLQMHnjeohhblro0uGp51UvhxadkLexQfseYuFNgSeTFszQvEcy75ad4NfnCbmI5fzuDXKOJHkzycJ3rhMLWfIx4PUFoD0vaTFLl4mvybSyftEiH2qXFgM5etRFxOFgVZUZyQmyP22GT5Rt0vxIfRZ1LkR0NQ+dxs8Cbfkz4NUvZJFLWobo9dWlLX3ixIkIDAxE3brlt10MzeVrKxayfDKqu1wEQsO9ZCSqaO8/+jzWyAt1i4gqWlQSnZSKvn71ES7ESka25vC/tv6rx9FCoKZi0Q0tElHElb421csbGqbFRO0beMi5gOPFQhd1CxHD2iSqBrbwgbtYdNPPv4FcWHK/8FnIU0liaVr3NmJRjq0UwOpz+9TrMiYcHhWLxmLrJGI/sEVDDc8lcaE5ltRnWpxDi4xuFIp8Y9oompeejbyfMeKdXYgRnnPxXGURgkXrL+29tt8B1RUsvOak/em3ue2sYZ5UpQ/Dhg3DhAkTQFc2JsAEmAATeEBA043zIL7ShULX/SrmK06Tq6TvpyZp9O+vt55F4II1GPH+ElU8iUcyF7E4pu+sjzFozpfyPj0xDtu/fEOGU2KjsWvxe+j5/LuYuGSHjKO5nOrzLCmShFxRm7p8vxSKSvxrO26Ahpm/Hl4gLLIzM1Rt0nzKk/9brmSV17Btq+VCnRfXnUWsWLW+bHqBGH51+zXhuSoQmCRI6RMVHoJVLz+Bf378GD3F/pRTVx6UdVzav0U1B1P8E65l3x3DvTvlKQCUVmnOIA3P3k1Jw9vr9qn2YaQFPHPFkPfKqUOl8IgSQsRWzatGD7f97DXp6dp4KkI+qzFf24VIaOntji+e6gUScM8IT6ghbepqQxufLWeu4tX+7fGTWMVMni71PPvFsH03sQDmuS4t5Yc8gZ9sKpiyQe2QB3PRzhDM7B2Ab8b3lU1fFfMP9Z1go94GjXzTvXocrYbv3aw+Fj/dXwpxEuPK+1grFlGRiHp9QEfZXnpWNr4VfVCM9gxVvKy02ps+J4TwVV+xreRVvw5u1RBTxN6V1A96TmKteD5pZT9tIK4Y7U1KNmXZVpFfiS1+pWcj05GlIIOOb22/A8qeJYbladU+zSENPnddRw3Fk+zsCobkExMTiydyDBNgAkygGhMw8fb2Lvb/bC8vL0RGRlY6LORBdBDeuXtXz2vtG52c41hbpF+7KMWdkolWatf08UNi9A1kJBXMZVPSlKt7Qz+5pVD8rQeLS5Q0Y6/P/3EMcTcuy9XatEl7Sf01tl7KT6cE0Yr2uJuXkZVu+FBdadp62GVovtydpDTkaVEWtKk0eS9JDJan6WqzNO2QAKPV3upb3ajXQ0P3TjWsESXm7hX7D60wo4ejnRRgJErLy2gFeIxgq83Im0hTAsgTXF7mLBbm2IhnLeviqfLqj756vpvQTz7/B/8r+ONMX34l/ddff4W1tTUmT56M9PTye19K/XxlAkyACVRVAlXGQ0mAaWW1LnFG8wnV5xQqLyUnKxPRF04qt1qvtJdkeRt5Uot6U8vaRp7Ys0/fs5S1jYoqr23uGs0pnNK1tdw6qDwW4xR9Fm1tFs1jzL30wKrtm1i0LM1bpI8uo+H98raSxCS1Q95RZYFUebVLi5WUBUvlVefDqIf+SKHjOWn/yYVi705jzMbGRorJvXv3spg0BhznZQJMoFoQqFKCsqq8kXPBf8l5nVWlv5WpnzlirDMmORU7z18HDRuzMYHyJEDD3TTPlE4voo3djTHySI4dO9aYIpyXCTABJlBtCFSpIe9q81b4QZkAE2ACTIAJMAEmUIUI6F9eXIUehrvKBJgAE2ACTIAJMAEmUPEEWFBWPHNukQkwASbABJgAE2ACjxQBFpSP1Ovkh2ECTIAJMAEmwASYQMUTYEFZ8cwrpEVz83zQh40JMAEmwASYABNgAg+bQKURlHZutdExcAbs3TxgYVVDhun0mvIyE1NxKsvTL8NGnGBjrLUcNA6efgHGFtOan+pp/+R0meZar7F8TjpGsbysTZMsXFl/G1fF58WnHpzbXF71cz1MgAkwASbABJgAEyhKoNIIyjr+7dF10hvwbt0ZtBk4hf37jira31LfW9awEYJyNmqrnQNuaGU9xOk0rYc8bWh2nfnajZqG7lPflHn8eo+Uz0lHKZaXvTgmGWJnFPiP8cKXqxzLq1quhwkwASbABJgAE2ACJRKoNvtQZqWnYfUrT4LOBTfWVr8yGmkJscYW+1fye7jmIjrWDClpleZvhX+FAzfKBJgAE2ACTIAJVByBKiMoX9oQjoSoG+IIxabIF+cFh21djeBFb6lIPf3dJqTGxsgjFh2EhzMnOwtLxndGelIcKM3Fu6HMu/bNZxB59riqXJ3mHTD07cWwLRwKv3HyANbMnSDTe82YhxYDnpLh0PXLsH/pZ6pyL/4dhphLp1GnhTgX2cQEpzeuxO7v58l0GsoOnP8naji6iJN77iEvNxvhu9aJ8p+ryusKLFq0CM7Ozpg3bx4iIow7y5rmTWo5yVBXc5zGBJgAE2ACTIAJMIEyEag0bqwY4TkM2xaEmIun5fGJFI44tEP1cDTP0K2erxRlt8OOodWQCVKwKRlsnWuiYee+yM7MQPA3b+PygW3i4GsTmbxz0dvYvmAOLKxtYGVjpxQB1fnk56tgZmEhxeDGj2cK8SfGiwstZN0v8jxumn9pL+Z4qhudK+7dsjP2//o5os6FIGDEc0JXFuAc8MoXsm4SmCn3omBf0xN0zjjZueC1OL35dxm+cmSnfGYSwurm6OgIC9EnKysr9Wi9YTenXPh45eDKbQu9eTkDE2ACTIAJMAEmwATKi0Cl8VAmRl3H9oVzVM+lHlYib54+hGNB3+P4nz/i1W1X5RzLE2t/UpKRm5ONX6f0lvenN/2mio++eArxt6+o7pVAiwFjYGZugfWfvoRrx/+R0Rf3bVaSkRR9U37ycnNUceqBq8d2g9on8Tp1xQHUbfMYboQeQM2GfriwZwNC1y1FuDiG8T9/n1EVIxFJH7Ko8FD5USUWBvbs2QNXV1fcuXOnaFKJ93uXRKOBZw7uxpvhvR+dS8zHCUyACTABJsAEmAATKG8ClcZDaciDkfeSLD8/D1kZaajftptGsbjrlzTu9d241m1ElanEpL78RdMjzxUMnSfFFJw5TV5SGuY2t7RC5LkTMvv91CQpdIuW1XW/bNkyLFiwALGxhs/bfHmBK4KCbeHukouRPdN0Vc9pTIAJMAEmwASYABMoVwJVSlC6iiFvxSzEqu2iC2xIvBljyXduy/mPHk1aG1NMlTdfy2TFjKR4KSA9mxVsM2QphtjJC2qM9ezZEyNGjIC9vb3BxU5etMTrX7sgSizIGfx4hsHlOCMTYAJMgAkwASbABMpKoEoJyvoBXVBLbPvTddIcOV8xbNufZXr+8J3rpIdywOsLQHte0rzILhNfK1OdVDj22gU07TEUvl0HYvi7Pxhd38SJExEYGIi6desaXTYhyQw1rPOMLscFmAATYAJMgAkwASZQWgKVZg6lIQ9A577Qim2y6PMnQfMuNUyLx5CGxUf/d6Uq2xMfLZPh/b9+gaN/fItdi99Dz+ffxcQlBQuAqM4Dy+bLPK9uv6ZaaOPX5wnQJyo8BKtefkKm5+dpnkRDQ/FkwV+/iae+WI1h7/yA+ymJyMvJQW5Wpkwz5Eub59OQcpQnOd0E9b1yYSb+VMhlXWkoNs7HBJgAE2ACTIAJlIGAibe3t6YqEpV5eXkhMjKyDNWWf9HXdtzArm/fwdVje6RAS4mNLtdG3MVCmhwh+uJvFV+8U9qGzCwsxapye8xYEypE6EitC3BKW3dJ5YZ2Tce3c+Jk8mcrHLF4jUNJWTmeCTABJsAEmAATYALlQqBKeSjpiZUFMOXy9GqV3L0SrnZXtuDjz74K/z6jEHfzMryat5cLiGhFd0XYxv022H6khlzxfS/BrCKa5DaYABNgAkyACTCBak6gygjKywe3iz0qH2y/U5nf26X9W+RG6rYuNeVm6Kc2/lah3c3KNsHFG8YtBKrQDnJjTIAJMAEmwASYwCNFoMoMeT9S1PlhmAATYAJMgAkwASbwCBGoUqu8HyHu/ChMgAkwASbABJgAE3hkCFQaQUkLgdiYABNgAkyACTABJsAEqh6BSiMoqx467jETYAJMgAkwASbABJgAEWBByb+DSk/A3LTKrB2r9Cy5g0yACTABJsAEHgaBai0oPf0C0P7J6ZKra73G6Bg4AxY1bMuNs3MdH3QY80K51VfZKmo3eqrcFon61XLQOPh06FmuXZzdfBa2DdiIpd2WlGu9XBkTYAJMgAkwASZQvgSqtaBsN2oauk99UxL16z1SHOn4Bhxr1Sk3wj4deqGbqLM8jPpHm7vLz/brmLJsL1oPfbo8qi51HT2mvY0OhYK898x5kl+pKytS0NLUEv3r9MWXZxfhmX8mFUnlWybABJgAE2ACTKAyEajWgvJhv4hzO9Zg1eyCYxrL3JaJiaxi/ftTseHD52FiaoZeM96HqfmjORxsZ2Enn/dcQvltOF/md8AVMAEmwASYABNgAloJPJpqROujGhdJZ4CP/OAXxN64hFoN/ZGTnYVtX7yKC3s3qiqatSEc53etQ9Mew2Bl54CEyGv45bkeMp3STIQIzBXlvh3VSlWGAnWad8DQtxfD1tlNxt84eQBr5k6Q4eb9ngR5+2joPft+OnZ8NRfnd2+QafRFR0PSh84Hp/7RiTxh24KEd3AO2o2aCjrukdKuh+zDuncng84XJy9sk+5DxXni9+Hs1QCJ0Tew7r0piLtxGeaWVhj39Xq4+zSTz5hw+yqy0rIc58oAAEAASURBVFPxxyujDeqPqmNaAr1798bEiRNx5coVvP/++1pylBylzJvMLTwfveScnMIEmAATYAJMgAn82wSqtYfyXPBanN78u3wHV47slMIsNTZG3lva2Epx5uDuhR1fv4n7yQnoN/tTjfdlaW2DVoPHI+bSGWwVYjP6/ElV+v8+fAEX926CtZ2jKo4CJBSf/HyVqNsCu7+fh40fz0Rebq7MQ/M4B7w2H/FCmG78aAYSbl/DgFfna5RX6mgz7BkZf/3EPnk1MTHF0dXfyTPDjwYthk/HXug0/kWZZuPkCgd3T6QnxmGnOA/dwb0OOo6ZIdPajZ4mxWTo+l8RvvMv1BTC0q6mh0zT15/Tm35D2PY1Mu+Jv34C1aFudnZ2sBDP6eLioh5tUPjxWp2Rm5+LOxl3DMrPmZgAE2ACTIAJMIF/j0C19lCSiKQPGZ21re287QPL5uPMllVSjI14fwlshFcxPSFW9cZir18U3sXx8p4EqmLXT+yFa93Gyq3q2mLAGJiZW2D9py/h2vF/ZPzFfZvltfP4WfJ6+8wR1G7SClHnQ+DeyB9Nug2W8fT13M87hedT/B2Qny8FaUpstEzb98unsLSxEx7LJ2BhVUN6KWv7tlSVowD1MycrE+QF9fJvJ9MadxmApDu3ZV0U0aTbEBlPX7r6Q30OXvSWKu/+pZ+rwkrgwoULOH78uPRQKnH6ri1cmuODtu8hT4jJeaEfi2ueviKczgSYABNgAkyACfzLBKq1oDSE/Y3QAzIbDUuTNX58AMgzp1jE4WAlaNDVtW4jKQYVMaleyLG2txyipsU8itEQtKXwaubm5sioA8sWwEoIx/ZPTRd96Y/QdUtl/MDXF8jh78y0FCF+Y2FiZiqFpVJPVkaaFJN0T55K8rySuYgh8Ntnj8swfaXci4KFqJ9MV39kBj1fFy9eBH2MsYikCLwX8gGmNHkOM/ym49jeB30zph7OywSYABNgAkyACVQcAfOKa6pqtkSewsSo6/Ao9PbdDjuq8SAkzoyxZOENFC5GeDRpjeiLpzSKpsXfk/dLp/RBfl7BMLiSwU94HskuH9gq51CSp/Gxp1+W8zGjLoQWzKXc/ie2L5wjF+y8sjVCtqOUL+maGH1TzKusr0q2c6uNTDGHkkxXf1QFdAQ8PDzQsWNHREdH4+hRTW4lFcvIvY8z8WH4Nvx7LOq8EC5WLojPjC8pO8czASbABJgAE2AClYBAtZ5DaQh/GvalrYS6Tn5DevhoIUtZLHznOumhHCA8im71m8DK1h5dJr4mq6ShdRrOHvx/X6OGo4ucf0kruWs4OBdr8tDKL+Winb4v/xf5uXnSg0n5aNh70JyFBcPixUoVjyAPq5NHPblf5mNPz4a1vZMqkzH9URVSC3To0AGBgYEYP368Wqxhwdj7BUK9hnkNwwpwLibABJgAE2ACTOBfI8AeSj3o7VzcMXXlQZnryKpviuWmVdRFrf+rX6BF/6dU0bR3JNkP4zqC5jzuWvweej7/LiYu2SHjyQNKczWvHtuDkxuWgxbcNBWrsslyc7Jx5I9vpQiVEWpfoeuXyc3YaZ7l6Y0r0WbERMxaf04K32wxxE3zLMnyC69qRVXB42t+RLOew9Bt8lw57zIjKR55YmU6mc7+qGooOaC0m5dXnFHJpQpS0nJE/4X52NdHZFpkQSR/MwEmwASYABNgApWSgIm3t3eB6lDrnpeXFyIjK/Yf8X+jTbVHLhb07ToQw975AV8ObiwW1zQSW+3clNvpFMtYhgj3hn5S/NE2QOpGe0zWbtwCGSmJcrhdPU1XmLYMcvFuiHtXz+vKpjWNytIWRyRIw3f9jZ3fvKPKV9r+qCooZeCDtu+iQ832uJpyDTMOFixYKmVVXIwJMAEmwASYABN4iATYQ2kA3LtXHs7m2iXVS/Mni86vNKCbUhAaKyZp2D1w4Rq55ZFbfV+5AOjEX79oNFfa/mhUUoqbd8XiHNrg3MaMh71LgY+LMAEmwASYABOoMAI8h7IE1HE3I3D16G45DFxClkciOvluJC6JLYBoJfnFvZvx3ZNtjPKKPmwIqdmpuHu/YLHSw26L62cCTIAJMAEmwARKR4CHvEvHjUsxASbABJgAE2ACTIAJFBJgDyX/FJgAE2ACTIAJMAEmwATKRKBaC0paCMTGBJgAE2ACTIAJMAEmUDYC1VpQlg0dl2YCTIAJMAEmwASYABMgAiwo+XdQCQiYiF8ibzhQCV4Ed4EJMAEmwASYQKkIsKAsFbbSF/L0C0D7J6fLClzrNZYbk1uIFdaV0egYxo6BM2Dv5iHPBacwbTNUfmaC7Oe2ImvuDeT0/6T8quWamAATYAJMgAkwgQolwIKyQnED7UZNQ/epb8pW/XqPRNdJb8ijHQ3tRs/n38GQt8TJOeVodFzjtJWHUNOnmUatdfzby/55t+4Me3dPGfbvO0ojT1lu8ut2RH4tf1gs7gzzrXPKUhWXZQJMgAkwASbABP5FAjzO+C/CL03TtX1bgTyH5Wl0So5DLS/YOLmWZ7V668p3EIuistJgklyxpzLp7RhnYAJMgAkwASbABIwiwILSKFwPPzOd4915wstS3OXl5uDE2p+w75dP0XLQWPSe+QHMzC1kJ2Zvviyvy58fADq6seukOcL7ORUkDvNycnA9ZB/WvTtZnONdcI52rxfeQ4MOPZFyNwrkcSTb8tnL6DLxddi51pL3oz5aLvPfDjuKNXMnyDh9X7Nnz0ZAQAA2bdqEoKAgfdk1080sNe/5jgkwASbABJgAE6iSBFhQVvBrOxe8FhnJ8bLVK0d2CuHohtTYGFUvuonh8DuXw/D32xPh3qg5LKwLjh28fGAbEiOvo/d/PkQNB2ds+uQ/skxSzC15NTExxdHV30kh2aB9T3QePwudxr+Iw799LdNtnN3g7NVAlj24fCHMLa2Qn5uHjR/NkN5JOrf8wPL5iLlwCqnxd2WZGNGPsG1BiLl4GmkijsIRh3bINOXL2dkZFhYWcHJyUqIMu4pFOHmN+8EkLsKw/JyLCTABJsAEmAATqLQEWFBW8KshEUkfsqjwUPlRumBiaiaFnglMkJ4YizNbVilJQoQm4Obpw7ifkghzK2sZViWKAHkxaS6kf58n5AIa8lLW9m2pnkWGg14PRNHzvpPu3JZpJGSpDcUSo65j+8IHcxvVw0qe/fv3IykpCSEhIUqU3mtu55nI7foqkJ0Bi99H683PGZgAE2ACTIAJMIHKTYAFZSV6P/l5ucKjuAgdx87EtN+EeExNwtbPX1EJUF1dHfj6AiEmRyEzLUWKURMzUyks1cvkZGUWE5Pq6aUJBwcHgz7GmOmZP2GScF2u7M4NeBbm2+YaU5zzMgEmwASYABNgApWMAK/yrmQv5NDKL/HloEZY//40mAqPZb+X/6vRw3zkg4a31c3U3FyKybDtf+KbJ1pg6ZQ+BckmYn9HNcsVglKr5efLaGV+ptY8JUS2bNkSI0aMgI+PTwk5ikebpN2D6YXNMDu2BPm+/Ytn4BgmwASYABNgAkygShHQVCZVquuPXmdpyPrxZ1+Vw943xKIamreYk3lf40Ejzx4Xq7xrwaNpG9AQORnNhcwVC3hobiXVMWjOwmKiU6OSIjc0nJ6bnYU2wyfCytbeqLKjR49GYGAg+vbtW6RW/bcmKTHIN7fWn5FzMAEmwASYABNgApWaAAvKSvR6aG5kp3H/wcubLuGljRfk9kB7fvxQo4cn/7cCKfeiMf7rdXh121W5dySt5D69cSUadu6DWevPoXGXgWJ6YppQmgWeR40KSrgJ27Ya9dt1w4vrzuLZH7aWkKt4dH5hG8q1eA4dMfeTAEuxqXsNZx2ZOIkJMAEmwASYABOo7ARMvL29i6kOLy8vREZW7N6A1aVNfT8IGs6mE3Ryc7KRcPuqvuwa6bRlkIt3w3KfJ6nRSHneWNkhe/p+5Nu4wuz4LzDbNa88a+e6mAATYAJMgAkwgQoiwItyKgi0oc2QtzH2+kVDs2vko2Hroiu4NTJUtpvMVFgsChCC0qWy9Yz7wwSYABNgAkyACRhBgAWlEbA468MgIBYZpcc9jIq5TibABJgAE2ACTKCCCPAcygoCzc0wASbABJgAE2ACTOBRJcCC8lF9s/xcTIAJMAEmwASYABOoIAIsKCsItNIMLT5iYwJMgAkwASbABJjAo0SABeWj9Db5WZgAE2ACTIAJMAEm8C8QYEH5L0DnJv99AqbiECEry2I7Zv37HeMeMAEmwASYABOoggRYUFbBl2Zslz39AtD+yemyGO1x2TFwBixqiA3FK6HZudWW/bN385BnkVNf3eo3KbeekpA8tSoS1zfeQtAnd8utXq6ICTABJsAEmEB1JsCCshq8/XajpqH71Dflk/r1Homuk96AY606lfLJ6/i3l/3zbt0Z9u6eMuzfd1S59fWJXmlwccjDwFm1MeK1WuVWL1fEBJgAE2ACTKA6E2BBWZ3ffjV89oZ1cpCTC5y7alENn54fmQkwASbABJjAwyHAG5s/HK5VplZzSyuM+3o93H2aIUectEPHPWalp+KPV0bLZ6gX0AUjP1iK0HVL0faJyTAzt8DZ4LXYNv811G/bDUPf+g5Wdg6gU3oOrliIY0Hfy3IWVjUQ+OVa1KzfFKbm5rifmoTvRrdBfp5Qc8IGz/0ajR7rBwtrG+RkZWL9+1Nx/cRemabva/bs2QgICMCmTZsQFBSkL7tGupUFz5vUAMI3TIAJMAEmwATKgQALynKAWNmrOCcEYEZyvOzmlSM7YePkhtTYGHnfbvQ0KSZD1/8KcytrtBw0Dkl3bqseycLaFiQ6SUyG71qHmEtnYC/mOdKZ4yPm/YyczAzs+Or/EDD8WXSbPBcRh3Yg/tYV9Jo5D+4N/bDxoxlIjbuDNsOehYmYwChOlpRCtFmvETiy6htcPrgdjR/vjzwhSMliLochbFsQYi6eRlr8XRmmOtXN2dkZFhYWcHJyUo/WG7YUYrJX+wwkppjpzcsZmAATYAJMgAkwAcMJsKA0nFWVzUkikj5kUeGh8qM8TOMuA6SA3P39PBnVpNsQJUnjGrp+Gfb+9LEqzqt5eyk09y75CGe2rEKEEIYz1oSi1eBx2PPDh0JwitUvhRZ94bRo8yXlVuOaEHkNB5bNV8UlRl3H9oVzVPfqYSVy//79SEpKQkhIiBKl97rotTgM756O3FwTPPeBm978nIEJMAEmwASYABMwnADPoTSc1SOZ08WrgfQoKg+Xci9KCWpcT2/+XeOeypFdO7FPXtOT4pCbkw2HWt7y/uDyhUi+G4Vh7/yAV7dewej/rpTx9HU9ZB9unjqETuNexKz15zB56R441i4op8qkIxAcHIwFCxbgxIkTOnJpJn31hyPm/+YIGvB+eVySZiLfMQEmwASYABNgAmUiwIKyTPiqfuHE6Jtw9qqvehDatkebpYlha3VLLhSens3ayGjahojmV9IwNVlKbDR+evpxLB7TVs65pPmWTboNlmn09eecsfhycGP8IzycTqL9blP+T5WmL9CyZUuMGDECPj4++rKq0q9GmuObIAdsPlADLRpmq+I5wASYABNgAkyACZSdAAvKsjOs0jVEHA6Gk0c9dBjzAh57ejas7Q2blxh1LgT5YkJkp/Gz5BZEA179QnK4tG+zvLYcNBa0/2V6QiyUOFq8Q+bdshP8+jwhF/Kc370Bebm5sDRiX8zRo0cjMDAQffv2lfUZ8xV5zxymprwwxxhmnJcJMAEmwASYgD4CPIdSH6FHPP34mh/RrOcwuaAmLycHGUnxqgUy6o9O4lHdssVinH9+/Bg9p7+NqSsPyqRL+7fg5unDMuzToRf6vfwphOqU93fEYpszW/6QYZe6jdB31scYNOdLeZ+eGIftX74hw4Z85RfWqVwNKaPkiUsyhblYk+NVMxeR93hxjsKFr0yACTABJsAEykLAxNvbu5i7xsvLC5GRkWWp1+iy3KbRyMq1gJmFpfQY0pzG8F1/Y+c37xhUP20JVKtRC8TdvCy3G1IvVMPBGS7eDeXKcNpWSN1o5XhNHz8kRt+QIlY97WGG3ZxyceTXaNCK74OnrTH2rZoPszmumwkwASbABJhAtSDAHspq8ZpLfkg61jBw4RpEnz8pjjj0lUPPJ/76peQCRVLIqxl94WSR2ILbjOQERJ7TvnCG9p4sqZzWysopMjbRDL5P1EGdWjnlVCNXwwSYABNgAkyACbCgrOa/geS7kXKOo2vdxri4dzOOrv5O7FmZ8EhTyRM++Zsx/NN/pF8yPxwTYAJMgAlUKAH+V7VCcVe+xuhUHNqYnI0JMAEmwASYABNgAqUlwKu8S0uOyzEBJsAEmAATYAJMgAlIAiwoH/EfAi12YmMCTIAJMAEmwASYwMMkwILyYdLlupkAE2ACTIAJMAEmUA0IsKCsBi+ZH5EJMAEmwASYABNgAg+TAAvKh0m3GtfdtPtQNO05XBJo0L4HWg2ZUCVp0FGUHQNnwN7NAxZWNWSYtlqqCDMxMYGzm2OJTVEa5dFmdg62sLSy0JYEK2tL2NrbaE3T16bWQhzJBJgAE2AC1Z4Ar/Ku9j+BhwOg5wvvwcTUFBf2bEDX5+bAVexxeXrTbw+nsXKqdcz8IFw+uB2h65aqaqzj3x5dJ70hziaPQczF0zJMx1Pu/ekTVZ7SBEwFm/5P9kD3wZ2lwPv2/V9xJfy6qqr+o3vIdBJ4Odk5+G7eMly/dEumN/Srj+ffehrmFubiIKJ8bPo9GLv/V3BaEQnFOfNnwMHZXua9cDoCP368UlXvzPcmopF/A3mfGJeEL177HulpGfJeV5uqCjjABJgAE2ACTEALAfZQaoHCUdWTQO3GLcTpPc0q5OEHjumFvk90Q0JskmzP1PSBp5G8iwOe6omzJy7iyzeXyPTJr49V9WvS64FIS0nHR//5CvH3EjFkfF/Y2NaQ6U+/NBq2Djb4/NXvcOrwWTRt1Qjtu7eWaY/3ay/FZNAPG/DH4vVwcnXEuP+MlGn62lQ1zgEmwASYABNgAloIsIdSCxSOergEfDr0xJA3v4WljZ3wsOUhMfI6Vr82BmnxdzF+0XrQJuuWNWxx79oFGb6fmoTfZw1HUswt1G/bDUPf+g5Wdg7yqMiDKxbiWND3ssPjvvpb5LmNzZ/OkvcTf9yO22ePi2Mk30b3qW+iiRiGz826D2evBvLIx3XvTUHcjcsY9s73aNipD+j4yeb9RsOv1whkpiZj8Zi2BoGYPXs2AgICsGnTJgQFBRlUJmT/aezdfBjunq548YPJGmW6Deok71d9tw41a7tIT6SdozlcajrB3NJcisc1q3YhKSEF9o62cti7y4AO2PHXXjRsVg8RZ68j+tZduNZykfWQkDy+9xQ6926L9NQMHNkdChK0ZI2b+8irrjZJtLIxASbABJgAE9BFgD2UuuhwWqkJHF/7I46v+VGWP7lhGU6s/UlVl4W1DS7t34IgISJ3fDkXDrW9MeL9Ak+crbM7MtOScVGkk7fw4IoFsLK1R+uhTwvhZIoR836WIpQ2Y0+4fRXdJs+V54VT5XautWHnVkvVjq2Lu4gruLdxcoWDuyfSE+Ow89t3RLgOOo6ZIfPu/fm/+OvNZ0DHQd48eVCGSWySxVwOQ9i2IDncTYKXwhGHdsg05cvZ2RkWFhZwcnJSovReY27fQ2pymtZ8NT1ckZuTi/vp9zF5zljcjYqV+WrVqQnPugXPc/X8dYybMQLZWTnIy80DlSGjYfDb16PRurM/6jTwQLIQnQ5OdjLNXlxpmJu8kX1GdMW96DhYCIFKpqtNmYG/mAATYAJMgAnoIMCCUgccTio9ARKQiqAM2/4n9i/9TFXZxX2bsV0ISWsHpwIPZHIiHGvXVaVHXziF87s3yPujqxcLz+U9KRY9/dsKD50VDi5fgDNbVuHPOeNknlaDC66qCnQE1swdj1MbV+LulXPw8m8ncyZF38TN04eRn5uD5HvRMqycM54YdR3bF85B/K0rQuimyHDR88n379+P48ePIyQkREfLhifRPMjc3Fw5JE7hFV+tkYUdxbxIB6eCuZE0XN36seZYtvBP5OXlyUU2yiKc7MxsBL4wAge2HZNeTEuxCIfMwtICWSJtyhvjcC8mDicPnZXeTZqnqatNWZi/mAATYAJMgAnoIMBD3jrgcNLDIUCrv4fM/VosNslCamy0GPq2RV5OjqqxXBGfI4amhStSxuXlZsPcyhouYqia7NqJffKanhQnPHnZcKjlLe/1fWVlpEkvJOUjT6WDe/ls+h4cHAz6lJfR/EgSf7Ro5++lW2FmbiarpiFuWqFNNvGVp3DxzBVEnLsmFj+ZyDmVJBbJeg59TC7k+fvXLZj75X+QdT9LxmdnZcOzXi1Z98cvfi0XBNGiHvroalMW5i8mwASYABNgAjoIsIdSBxxOejgEek5/W86H/GqIL36e2B3pSfEaDZHA0WbJ96JktGezNvJqIeZZmplbyLmXFJGbnQkrmwIPHt3TPEtjjFo1MzP+b6yWLVtixIgR8PHxMaa5EvPSUDR5DWNj4nEo+Dh8xLxIshgxLzLq5h0ZpqHtZQuCxBxKO9FnM9WwOK0It6phJT2XlNHJxQHJiamyTIq4WlpZSs9l3N0EKS5JZJLpalNmEF++vr4YMmQImjSpmG2TlHb5ygSYABNgApWfAAvKyv+OHrkeZiQnwEwMXdOinDbDnoGjgZ7CqHMhcv5kp/Gz4FirDga8+oVkc0kMoZNFnQ+Fa73GcK7jgy4TX4OpkeKQFgfVC+gi6zYxLfAKyor1fI0ePRqBgYHo27evnpyayfV9veFV30NGetarDbon27/1qLzSCnBrG2v0Gvq49CDS/d3IWLnND231Q9syjXl+uPQwHtx+XJa5euGmvE9NSkXnPu2kuDwUfEKm0WIcMpq/WVvMx2zQpC4uiwU8ZLralBnE17BhwzBhwgR5VeL4ygSYABNgAkyACLCg5N9BhRM4sGw+ajg4Y9b6c+g98wOkxhV43TQ6ouallMOyYp5gdmYG/vnxYzn0PXXlQTTpNlgu7qH5j2SnNv4mFqjkYPLSPWg3elrh8HaBt7Mkr6d6m0f++EaKUKr75U0X1ZN0hpW6lavOzGqJL300BU9MGiRjRjw7AHRPliLE4K71++WWP/9d9v/s3Qd4VFXaB/B/ek9IIQSSUELvvSldkI4ooICoiGJBRbGAuvqpa1lXxS4uKiqKhbICKyJFkA7Si9SQUEMCpPee77wnzDDpCaTMMP+zz2Tu3HPuuef+Ls/ju6fc+wJcPVzwjeqNNKTvP1wCN3dXSF7rzs2wevEG47MkF3z8X72Se9b7j+POh0bqZ1vu3LBPH7p1zS6cCT2PcVNHQPJlxfdPc5bqvLLOKYXc3fMX98THc9W3RuMfClCAAhQwCtgEBwcXGV8MDAxERESEsVB1bPCcVaNcE67lvRL/Jq1xOfwY8nJzynuILmdrb486Tdoi5mwoMlPzh3NNK5DV4ZfDj5russhtGdauG+yPc+H5Q/2mFyFD4rKKWx4PJMPchZN/oB9SElN1z2bhPBkmd3Z10sPchfNKO+c333wDZ2dnPPDAA0hNTS18KH9TgAIUoIAVC1R8wpgVY/HSK1fg0snD11ShLOAxrMIuroIbIZiU65JAsbhgUvKkN7SkPMmXofGSkvRGyqe4VNI5XV1ddTC5ceNGBpPFwXEfBShAASsXYEBp5f8AePkUKI+A9EhOmHD1bT3lOYZlKEABClDAegQ4h9J67jWvlAIUoAAFKEABClSJAAPKKmFlpRSgAAUoQAEKUMB6BBhQWs+95pVSgAIUoAAFKECBKhFgQFklrKyUAhSgAAUoQAEKWI8AA0rrude8UgpQgAIUoAAFKFAlAgwoq4SVlbboOxLyzm5Jjbr2Q/sRk6wOpaoM+qo33DT089Ke3UPqoXmAb5Xb1sQ5q/yieAIKUIACFKg0AQaUlUbJikwF+j/6Cgaoj6Te98/EgGmv6m1r+lNVBo8N6ITBbUI0pWyP795Sb9/eqRkWPToazuqB6IbUW73OUfY92r+j/n7ils6GLNzVrSUWqlc3SpquXtMo5eQz/8ERmNa/E+zVqx0NqaRzGvL5TQEKUIAC1i1w9b8Y1u3Aq6eAxQtsUa9VlNRZvRfckLqpt+mkZmYhIzv/bUS9mgbBzclBZ9vZ2kDeuCNJ/qapB6nPXPwnFu08CglEZw7trvP4hwIUoAAFKFCWwNWujLJKMp8ClSgQ1KYbRr40B27efrrWM/u2YPHzkxDYugvGvr0An9/VRb9WsWmvIRg28wN8NCq/F04KT19+BEfXLUWLfqPg5O6JuIhTmHd/P13PPZ+tQHJ0FGqHtIKnfz31tplMfHF3T6QmxGDw0++g1cA7YGfvgJTYS1g0ayJizoQisE1XjHv7B5zdtxWNuvVDRkoS1n36Mo6uX67rdFVtHPevBfBr1FwFYLb62C/uuRkdRt6LXvc9jTl3dtbvGZfC41TbXTx98N20/Hd06wpK+OPh4YE5c+YgIyMDDz74YAmlyr/7clIqktIz0S2kLraezA8u2wTWxgH1ekZJ8nad1MxsjFc9k/M2HyxScW5uHk5HJ+iPqwo6x3VpAQ9nR11nkcLcQQEKUIACFDARYA+lCQY3K09g15K52LV4rq5w3/JvsXvJl8bKHVzcMO6dH2Hn4ID1n7+GX998DLk5+T1ojq7ucHByga2tnS7v7OYJB2dX47Gy4ah+tx9+N6JOHMTv7z6DyKP7jPlu3rXRuOcgHeCt/eQlhG5ZBaieuO4THkfbIXepIHEZVr4zA7YqqBw+6yN9nKNqj72jEwKatcOaD55HTmamGqafZaxzwuzF8K3fFPuWz8eimRMQd+G0Pv7Iul902zqPyQ8GpY4GHXvh3MHt+tjSDKSArRpSdlAGbm5uxnOVZ2Px7mPYcuKcLrpQ9SauPBhmPEyCx9b18oN0b1dn3Ru5+UpZKbRkzzEMbNUIjvb5vsYDC20cPHdZ7wn28dTfpZ2z0KH8SQEKUIACVijAHkorvOnVccmmAeSh1YsKnFICO+klXPb2kzi1a4POO77ptwJlyvoRffq46tG8Wxc7vHZJgeI52Vn45sFb9L4DKxbo744j70F2ZgbSEmJRu1ELyPHBbbtDgltD2vDFGziiej49atdDz0nT9W4nNw94B4VAzrF+zqt639n92/R3VlqKrqf98InY8eMn6Dxmqt6/48dP9XdpBlIgPT0du3btqvC7sRfvOqbrlz+/mQST8luCRxnW9nRxQo/G9XSv5L6zF9Eu2F+ysepQOCZ2bwWZb1laSkzL0Nm+bi76u7RzllYP8yhAAQpQwDoEGFBax302q6v0rd9Exl+NweS1NO7k9rUlHhZz+kSRPCcPLz1fsInqvTQkGSp39fIx/MSp3Rv1dtKlCD20LT9qN8ofag/dutpYznRj56L/YNisD+EVEIz2wybqADMtMc60SInbMtQ9e/bsEvOvJePg+Us6iJS5k10a1sXpmETkqKFsQ5LtFQfCMKJ9E6w5fMqwu8i3l6uT3nc5ObVIHndQgAIUoAAFCgtwyLuwCH9XuUDixfNqFYgN6jbvUORcmanJep/MW5Tk36SN/i78JzU+pvAu4+/05ATjtmEjKzUF6UnxmDelf4FPQlT+0LGUy7sy7G44Rr5jI8L1z/odbjbdbdyWHs0cNU9z4BNvwLNOIHZeGeY3Fihlw87ODqNHj8bQoUNLKVWxLAkYwy7Ho6sKKJsF+GBHWESRCpbuPaFXcPdqElQkz7CjY/06evN8bJJhF78pQAEKUIACJQowoCyRhhlVJXDkj6W6h3LIc7Ph17A5ZFi51+Rn9ekuHNmr83qoOY++DZqqZ1mOqpRmhO1cDzcff3QZO1XNf7SHT3Bj9HvopTLrTo2LhvQ4thk8Dk1uGgwbNbez95SZes6l4WDpLZVnbcpQ+5E/fjHsLvPb3d0d48ePx7333ltm2YoU2K6CyA5qiNtJzZM0nT9pqCNdrebecOwMvN2cDbv0t62aa9rE31sPh4/q0BR7zkQhOSOzQBn+oAAFKEABChQnwICyOBXuq1KBpOhIrJvzCrwDG2LyF2vwxNK/1YrtkfqceXm5CPtrnV6Nff+XfyA7I63Ytki5EpMaTi+c1n70AiKP79dB5NMrwzBl3nrICnJJsvo5/7v4On956X4d5I5+9Qs8syocXcc+bBwSl+O2zs8ftj69a4P8LHcynLfcB5Sz4JYT5/XwvsyDjE7O9ytM8pNazGN6fhFwUc+vfGtMX4xW8ys3Hj+L91btLOcZWYwCFKAABaxdwCY4OLjIf30DAwMREVF0qKwqsXjOqtGtCdeKXIl/41Z6sUzsuasrleV4d78APZQsi2gqM8kiHP+QlnqltvQ+ViR51QmCi5pzefHkYeTl5q9Kl+NbDxqLoaq3df4jQ3A5/GhFqmRZClCAAhSgwA0hwEU5N8RttNyLuBR2pNjGy7MkqyLJyuyIw7uvqeoENfdTPqZp4odLEdC8nX6eJYNJUxluU4ACFKCANQlwyNua7javtdIF0pLisP/X77Hg8fwh+0o/ASukAAUoQAEKWIAAeygt4CaxieYrsPTlKebbOLaMAhSgAAUoUE0C7KGsJmiehgIUoAAFKEABCtyoAgwob9Q7e+W6qntx1Q3OycujAAUoQAEKUKAYAQaUxaBwFwUoQAEKUIACFKBA+QUYUJbfymJL2qm77OhQ5OlQFns9bDgFKEABClCAAuYlwIDSvO5HlbRmwuBknFx6HuHLzuOOASlVcg5WSgEKUIACFKCA9QowoLSCe7/gd3e0HBuEpDQbPHIH381sBbecl0gBClCAAhSoVgEGlNXKXXMnS0m3wakIe3i4cui75u4Cz0wBClCAAhS4MQUYUN6Y97XYq8rNtYGdHQPKYnG4kwIUoAAFKECBaxZgQHnNdJZ34J5jjvD3yUFQnWzLazxbTAEKUIACFKCA2QowoDTbW1P5Dft8iSfORNpj27xI7Pn+QuWfgDVSgAIUoAAFKGCVAnz1ohXd9lt7pKFRvWz8utkV81e4W9GV81IpQAEKUIACFKhKAQaUValrZnWP7peCxBRbPPZvXzNrGZtDAQpQgAIUoIAlC3DI25LvXgXb7uyYhyQVUDJRgAIUoAAFKECByhRgdFGZmmZcl60NUD8gB7GJvOVmfJvYNApQgAIUoIBFCjC6sMjbVrFGjxuYglP/Owdfrxx8sdSjYgezNAUoQAEKUIACFChDgHMoywC6EbJXbXfBkfAAhKsHm6dlqK5KJgpQgAIUoAAFKFCJAgwoKxHTXKuSeZOHw9kZba73h+2iAAUoQAEKWLoAowxLv4NsPwUoQAEKUIACFKhhAQaUNXwDeHoKUIACFKAABShg6QIMKKv5DkZERFTzGXk6ClCAAhSgAAUoULUCDCir1pe1U4ACFKAABShAgRtegAFldd9iG0Vuy7VQ1c3O81GAAhSgAAUoUHUCDCirzrbYmnMb9kLmzHBkzjiMvODuxZbhTgpQgAIUoAAFKGBJAgwoq/lu2Z7aBMd3m8Am4RxyOt9XzWfn6ShAAQpQgAIUoEDlCzCgrHzTsmvMyYRN5EHA2bvssixBAQpQgAIUoAAFzFyAAWVN3aC8HOTZOdTU2XleClCAAhSgAAUoUGkCDCgrjbJiFdle2I+8uu0BF5+KHcjSFKAABShAAQpQwMwEGFDW0A2xPbYCtme2IvPJ/ci6d3kNtYKnpQAFKEABClCAAtcvwOfXXL/hNdWQq3oncxsPgN2md2F7fOU11cGDKEABClCAAhSggDkIMKCsobuQ12wwbGLCYLftkyIt6NmzJ3x9fbFt2zbExsYWyecOClCAAhSgAAUoYE4CDChr6G7k2bvAJimq2LNPnjwZXl5eSEpKwsaNG4stw50UoAAFKEABClDAXAQ4h7JG7oQN8vxbAsnFB5SOjo66VdHR0TXSOp6UAhSgAAUoQAEKVESAAWVFtCqhbG79nupNOWHIq9Madvt/KFKjp6cnXFxcEBMTg8OHDxfJ5w4KUIACFKAABShgbgIc8q7mO2IbuR8O/+kNm5RLQE5WkbN3757/OsavvvqqSB53UIACFKAABShAAXMUYEBZ3XclKw02WRElnnXt2rWQDxMFKEABClCAAhSwFAEOeVvKnWI7KUABClCAAhSggJkKMKA00xvDZlGAAhSgAAUoQAFLEWBAaSl3iu2kAAUoQAEKUIACZirAgNJMbwybRQEKUIACFKAABSxFgAGlpdwpS2+njR0gHyYKUIACFKAABW44AQaU1XxL67XqhK7jHtZn9W3QFN3HT4ODi1s1t+Lq6aq6PXm1GiDzyQPInHUKuS1HXD0xtyhAAQpQgAIUuGEEGFBW863sMuYh9J36oj5rq1tuR+8ps+BVJ6jcrej/yMsY8Y9Py12+rILX256y6s9tfxdsstPhOLs5bI8sL6s48ylAAQpQgAIUsEABPofSwm5aQLP2cPcLsJhW53kGwubiEUA9f5OJAhSgAAUoQIEbU4ABpZnd146j7kXPSU/BtZYvcnOysXvJl9g07220GzYBtzz2T9jZO+gWz/gtVH/Pf2QIYs+F6SBz/HsLUatuA+Tm5uDU7o1Y9n8PIi8vFwOmvYbmfYbBxtZO15saF40fZ4xB/IXT5br6jz/+GN7e3njttddw8uTJch1jLGTnBKg2MFGAAhSgAAUocOMKMKCs5nt7eO0SpCXG6rOG7fhDBXh+SI6OMraijxoOvxh6CL+8NBn+TdrAwdlF54VuWYX4iNO45fHX4eLpjRVvPa73J0Sd09+3/3MePP2DsGX+bPg1bIYW/Uahm5qf+ddPn8LN2w9uPv6IOn4AO9Tvvg++gFtnvI1Fz41HWe2Ryr28vODg4AAnJxUcViQ5uSO3QU/Y7fu+IkexLAUoQAEKUIACFibAgLKab5gEkfKRdOHIXv0xNEF6EO0dnWCj/pcaH42DK380ZKkgNA5nD2xHelI87J2c9bYxU23UbtQC5w7swI4fP9G7Q7rfgpb9R+mA0lBu4cwJauQ5BfVadoTkSyqtPYbj/vzzT/j6+uLixYuGXWV+Z4/7FrmNB8AmYg/sds0rszwLUIACFKAABShguQJclGNG9y5PDVVvX/AxAlp0wEMLtuPxXw6icY+BZbbQxsYWtnb2iDy2z1g2UfVcunj6GH9nZ2boYFJ2RB7bD0e1slyC1/Kkb7/9FrNnz0Z0dHR5iusydmtfgd26fyIvsLPupSz3gSxIAQpQgAIUoIDFCTCgNLNbtu37D/DBsCZY9upDsFU9lrc+9a8CLcxDHiSANE0yT1I+fg2bG3fLwp3M1CTjbwkebe3zO6T9GjRDTlYmJMgsT+rfvz9Gjx4NDw+P8hTXZWziz6ieya9gc3YHcpsOLvdxLEgBClCAAhSggOUJFIxMLK/9N1SLHV3dcfN9z+iewzN7NiEl9hKyM9ILXGPE37vUApw6qNuio15kY8hMvHQBDTr1gjxXssPIe+DsUavIsPigJ/8FefZl015DcDn8qOHQMr8nT56M8ePHo379+mWWLVzAJikScPIsvJu/KUABClCAAhS4gQQ4h9KMbqbMjewx8XH0vHu6blVWeip+e/vJAi3c97/v9IKbuz9aqt48YwNZ5S3B4W//egJ3vvMzJn6o9qski3U2/Od147GyYrz1wDvQdvCdevX4lm/fM+aVtZGXl1dWkRLzbdITkBvYRbVV/X8XrvYu0YkZFKAABShAAUsWsAkODi4SLQQGBiIiIqJar8tazlkWqgxnSy9iTnYW4s6Hl1W8SH7tkJZIT4xHUrTqGbySRv7jMzTo3Btz7uwE/5BWuHjysIrtcgzZVfotcyiz7l6sz2G//DHYHv+9Ss/HyilAAQpQgAIUqH4B9lBWv3mpZ5S5kNGnj5daprTM0oayc7OzEXXiYGmHV3qerPJ2fK8Z8txqwyYjsdLrZ4UUoAAFKEABCtS8AAPKmr8HVd6Ck9vXICXucpWfp8QT5GZDz6UssQAzKEABClCAAhSwZAEGlJZ898rZ9qPrl0M+TBSgAAUoQAEKUKAqBLjKuypUWScFKEABClCAAhSwIgEGlNV8s2XxERMFKEABClCAAhS4kQQYUN5Id5PXQgEKUIACFKAABWpAgAFlDaDzlDUvYGujnrfuWOSJWTXfMLaAAhSgAAUoYIECDCgt8KZVtMny9pyu4x7Wh8kzLruPnwYH9S5vc0zyykhpn4dfXTg4ueht01dKXm+bJZDc/2METv96DgvfunS91fF4ClCAAhSgAAWUAANKK/hn0GXMQ+g79UV9pa1uuR29p8yCV50gs7zyoNZddfuCO/SEh389vd160JhKa+sdA1Lg45mLodMDMPrZOpVWLyuiAAUoQAEKWLMAA0prvvtWeO2Ng7KRrV4SdDjcwQqvnpdMAQpQgAIUqBoBPoeyalwtplZ7RydM/GiZeiVjS2RnZerXPWamJuOnp8fqa2jQqRdu/+fX2Lv0a3S+4wHY2Tvg77VLsOq9Z9Gwcx/Iax2d3D2Ro47d+t372Lnwc32cDFeP/2AJajdsAVt7e6QnJ+CzsR2Nr3wc/vxHaHLTrXBwdkV2ZgaWvToVp3dvLJfbjBkz0KlTJ6xYsQILFy4s1zGGQk4OnDdpsOA3BShAAQpQoLIEGFBWlqQZ13NYBYBpibG6hWE7/oBrLT8kR0fp313GPqSDyb3LvoG9kzPaDZuIhIvnjVfj4OwGCTolmDyybql+daOHmuco7xwf/dpXyM5Iw5oPX0Cn2+5Dnweex8ltaxB7LgwDHnsN/o1b4dc3piE55iI6jroPNmoCo3qzpA5EWw4YjR0/foLQravR9ObByFUBqaSo0EM4tGohoo4fQErsJb0tdZomb29vODg4oFatWqa7y9x2VMHkgK5piE+yK7MsC1CAAhSgAAUoUH4BBpTlt7LYkhJEykfShSN79cdwMU17DdEB5PrPX9O7mvcZYcgq8L132bfY+OWbxn2BbbrqQHPjF2/g4MofcVIFhtMW70X74RPx539eVwGnWv1yJUUeO6DO+aThZ4HvuIhT2PLte8Z98RdOY/X7M42/TbcNOzdv3oyEhATs2bPHsKvM74+fjcFtfVORk2OD+//pV2Z5FqAABShAAQpQoPwCnENZfqsbsqRPYCPdo2i4uKTLFwybBb4P/PZDgd9ynKRTuzfp79SEGORkZ8GzTrD+vXX++0i8dAGjXv4Pnvk9DGP/9b3eL39O79mEs/u3ocfEJzB92WE88PWf8ArIP85YqJSNtWvXYvbs2di9e3cppQpmffiTF95b4AUZ8H5qYkLBTP6iAAUoQAEKUOC6BBhQXhef5R8cH3kW3oENjRcij+0pLqWoYWvTlHgl8KzXsqPeLY8hkvmVMkwtKSk6El/eczPm3NVZz7mU+ZbN+wzXefJn0cwJ+GB4U2xQPZy11Pn7PPiCMa+sjXbt2mH06NEICQkpq6gxPzzCHp8s9MRvW1zQtnGWcT83KEABClCAAhS4fgEGlNdvaNE1nNy+FrXqNkC3ux7FTffMgLNH+eYlXji8B3lqQmSPu6frRxANeeZd7XBi02/6u92wCZDnX6bGRcOwTxbvSApu1wOtBt6hF/IcXb8cuTk5cKzAczHHjh2L8ePHY9CgQbq+ivyJuGwPW1suzKmIGctSgAIUoAAFyhLgHMqyhG7w/F2L56Jl/1F6QU1udjbSEmKNC2RML12CR9OUpRbjbJj7Jvo//BKmfr9VZ53YvBJnD2zX2yHdBuDWp96Gijr174tqsc3BlT/pbZ/6TTBo+psYNvMD/Ts1PgarP5ilt8vzJ+9KnYbv8hxjKBOTYAt7tSYnsHYOIi5zcY7Bhd8UoAAFKECB6xGwCQ4OLtJdExgYiIiIiOupt8LH8pwVJqvUA+wcHHWPocxpPLLuF/zxycvlql8eCVSnSVvEnA2FPG7INLl4esMnuLFeGS6PFTJNsnK8dkgrxEee0UGsaV5VbvvVysGObyIhK763HnDGhH/UrsrTsW4KUIACFKCAVQiwh9IqbnPJFymvNRz//mJEHt0Hv4bN9NDz7v/OK/mAQjnSqxl5bF+hvfk/0xLjEHG4+IUz8uzJko4rtrJK2hkdb4dmdwQhqE52JdXIaihAAQpQgAIUYEBp5f8GEi9F6DmOvvWb4vjG3/DXz5+pZ1bG3dAquapP/mwU/+nf0DeZF0cBClCAAtUqwP+qViu3+Z1MhqnlweRMFKAABShAAQpQ4FoFuMr7WuV4HAUoQAEKUIACFKCAFmBAeYP/Q5DFTkwUoAAFKEABClCgKgUYUFalLuumAAUoQAEKUIACViDAgNIKbjIvkQIUoAAFKEABClSlAAPKqtS14rpb9B2JFv1v0wKNuvZD+xGTLFJDXkXZffw0ePjVhYOTi96WRy1VR7KxsYG3n1eJp5I8KVNccvd0g6OTQ3FZcHJ2hJuHa7F53EkBClCAAhS4FgGu8r4WNR5TpkD/R1+Bja0tjv25HL3vnwlf9YzLAysWlHlcTRa4672FCN26GnuXfm1sRlDrrug9ZZZ6N3kUoo4f0NvyesqNX75lLHMtGyPuHoRbbutV4ND5HyzC/u2H9b7BY/th8Lh+OmDMzsrGZ699i9Mnzum8xq0a4pF/3AN7B3v1IqI8rPhhLdb/L/9tRRIoznxvGjy9PXTZYwdOYu6b3xvP89grk9GkdSP9Oz4mAe8++zlSU9KM+dygAAUoQAEKXIsAeyivRY3H3JACAU3bqrf3tKyWa5OexRz1DvP3X5hr/BzZe0KfW3oXh9zZH3/vPo4PXvxC73vguQnGdk15bjxSklLxxuMfIvZyPCQ4dXVz0fn3PDkWbp6ueOeZz1Rw+jdatG+Crn076Lybb+2qg8mF/1mOn+YsQy1fL0x8/HZjvdygAAUoQAEKXKsAeyivVY7HXbNASLf+GPHip3B0dVc9bLmIjziNn5+9Cymxl3D3x8sgD1l3dHHD5VPH9HZ6cgJ+mH4bEqLOoWHnPhj5j8/g5O6pXxW59bv3sXPh57otEz/8RZU5j9/enq5/T567Guf/3qVeI/kS+k59Ec3VMHxOZjq8AxvpVz4ufeVBxJwJxaiXP0fjHgMhr59sc+tYtBowGhnJiZhzV+dyXeOMGTPQqVMnrFixAgsXLizXMbqQesB65NlLkB5I09RnWA/988fPlqJ2gI/uiXT3sodP7Vqwd7TXwePiH9chIS4JHl5uuhez15BuWPPfjWjcsgFO/n0akecuwbeOj65HAsldG/ej5y2dkZqchh3r92LoXQN0XtM2Iaan5jYFKEABClDgmgTYQ3lNbDyoLIFdS+Zi1+K5uti+5d9i95IvjYc4OLvixOaVWKiCyDUfPA/PgGCMfjW/J87N2x8ZKYk4rvKlt3Drd7Ph5OaBDiPvUYGTLUa/9pUOQuVh7HHnw9Hngef1+8KlcnffALj71TGex83HX+3L/+1ayxee/vWQGh+DPz59WW0Hoftd03TZjV/9C/998V7I6yDP7tuqtyXYlBQVegiHVi3Uw90S8Mr2yW1rdJ7hj7e3NxwcHFCrVi3DrnJ929nb4d0fXsb7C1/FU29O1YGjHFi7ri9ysnOQnpqOB2ZOwKUL0bq+OkG1Ua9+/vWEHz2NidNGIyszG7k5ufoYKSTD4OdPR6JDz9YIalQXiSro9Kzlro/3UN8yzC09oANH98blyBg4qACViQIUoAAFKHC9Agwor1eQxxcrIAGkIaA8tHoRNn/9b2O545t+w2oVSDp71srvgUyMh1dAfWN+5LH9OLp+uf79189zVM/lZR0s1mvdWfXQOWHr/Nk4uPJHLJo5UZdpPzz/21hBKRuLn78b+3/9HpfCDiOwdRddMiHyLM4e2I68nGwkXo7U24b3jMdfOI3V789E7LkwFegm6e3C7yffvHkzdu3ahT179pRy5oJZYUdO67mP8979CUf3haJB0yD0HtJdF5J5kDIcPuiOPnrxzHcfLtb7vdS8SM9a+XMjZbi6w01t8O37i5Cbm6vLGRbhZGVkYfyjo7Fl1U7di+moFuFIcnB0QKbKe3DWRFyOisG+bX/r3s2SFvbog/iHAhSgAAUoUA4Bdk+UA4lFKldAVn+PeP4jNdSbieToSDX07Ybc7KvDvjlqf7YamlZdkfrEuTlZsHdyho8aqpZ0avcm/Z2aEKN68rLgWSdY/y7rT2Zaiu6FlHLSU+npXzkPfV+7di3kU5Ek8yUNcyb/3nUMr385EzcN6oI/f92q50dK8CeLcn75+ndIT6YkGeKWFdqSJj99J44fDMPJw6fU4icbfYwEi5L6j7xJD6P/8s1KPP/B48hMz9T7szKzUK9BHR1YvvnER+g7vKde1CMLe5goQAEKUIAC1yPAHsrr0eOx1yTQ/+GX9HzID0c0w1eT+yI1IbZAPSUFOImXL+hy9Vp21N8Oap6lnb2DnnspO3KyMuDkmt+DJ79lnmVFkoRVdnYV//9Y7dq1w+jRoxESElKR0xUoK8Gek0t+sChD0dJrGB0Vi21rdyFEzYuUFKXmRV44e1Fvy9D2t7MXqjmU7qrNdsZhcZmP6eTipHsupWAtH08kxifrY5LUt6OTo+65jLkUp4NLOa9p6tmzJ0aMGAEfn/z5l6Z53KYABShAAQqUJMCAsiQZ7q8ygbTEONipoWtZlNNx1L3wKmdP4YXDe/T8yR53T4dXnSAMeeZd3cYTaghd0oWje+HboCm8g0LQa/KzsK1gcCiLgxp06qXrtrHN7xXUFZfxZ+zYsRg/fjwGDRpURsmr2bIoRh7/I8Pbsu2tFtz8tX6fLrD597/0d1x0ApxdnTFg5M26B1J+X4qI1o/5kUf9yGOZ7nrkNt3LuHX1Ln1M+LGz+ndyQjJ6Duyig8tta3frPFmMIynq/GUEqPmYjZrXR6hawGOaJk+ejEmTJqFt27amu7lNAQpQgAIUKFWg4t0xpVbHTAqULbDl2/f0Su3py9QzF9Vwa3LMRchCnQLJZBhWeizz1DzBrIw0bJj7JqSHc+r3+c9dlMU9Mv9R0v5fF6BZ72F44Os/9dC2LLJRJ9B5JfV66swrf3b89AkGTX9L1y1D6R8Ma2KaXeK2oW7Dd4kFTTI63dwWt47pa9wjj/9Z+8tG/TtJBYPrlm3GLWrhzL++fUHPp/z89e+MZb//cAmmqrmgkidp1aI/jc+SXPDxfzHr/cfU53GdJ3M1d27ID1S3rtmFLn3aY9zUETovOSFFPT5oqd42/HF0zO8ljY6ONuziNwUoQAEKUKBMAZvg4OD8/+KaFA0MDERERITJnqrf5DmrxrgmXMt7Jf5NWuNy+DEVLOaU9xBdztbeHnWatEXM2VBkpuYP55pWIKvDL4cfNd1lltt+6pFAsrhGhrKTE1OKtFGGtesG++NceP5Qv2kBGRKXVdzyeKDCjx2Scv6BfkhJTNU9m6bHybYMkzu7OulV3qZ5np6e+OKLLxATE4PHHnvMNIvbFKAABShAgVIF2ENZKg8zq1Lg0sn8t8JU9ByygMewCru4Yy0hmJR2yxxJ+ZSUJFAsLpiU8tIbWlKe5MvQeElJekDlUzh1756/yvyrr74qnMXfFKAABShAgVIFGFCWysNMCliPwLWsVrceHV4pBShAAQqUJsBFOaXpMI8CFKAABShAAQpQoEwBBpRlErEABShAAQpQgAIUoEBpAgwoS9NhHgUoQAEKUIACFKBAmQIMKMskYgEKUIACFKAABShAgdIEGFCWpsM8ClCAAhSgAAUoQIEyBRhQlknEAtci0KLvSMg7uyU16toP7UdMupZqLPqYqjLoq95w09DPS9t0D6mH5gG+Ve5UE+es8oviCShAAQpQoNIEGFBWGiUrMhXo/+grGKA+knrfPxMDpr2qt63pT1UZPDagEwa3CdGUsj2+e0u9fXunZlj06Gg4qweiG1LvZsF636P9O+rvJ24lqcKoAABAAElEQVTpbMjCXd1aYqF6daOk6eo1jXKsfOY/OALT+neCvXq1oyGVdE5DPr8pQAEKUMC6Ba7+F8O6HXj1FLB4gS2h5/U1dG4QYLyWbuptOqmZWcjIzn8bUa+mQXBzctD5drY2kDfuSJK/aepB6jMX/4lFO49CAtGZQ/MfdK4L8A8FKEABClCgFIGrXRmlFGIWBSpbIKhNN4x8aQ7cvP101Wf2bcHi5ychsHUXjH17AT6/q4t+rWLTXkMwbOYH+GhUfi+cFJ6+/AiOrluKFv1GwcndE3ERpzDv/n66nns+W4Hk6CjUDmkFT/966rWEmfji7p5ITYjB4KffQauBd8DO3gEpsZewaNZExJwJRWCbrhj39g84u28rGnXrh4yUJKz79GUcXb9c1+mq2jjuXwvg16i5CsBs9bFf3HMzOoy8F73uexpz7uys3zMuhceptrt4+uC7acP0saX98fDwwJw5c5CRkYEHH3ywtKLlyruclIqk9Ex0C6mLrSfzg8s2gbVxQL2eUZK8XSc1MxvjVc/kvM0Hi9SZm5uH09EJ+uOqgs5xXVrAw9lR11mkMHdQgAIUoAAFTATYQ2mCwc3KE9i1ZC52LZ6rK9y3/FvsXvKlsXIHFzeMe+dH2Dk4YP3nr+HXNx9Dbk5+D5qjqzscnFxga2unyzu7ecLB2dV4rGw4qt/th9+NqBMH8fu7zyDy6D5jvpt3bTTuOUgHeGs/eQmhW1YBqieu+4TH0XbIXSpIXIaV78yArQoqh8/6SB/nqNpj7+iEgGbtsOaD55GTmamG6WcZ65wwezF86zfFvuXzsWjmBMRdOK2PP7LuF922zmPyg0Gpo0HHXjh3cLs+tjQDKWCrhpQdlIGbm5vxXOXZWLz7GLacOKeLLlS9iSsPhhkPk+Cxdb38IN3b1Vn3Rm6+UlYKLdlzDANbNYKjfb6v8cBCGwfPXdZ7gn089Xdp5yx0KH9SgAIUoIAVCrCH0gpvenVcsmkAeWj1ogKnlMBOegmXvf0kTu3aoPOOb/qtQJmyfkSfPq56NO/WxQ6vXVKgeE52Fr558Ba978CKBfq748h7kJ2ZgbSEWNRu1AJyfHDb7pDg1pA2fPEGjqieT4/a9dBz0nS928nNA95BIZBzrJ/zqt53dv82/Z2VlqLraT98Inb8+Ak6j5mq9+/48VP9XZqBFEhPT8euXbuQmpqqy5f3z+Jdx4xFfzMJJmWnBI8yrO3p4oQejevpXsl9Zy+iXbC/PmbVoXBM7N4KMt+ytJSYlqGzfd1c9Hdp5yytHuZRgAIUoIB1CDCgtI77bFZX6Vu/iYy/GoPJa2ncye1rSzws5vSJInlOHl56vmAT1XtpSDJU7urlY/iJU7s36u2kSxF6aFt+1G6UP9QeunW1sZzpxs5F/8GwWR/CKyAY7YdN1AFmWmKcaZESt2Woe/bs2SXmX0vGwfOXdBApcye7NKyL0zGJyFFD2YYk2ysOhGFE+yZYc/iUYXeRby9XJ73vcnLFgt0iFXEHBShAAQpYhQCHvK3iNpvXRSZePK9WgdigbvMORRqWmZqs98m8RUn+Tdro78J/UuNjCu8y/k5PTjBuGzayUlOQnhSPeVP6F/gkROUPHUu5vCvD7oZj5Ds2Ilz/rN/hZtPdxm3p0cxR8zQHPvEGPOsEYueVYX5jgVI27OzsMHr0aAwdOrSUUhXLkoAx7HI8uqqAslmAD3aERRSpYOneE3oFd68mQUXyDDs61q+jN8/HJhl28ZsCFKAABShQogADyhJpmFFVAkf+WKp7KIc8Nxt+DZtDhpV7TX5Wn+7Ckb06r4ea8+jboKl6luWoSmlG2M71cPPxR5exU9X8R3v4BDdGv4deKrPu1LhoSI9jm8Hj0OSmwbBRczt7T5mp51waDpbeUnnWpgy1H/njF8PuMr/d3d0xfvx43HvvvWWWrUiB7SqI7KCGuJ3UPEnT+ZOGOtLVau4Nx87A283ZsEt/26q5pk38vfVw+KgOTbHnTBSSMzILlOEPClCAAhSgQHECDCiLU+G+KhVIio7EujmvwDuwISZ/sQZPLP1brdgeqc+Zl5eLsL/W6dXY93/5B7Iz0opti5QrManh9MJp7UcvIPL4fh1EPr0yDFPmrYesIJckq5/zv4uv85eX7tdB7uhXv8Azq8LRdezDxiFxOW7r/Pxh69O7NsjPcifDect9QDkLbjlxXg/vyzzI6OR8v8IkP6nFPKbnFwEX9fzKt8b0xWg1v3Lj8bN4b9XOcp6RxShAAQpQwNoFbIKDg4v81zcwMBAREUWHyqoSi+esGt2acK3Ilfg3bqUXy8Seu7pSWY539wvQQ8myiKYykyzC8Q9pqVdqS+9jRZJXnSC4qDmXF08eRl5u/qp0Ob71oLEYqnpb5z8yBJfDj1akSpalAAUoQAEK3BACXJRzQ9xGy72IS2FHim28PEuyKpKszI44vPuaqk5Qcz/lY5omfrgUAc3b6edZMpg0leE2BShAAQpYkwCHvK3pbvNaK10gLSkO+3/9Hgsezx+yr/QTsEIKUIACFKCABQiwh9ICbhKbaL4CS1+eYr6NY8soQAEKUIAC1STAHspqguZpKEABClCAAhSgwI0qwIDyRr2zV66ruhdX3eCcvDwKUIACFKAABYoRYEBZDAp3UYACFKAABShAAQqUX4ABZfmtLLaknbrLjg5Fng5lsdfDhlOAAhSgAAUoYF4CDCjN635USWsmDE7GyaXnEb7sPO4YkFIl52ClFKAABShAAQpYrwADSiu49wt+d0fLsUFISrPBI3fw3cxWcMt5iRSgAAUoQIFqFWBAWa3cNXeylHQbnIqwh4crh75r7i7wzBSgAAUoQIEbU4AB5Y15X4u9qtxcG9jZMaAsFoc7KUABClCAAhS4ZgEGlNdMZ3kH7jnmCH+fHATVyba8xrPFFKAABShAAQqYrQADSrO9NZXfsM+XeOJMpD22zYvEnu8vVP4JWCMFKEABClCAAlYpwFcvWtFtv7VHGhrVy8avm10xf4W7FV05L5UCFKAABShAgaoUYEBZlbpmVvfofilITLHFY//2NbOWsTkUoAAFKEABCliyAIe8LfnuVbDtzo55SFIBJRMFKEABClCAAhSoTAFGF5WpacZ12doA9QNyEJvIW27Gt4lNowAFKEABClikAKMLi7xtFWv0uIEpOPW/c/D1ysEXSz0qdjBLU4ACFKAABShAgTIEOIeyDKAbIXvVdhccCQ9AuHqweVqG6qpkogAFKEABClCAApUowICyEjHNtSqZN3k4nJ3R5np/2C4KUIACFKCApQswyrD0O8j2U4ACFKAABShAgRoWYEBZwzeAp6cABShAAQpQgAKWLsCAsprvYERERDWfkaejAAUoQAEKUIACVSvAgLJqfVk7BShAAQpQgAIUuOEFGFBW9y22UeS2XAtV3ew8HwUoQAEKUIACVSfAgLLqbIutObdhL2TODEfmjMPIC+5ebBnupAAFKEABClCAApYkwICymu+W7alNcHy3CWwSziGn833VfHaejgIUoAAFKEABClS+AAPKyjctu8acTNhEHgScvcsuyxIUoAAFKEABClDAzAUYUNbUDcrLQZ6dQ02dneelAAUoQAEKUIAClSbAgLLSKCtWke2F/cir2x5w8anYgSxNAQpQgAIUoAAFzEyAAWUN3RDbYytge2YrMp/cj6x7l9dQK3haClCAAhSgAAUocP0CfH7N9RteUw25qncyt/EA2G16F7bHV15THTyIAhSgAAUoQAEKmIMAA8oaugt5zQbDJiYMdts+qaEW8LQUoAAFKEABClCgcgQ45F05jhWuJc/eBTZJURU+jgdQgAIUoAAFKEABcxNgQFkjd8QGef4tgWQGlDXCz5NSgAIUoAAFKFCpAgwoK5Wz7Mpy6/dUb8oJQ16d1rDb/0PZB7AEBShAAQpQgAIUMHMBzqGs5htkG7kfDv/pDZuUS0BOVjWfnaejAAUoQAEKUIAClS/AgLLyTUuvMSsNNlkRpZdhLgUoQAEKUIACFLAgAQ55W9DNYlMpQAEKUIACFKCAOQowoDTHu8I2UYACFKAABShAAQsSsOqAMiKCQ88W9G+VTaUABShAAQpQwEwFrDqgNNN7wmZRgAIUoAAFKEABixKw6oDSxsYGdjZ2FnXD2FgKUIACFKAABShgbgJWHVB28u2A3wYvw38H/oy2Pm3M7d6wPRSgAAUoQAEKUMAiBKw6oNwTvQ8j19yBi2mXMLL+cIu4YWwkBShAAQpQgAIUMDcBqw4o5WZk5WYhNOEkPB08zO3esD0UoAAFKEABClDAIgSsPqCUu5STlwN7Wz7j3SL+xbKRFKAABShAAQqYnQADSnVLjiecQDOvpvB09DS7G8QGUYACFKAABShAAXMXYECp7tCmyM3YH3MAiwb8gA97vGfu94ztowAFKEABClCAAmYlwHFedTua12qGbrW7Yn7o99gStc2sbhAbQwEKUIACFKAABcxdgAGlukM9/XvgXMp5/BS2yNzvF9tHAQpQgAIUoAAFzE6AQ97qljjbOSMmPcbsbg4bRAEKUIACFKAABSxBwOoDShvYoJFHQ0QzoLSEf69sIwUoQAEKUIACZihg1QFlO5+2WDF4KRp7huD386vM8PawSRSgAAUoQAEKUMD8Bax6DqU8Luj+jVMRmxmH7Nxs879bbCEFKEABClCAAhQwQwGrDigzcjJwKeeyGd4WNokCFKAABShAAQpYjoBVD3lbzm1iSylAAQpQgAIUoID5CjCgNN97w5ZRgAIUoAAFKEABixAwm4AyIiLCIsDYSApQgAIUoAAFKECBggJmE1AWbBZ/UYACFKAABShAAQpYioBZBZQuTnmW4sZ2UoACFKAABShAAQpcETCbgNLdNRfHlpzHmV/P4b2nYnmDKEABClCAAhSgAAUsRMBsAsrkVFs0GhWMbQedcXu/VAvhYzMpQAEKUIACFKAABcwmoJRbkatGvLcddIK9HYe++U+TAhSgAAUoQAEKWIqAWQWUgpadYyl0bCcFKEABClCAAhSggAiYXUC5YbcLbGyAuwal8A5RgAIUoAAFKEABCliAgNkFlEdPO+DbFe54Z3oswpadR+OgLAtgZBMpQAEKUIACFKCA9QqY3bu8ZbX3fcOTceKsAz740QvnLppdE633XwuvnAIUoAAFKEABChQjYHbRmqzw1kPeL/gjNrFgB2qzZs0gn9DQUBw/fryYy+EuClCAAhSgAAUoQIHqFigYsVX32Ys5Xy2PXOSpRd6Fg0kpOmrUKEyaNEl/F3Mod1GAAhSgAAUoQAEK1ICA2QWUHZplqpXealVOMcnd3V3vjY+PLyaXuyhAAQpQgAIUoAAFakLAbIa83ZzzcGjhefUMSmDdTpdiLRo0aKB6L/Pwww8/FJvPnRSgAAUoQAEKUIAC1S9gNgFlSroN7niuDs5E2iMuqWjHqaurK5ydnbFx40akpvJNOtX/T4VnpAAFKEABClCAAsUL2AQHBxd5LU1gYCAiIiKKP4J7KUABClCAAhSgAAUoYCJQtCvQJJObFKAABShAAQpQgAIUKEuAAWVZQsynAAUoQAEKUIACFChVgAFlqTzMpAAFKEABClCAAhQoS4ABZVlCzKcABShAAQpQgAIUKFWAAWWpPDdmpq16zKeTY5G1WDfmxfKqKEABClCAAhSocgGzCSjd/QLQffw0ePjVhYOTi972a9i8ygHM6QRVbSCB5P4fI3D613NY+NYlc7p0toUCFKAABShAAQsWMJuAMqh1V/SeMgvBHXrCw7+e3m49aEyl0Dq6uuOh77ehdkjLSqmvqiqpSgNp8x0DUuDjmYuh0wMw+tk6VXUZrJcCFKAABShAASsTMJuAsird7Rwc4VknEK61fKvyNGZfd+OgbPVaS+BwuIPZt5UNpAAFKEABClDAcgTM5k05ZZHZ2NphxAsfo8nNg2Fn74CstBQs/b8HcPbAdtWbORNdxkyFBI652dk4vWeTzsvLy8XU77bA3Te/N27MG/PVqxtzcf7QX1j8/CR9ysFPv4NWA+/QdabEXsKiWRMRcyZU5w155l20vnUs8nJzcTn8qApKg/DZ2A46r2HnPhj5j8/g5O6JnKxMbP3ufexc+LnxMu75bAWSo6NUr2greKoe12xV5ou7e+K+uatwcvtarP3oRV3WJ7gx7v38dyx/7SHjsaVtzJgxA506dcKKFSuwcOHC0ooWyXNy4LzJIijcQQEKUIACFKDAdQuYTQ9lVOghHFq1EFHHD0ACO9k+uW2N8QIHPv5PNO87Aqd3b8SimRNwbMOvcPXx1/k2Nrb46+fP8ONTt+OvhXMQ0n0Aetz9hM779Y1p+O3t6Xp7y/z38N8X78W6z17Rv7tPeBxth9yFo+uXYeU7M2CrAtXhsz7SeV4qeGwz+E6c3bcNm7/+tx4ud/GopfPkfKNf+0oHp2s+fAFx58PR54HnIcGhIbl510bjnoOQlZGGtZ+8hNAtqwA1ifFS2BEdwBrK3XTPU7CxtVXXtQllGcgx3t7ecHBwQK1a+W0x1FPWt6MKJgd0TUN8knpZOhMFKEABClCAAhSoRAGz6aGMv3Aaq9+fabw0023Z2XLAaCRejNA9j/L77P5t8qXTpnlvQ+ZJtlY9jbKgR3opA5q103lRJw4i4eJ5vX1RBa3So2lIHUfeg+zMDKQlxKJ2oxaIPn0cwW27w8HFDW2HjtcB4+Ln79bFG3Xtj/rte+rteq07w97RCRu/eAMHV/6Ik1tXY9rivWg/fCL+/M/rhuqRk52Fbx68Rf8+sGKB/t7y7XuQ3svGPQYibMcf+lt6VKXntCwDqWDz5s1ISEjAnj17dH3l+fPxszG4rW8qcnJscP8//cpzCMtQgAIUoAAFKECBcguYTUBZVosdXFxVALau2GJDn5utgskxyEhJQmp8NGzsbHVgWWxhk51OHl6wsbFBE9WTaEhxEafg6uWD4HY9kJ6UYNiNSycPGwNKn8BGev8p1asoKTUhRgePnnWC9W/Dn5jTJwybxm8JalPjotUq9seQm5MNB2dXbJ0/25hf1sbatWq4XH0qkj78yQuh5xzw1IREPDUxARv3OlfkcJalAAUoQAEKUIACpQpYTECZnZEO/yati1yMrb29DiYPrV6kezhlruXTv5+EihSvls3Lnzsocy9NU1Zqiu4ZnDelv+luvR1xeDekJ9KQ/BpdfYRR4uULene9lh11r6L0aErdMlRvmtKTrwakpvsPrV6Ibnc9ip53P6kC4BgdrJrml7bdrl07hISE4ODBgwgPDy+tqDEvPMIenyz0RNPgLAy7Oc24nxsUoAAFKEABClCgMgTMZg5lWRdz/tBO+Ko5ihKISdDYou9INOjUC3k5uWooNxsunt562HvYzPdVLFnwstIS4/TCmY63TYaTm4cxP2zneripeZhdxk5V8yft9RzIfg+9pJty8PefdbkR//gULfrfhuArw92SeeHwHh2I9rh7OmSupSzekXRi02/6u6w/O376DDbqf/VadcLhtUvKKl4gf+zYsRg/fjwGDbraq1qgQCk/Ii7bw9aWC3NKIWIWBShAAQpQgALXIFAw8rqGCqrrkBVvPY7YK4tfnlkVjhEvfgJndy8d2B349Xu1AGYgpi87jKa9huoV4CqjQNMOrfoZDbv0wRNL/8Z9//ld56396AVEHt8PCSKfXhmGKfPWq+OH6DyZzxiq5ka26DMCI57/SPU+XkZurnrmjkqy0GbD3DchQ99Tv9+K5n2G48TmlQXmZ+qChdqg98nxaoW6LM6RNu748RPD7nJ9512p0/BdroOuFIpJsIW9WpMTWDv/OipyLMtSgAIUoAAFKECBkgRsgoODC0ZeqmRgYCAiIiJKOqZG90sQ6dugKS6px/hIYGZI8sggWWUtj/epaJIha3/10PM4FUTK/EbTJL2hEviNe+dH/fihr02Gx6VXs06Ttog5G4rM1GTTw8rcnrZoL5JjLuK7R4eWWbayCvjVysGObyIhK763HnDGhH/UrqyqWQ8FKEABClCAAlYsYHEBZXXeq0d/3o3Yc2H6WZMScG786l/YtXjudTWh46h79bC9R+16+vFHpqvVr6vich4sr18MqpOtS5+NspgptOW8OhajAAUoQAEKUKAmBBhRlKK+73/zUb/jzWqoPUw/y9LwwPNSDikzKys9DZHHDugHm1d3MCmNy1X90Qwky7xNLEABClCAAhSgQAUE2ENZASwWpQAFKEABClCAAhQoKmAxi3KKNp17KEABClCAAhSgAAXMQcBsAkpZCMREAQpQgAIUoAAFKGB5AmYTUFoeHVtMAQpQgAIUoAAFKCACDCj574ACFKAABShAAQpQ4LoErDqglDfVdB33sAaUZ1t2Hz8N8kzKwqndsIn6rTaF9xt+y/Mo+059Ub91R/bJW3zk7TqSGnXth/YjJunt6/3Tt3l9NPTz0tV0D6mH5gG+Rar0cXOGi2PRxft26nlBdb3cYWdb8VuunjQELxenIueqrB0t6/miS8OAyqqu2Ho8VftHdmgC+zKu38/dBb7qU5NJ2jqgZQNt7mBnp7freBb9d1mTbeS5KUABClCAAqYCRSMP09wbfLvLmIfQrPdQ/WzJVrfcrgLKxxC2Yx2iTx8vcOX9Hn4JJ9Vbcy4c2Vtgv+GHo7ObDkzP7Nuq3+fd/9FX1OshbXHsz+Xoff9M+DZshgMrFhiKX/P3YwM6Yd3RM5i7YR9kO+xyPF5bvkXXV9vDFf8a0xcSjEg6HBGNN1ZsRY56TtDEHq1wW4em6lWSNuoZ7Xk4Fhmr8rYhKyf/jTkLH7lN5+kDr/z5ZstB/H4oHLe2boQHerfT+WlZ2Xh56SacjUmEBDo/PDTS9BC9nZiWgWx1zuNRMfhgza4C+d9MGY4d4Rd0+00zhrVtjAAV7O4+HWW6u1K369Vyxz0922Dj8XOQNhZOrev54fnhPeEkrxJSac+ZKPx2IAz/N+pmxCSn4dHvV+v9jWvXwr/G9sNbv22Hi4M9ZtzaVe8Xy3B1P+SaY1PS9b5Fj47GDzsOY/m+UP37LXV/xO25Rev175L+NFL/p+GRfh3x9sodOBebqLe/3/43ft2v3lHPRAEKUIACFDBDAasOKMt7P35+eixSCr1Bp7zHVle5x2/prF6raIup3/6O+r6eeHnkzRjcJgQrD4YhKzsXn6sgdGd4JKQ3cNbQHhjWLsQY6EigKcHjmsOnjM2NVUGUm5MDHuzTHn8cOa3yw/DGHX31sY8tWKOD0Rk/rzOW91cB7QsqINulgkIJ3vyL6VFzVT2nEiCZW5Jey3+MvAmhUXF4f81O3bxgH08VROe3VHospQdVAl5beTK8SvLXkP/y0s2QnuEpKvB+f/wtmPL1SvW8zyIvoDIepzf4hwIUoAAFKHADCTCgLOVmDpj2GtoOuVOX2LvsW2z++t/G0q0HjcWgJ9+CvXrl4+VTx4z7y7Ph4eGBOXPmICMjAw8++GB5DimzTIsAHxU8hiNB9b4dOn8ZkQnJ6KeGyCWgXLz7avv2qKDoclIqbmoSZAwopfL41HRExCUVOM+wdo317++2/Q1fNxfdIye9ct6uzogrVP6pQV2RkpGFrzYd0IFVlwb5Q9jPDemOk5fisEoFrBK4nolO0L10LwzvAekVTM/O0T2G6Vn5vaVSj/QS/vv3HfrctuqYufcN0T19G46dhfy+7+a2ehhYyiWlZ+It1dsqvbUS0EogJ72IMkS/81Sk7jEsHNxJMPicCqqDvD0wa8mf6Nk4EHaq3rdXbkem6mmUXt2EiMtoG5T/akrpcbznpjYl9qBeiE/SPbJi/s64/ujVNAibTpwrYMkfFKAABShAgRtZwKoDysNrlyAtMVbf37Adf8C1lh+So68Ou+5ZOg+nd2/AqP+bCw+//ADJ8I9h4BOv6/d+7/jpU/R58HnDbv29a8lcFTzlz1Xct/xb1ApsVCDfVvWIOTg4wF7NvaxIksDwiBrKlrRw51FcUoGhJOlJlGDtXNzV3r+LCSlopAKrwkkCLZkn+JcaejZNw1XwKPMyJWXn5uKlXzapYWg3ZKiAL10NdT87tBtCL8ahaR1v3fsoAaUhDWzVEA1Ur+gryzerYCxXDYknqGA2WAd1XRvVRTMV7B48d0kXP6UCyr4qT4LJH3YcUUP0jhilhuPPqGF0SYdVICe9ohIsyrnleGnzvjMXdf6YLs0xtG0I1quh/7WqR1XyPa4M80vQK72zi3Yd08Ht/b3aqvb66GBPH6z+SDD5shrGlv0zF/+JtMxsSG+kDOf/WwWDcs0ypC9DzIZAVNwf7tsBLer66usz1FX4+7S6NplSIO6lBZSujg74Zsqwwofr3x+u3Y0TF2OxdO8J3ZsrAbNsG/yKPYg7KUABClCAAjUsULGIpoYbW9mnlyBSPpJkfmThOZIJkWchn9yc/HdfG85fq15DODi7YtmrU3Fm7xa93f+Rlw3Z2L3kS+P2odWLjNuGjfT0dOzatQupqfkBoWF/Wd+LVaBkSL+pnkdDMsyblODIkCQYc7wyH9CwT4KpF0fcpIOnn/46atitvxNV4HIuNr+HUgJKSZ7OTsjOyYUEjBKsvbNyAz6aOFAHgbqA+uPu5Kh7JLeEnsfRCzF6twRWMlewXbC/7n30dHZEsAr0pOcvNTNLB64SQP5vf/7cQulJNaSNqmdPAsrezYL1ULvM4Tyvek6l51WS/JaA7z9qCF+S9EyapouJKVhypUd2fPeW6NSgToGAUqYCBKqeyRk//4EoFXRLquXqBAnyTl1OwBcb9+Ne1Rs5fWAXfLg2fw6o9EBKkDdZ9YzO23zA9HRFtjOVlwx/l5YkQJc5rMUlaUNyRiZ++uuIMdt027iTGxSgAAUoQAEzErDqgPJa70PTmwfrQ8/u366/zx0oPjgoqX4Z6p49e3ZJ2RXen5CaH2yZru6WHr7Ci0+eUgtI6qveuJmL1xsX5BhOtlkFctITZpoS0zPgrIa4pafv03V71RxNCUmh6s00FpNFKVkqiPr8z/wATzIMvY0SKP6telTbq8DyZjXELsPqkkJUD97eKz2O8jsiLhmuqpdVUqYKhI9Fxeog9k81xN1K9WQuUL2FhiQBrASvJSXDuSU/WQXJEsyapnrestLdRi8CMgSU0gso6ZN1u/WCGhnil8U4EkQb0vyth/CmmkMqvZmlJUc1j1UW8UiS3srCSXo9Zb9h4U7hfMNCqcL7+ZsCFKAABShgzgIMKK/h7pzdnx9A1mnSGlEnDqJO07YVqsVO9d6NHDlSz6H8/fffK3RscYWl10+CFAkWDamuWhhjCJhkn/S69VBD2q/9b6uxJ9JQtqRvOV6Cr5NRCdgeFqGGqvN7EqPUXEFJndVCFZln+KbJinHZLz1wEhhJMPjlpv2q989elfNXgWJ+D6b0+MnQsiH5e7qqXrksw0+s+fsUnhzUBf1a1Nfnl+FtQ5K6m/h7G34W+S4uiDMt9MzC9XioTwc8M7gbHvlulR4av5SY31MsvbqSMrLze3od7K8+YkmG+yNUu+/q2tK0ugLbMh1Aph7Iam9J0tPrqO61IcniH+l9lOD5A7V4p7j0yR97sDm07PmXzZo1g3xCQ0Nx/Pjx4qriPgpQgAIUoEC1CVz9L2a1ndLyT3Qx9BBysrPQTw1zewUEo9udj1Tootzd3TF+/Hjce++9FTqutMLyKKD+6tmFsmCmQ/06kOcWGuZJjmjfBPJZsvu4HnKWZ1maBnQl1btJPWJHkgwjS0/lmM7N9YIeGX6W4fQn1bCwDG/Lb6lTPsE+HvqYeNVrKsHo/rMXcUjNi5RtwwrvXaei0Ni/ln6OpsyBLPzcxx3hEXp4XB5XJEPaMr/RkHafjkQzFbjJcxplgY70fpYWYBqOM3zLwqF3VuUv+Hlx+E16t/TOSpKg20P1aI7t0kKf0zQgl/zvtv4N72KGsxv4eulgW+qT+rde6UEVg17NgvRzQcUlSH1kWoGUmfTlr8V+tpQjmJS2jBo1CpMmTdLf8puJAhSgAAUoUJMC7KEsRf+Z1aeMi2taDbwD8rlwZA9+fOoO7F36jXr25EOY+t0WpCcnlFJL0ayyetGKHlH2nk/X78HbY/vpFdFSWlZ6y+N+JBnmKI7r2gLykSTDzw/NX6W3S2qP9KbN33YI993UFn3UnEbpdXxJPSJHksxDlCBTgkhZ2WxIMk9ywtzlepW5zO2UoV0JKuUZkIbh6D+PnVEBbmO8fntvfZgEWKZJ6jh4/hI6qsB4zd/hpllqDuNBSO+rPKdRPtJ2w3xEGWBWPwukQj91nsw1fW/VX/iHmk8qK9llJbzMU5zQvRX6t2igV45/q57DWbiufeo65HoMcyQN+TI8LjYnL8XjQ/UcSsM55Z68pM4x/4ER+ryyuv7nK3MjZWj/epL8nxJJ8fEF55BeT508lgIUoAAFKHCtAjbBwcGG//4Z6wgMDERERITxd3Vs1MQ5r/e6nNw84FknCJfDCy5wud56r+d4GT6WR+9IoPf8kg16Acv11CfHylCt9HjKkG9lJukljVMBmmGouSJ1y+OL5Foj1bD89QZnhvPKW4Rqe7gUmCpgyLvWb+lFlTcUpWVllThv8lrq/uabb+Ds7IwHHnigwou7ruV8PIYCFKAABShQmgB7KEvTKSMvIyXJrIJJaa7MB5S32UhvW2zy1Uf7lHEppWbLXMDKDiblhIWHlEttRKFMGQY39HgWyrrmn/LIo+tpU3EnlkU4lW3n6uqqg8mNGzcymCwOnfsoQAEKUKDaBdhDWe3kPCEFKEABClCAAhS4sQS4KOfGup+8GgpQgAIUoAAFKFDtAgwoq52cJ6QABShAAQpQgAI3lgADyhvrfvJqlIC8VvGryUP1wiSCUIACFKAABShQ9QIMKKvemGeoRgF5heLLI2/CrwdO6mdkVuOpeSoKUIACFKCA1QpwlbfV3vob88Llgek/7zyqny15Y14hr4oCFKAABShgfgJW3UNZr1Un9XDyh/Vd8W3QFN3HT4ODy9VXAlb37XL3C9Bt8PCrCwcnF73t17D5dTejvq+nemB3/msT5dmN8pYZedNNZSV5o81bY/pWVnXXVY+8MWho2xD9LM7iKpLnQg5u0wjyTnBDkgewi4mX+nZQr0qUbXnuJhMFKEABClCAAuUTsOqAssuYh9B36otaqtUtt6P3lFnwUg8qr6kU1LqrbkNwh57w8K+nt1sPGnPdzbm1dSM82r+Trqdrw7r6DTPyisY2gbWx6NHR+PyewcZzNK5dS++T1zeWJ93UJFAHYB//sbs8xau8zLT+HfWrIDs2qAN5rWPhJIH0A73b6zf9GPIaqYfAy1t3Gqt3hNdyddLb3UKKHmsoz28KUIACFKAABQoKcMi7oIdV/VKddTrJu7S7NAzA7tNRsFXv3JZ0JUtvl/ZHevJeXb6l0h8IXto5S8qT3sfE9AzM3bgfger1jM3r+hYpmqEeiD5r8Z84H5dcJI87KEABClCAAhS4NgEGlCW4BbbpinFv/4Cz+7aiUbd+kLfirPv0ZRxdv1wfcee7PyNIlbG1s0d2Zga2//Ax/vrpU7WvG8a+vUC9A1yFZOoTdz4cMpy+b/l8rJ/zqj528NPv6PeC29k7ICX2EhbNmoiYM6EltKTg7hkzZqBTp05YsWIFFi5cWDDzGn/J+6nvuamNDigNVcjilm8fGK6Crw24mJiiAjQPvDW2L974dZsaTu6Cp35ah+eGdEPbIH/c2bUlDl+4jHd+/wufTboVzy5cr3sJe6v3f0/p1Q5uTg76Xdfzt/6NNYdPGU5R7PcLw3siRPWSejo74khkDJrV8VbvHc/AS79sQpx6//jce4fgi037sUcFv5KkjW+v3IFjqqy7OqZ5gK96d/Zw5Kg31Gw+cU4HxoZ3i8q7u5uoXkhJr/1vCxftaAn+oQAFKEABCly/gFUPeR9euwQHfvtBK4bt+AOHVi1EcnR+oOKo5lLaOzohoFk7rPngeeRkZqL3/bOM4pkpifjjk5fw89PjEPH3LpX3HLyDQuDomn/c5m/e0WVdPL11ENp+xCT9u/uEx9F2yF1q3zKsfGcGbFVQOXzWRzovKvSQbkPU8QM60JT2nNy2xnhO2fD29oaDgwNq1apVYH9pP7aePI8lu4/pIociLmPp3hNITMswHrJY5cn7pluY9OjZqZ5KCSod7fP/iTg62EHen/3M4G7IzMnB3T1aoX2wP+TYRbuOop0KLBdMHannJsprESVwe+KWzvpd4q+pHswvNx3QAZ/xpCVs+Lq5ICk9E6tV4Nm6nh/mbT4IDxUo9mqWPxVBhqRN5z9KG6VdkqYP7IxgHw98pc615u9Tat5oAwxo1VDnyZ/vth3Ch2t36QDXyf7q/5c6H5ekTc7FJupzi8/Bc5eMx3GDAhSgAAUoQIHSBa7+V7X0cjdkrgSR8pF04che/Sl8oRu+eANH1i2FR+166DlpujF72asP6fmWLdXcy/jIM2iAXqjXshPSEmJ0md1LvkSXOx5E1ImDOnhsNWC03t9x5D26RzMtIRa1G7VA9OnjCG7bXS8Gir9wGqvfn2k8h+m2YefmzZuRkJCAPXv2GHaV+X30QgzkI+lsTKL6HClwzIX4JJy4GIvJN7dVAdyBAnmFf2w/GYE1R07hlVG9cCo6Ab/sOa6LdA+pp3sW31v9FzKzczCyQxPk5ObpnkB5nzUuFK6p5N+HVdD7V9gFDGkTgvVHz2BY28bwUYFmWamVCkDluLVHTuuivZoGoY/qJV135fe5WPXu9aS0ItXEJKfhp7+umphuFynMHRSgAAUoQAEKFBGw6oCyiEYxO07t3qj3Jl2KUCPYVzt0J89dDVmBnRIXjczUJF1Geid1QCkBlEo5OdnIzspAdka6Hv6WfU4eXno4vEnPQfJTp7iIU3D18lHDxCmGXSV+r127FvKp7DR/6yG8eUdf1cPnWWrVy/ad0MPZMoy970x+b64cEH45Xi90MQxF+6u5lZEJydDBZKk1Fs3MzslTvaC5yLvimJ2bW+aqdJnzaW9rqwLjOGOFEWqepLebs/E3NyhAAQpQgAIUqBoBBpRluOap4d3CqU7TtvBTvYuLn78bZ/ZuQcMufTH2re8KBJyFjzH8zkpNUYFSLuZN6W/YVaHvdu3aISQkBAcPHkR4eHiFji2tcKgKxCJUT+Vdaj6kpCwV0Elyu/J4nfqFAs20zCzU8/bQZeSPzLFMV0PdhhSn5mW2D65t+Fmh7zwYZj0WPUzmRkowK0mGtw1JjpAe0fom++p4uSE2pWiPpOEYflOAAhSgAAUoUDkCV7vcKqc+q6hFL7hRV+ruGwCvgGAMmPZqua87bOd6uPn4o8vYqWr+pD18ghuj30Mvlfv4sWPHYvz48Rg06GoPZ7kPLqPgd2rRjKFHT4JDmQspjxySRwyN6tC0wNFH1SKYpmrBjMxzlE/TAG+9MMZQaOPxs/qZjvepYXQXR3vI8y9vbpI/D9JQ5lq+L6heRxnGlmdHTujeukAVMheyR+NAyHM3e6pvH9U7uf/sxQJl+IMCFKAABShAgcoXYA9lCaaG4VbpTSycZF5k5PH9GPrcbJ2VEHVOf0tZw3FXdkDtQJ4asjWktR+9oIbKm+kg0hBIyvEyV7M8yVC/4bs8x5RU5sqIsjF7nwq+ZMW3BGKSVh0Kx+iOTSFzEWXupWn6Wi2WkRXVr9zWS++W42SfIf0VfgG/HwrD8HaN9Uf2y3D51pOGEmV9X+2llC3D9a44eBIP9+2o39V9Ws3hNE2frNuN12/vg/fuHKB3S/7Svfmr5yX4lSF9Q3r99t56Ux4xZJhjacjjNwUoQAEKUIACFROwCQ4Ovvpf7ivHBgYGIiIiomI1XWfpmjjndTYZrt5+sHdwROKlCqw4uXJSeSOPf0hLxKmFOKlqHqa5JllFbW9nW2BVuGlb/dQzLCVFq4UtxSU7Na8x0NsdscnpSM7ILK5IhffJXElZ7V3SOQPUUHdaZrae61nhynkABShAAQpQgAIVFmBAWWEyHkABClCAAhSgAAUoYCrAOZSmGtymAAUoQAEKUIACFKiwAAPKCpPxAApQgAIUoAAFKEABUwEGlKYa3KYABShAAQpQgAIUqLCA2QSU1b0IqMJSPIACFKAABShAAQpQoFgBswkoi20dd1KAAhSgAAUoQAEKmL2AWQWULk5FnmBk9oBsIAUoQAEKUIACFLB2AbMJKN1dc3FsyXmc+fUc3nsq1trvC6+fAhSgAAUoQAEKWIyA2QSUyam2aDQqGNsOOuP2fqkWA8iGUoACFKAABShAAWsXMJuAUm5Erhrx3nbQSb2ZhUPf1v4Pk9dPAQpQgAIUoIDlCJhVQCls2TmWg8eWUoACFKAABShAAQoAZhdQbtjtAhsb4K5BKbw/FKAABShAAQpQgAIWIGB2AeXR0w74doU73pkei7Bl59E4KMsCGNlEClCAAhSgAAUoYL0C9uZ26bLa+77hyThx1gEf/OiFcxfNronmRsb2UIACFKAABShAgRoVMLtoTVZ46yHvF/wRm1iwA7VZs2aQT2hoKI4fP16jcDw5BShAAQpQgAIUoEC+QMGIzQxUannkIk8t8i4cTErTRo0ahUmTJulvM2gqm0ABClCAAhSgAAUooATMLqDs0CxTrfRWq3KKSe7u7npvfHx8MbncRQEKUIACFKAABShQEwJmM+Tt5pyHQwvPq2dQAut2uhRr0aBBA9V7mYcffvih2HzupAAFKEABClCAAhSofgGzCShT0m1wx3N1cCbSHnFJRTtOXV1d4ezsjI0bNyI1lW/Sqf5/KjwjBShAAQpQgAIUKF7AJjg4uMhraQIDAxEREVH8EdxLAQpQgAIUoAAFKEABE4GiXYEmmdykAAUoQAEKUIACFKBAWQIMKMsSYj4FKEABClCAAhSgQKkCDChL5WEmBShAAQpQgAIUoEBZAgwoyxJiPgUoQAEKUIACFKBAqQIMKEvlsc5MF6ci67SsE4JXTQEKUIACFKBAuQTMJqB09wtA9/HT4OFXFw5OLnrbr2Hzcl1Em1vHoXGPgeUqW95C0p4+DzwPG1v1YMwqSFLvTfc8BVdvvwK1yzkHPvG6/hQ+d5exUxHYpqsu327YRIR061/g2Ov9sey9izi74hz2/cAV/tdryeMpQAEKUIAC1iRgNgFlUOuu6D1lFoI79ISHfz293XrQmAL3ov8jL2PEPz4tsE9+3HTPDEiwVZmpTpM26HbXo7B3cq7Mao11Obq46nYHNG1r3CcbAc3bo2HnPugw8l44OBd8wHu/h15Ct3EP6/K3PPaaNipw8HX8cHfNRacWmZj7iwdajA26jpp4KAUoQAEKUIAC1iZgNgFleeADmrVH3eYdylPU7Mtkpqbg56fH4dyBHQXaumjmBKz//LUC+6rjRx2fHH2aNTsKBrHVcW6egwIUoAAFKEAByxYwmzfllMbYbtgE3PLYP2Fn76CLzfgtVH/Pf2QIYs+F6W0PNUT9xC+H4OTmgfOHd2Hhs+ORl5uje/Ga9R6Keff30+UGz/g36jRrh+8eHYrpyw4DNjZwdHZF1ImDCFD75XvBE6N0WfkzYfZi+DduheysTKz58Hkc+eMXnSfnijpxAEFtu+s6Dvz6vTEQ7D1lJrqMmQo7B0fkZmfj/9k7D8Coiq4Nn/TeCJBO7x2k9yYC0ps0EUQsIH5iAT+s2LufqPiLotiQXgSVjvQSeg8QCCEhARKSkEIIKf+8s5nNZrM1JGEh58Dmlqn3uXf3vvfMzJ2oA9toxRsTxbSRuTLto9+soQphNeX60pnjKPZ4uFy/0z89evSg8ePHU2RkJL311ltWZeea32/S2DzqVmXGkZkAE2ACTIAJMIFyRcBmPJTxZ4/RsbWLKD7iCKVfvyrXz+1aL0/G2R1raZkQXonR5ygjOVGuYzsl/pL2ZPkGV6NTW1bSnj++ptBGral6y84yzNO/MnlUqKyNh3XP/G1nNw+6dHgXpVyJocq1GtKmb96QTc66fTe9A0Jo/Zcz6WZKIj343HvafCBcw5q0o+0/fUyXTxygFoMmCG2qwYnl3oXf0ILnB9PeRXOoRpvu1HbMVG3ajbNfo3WfTRdN2u7k4u6p3W9u5cia3+jYuiUy2v5l39PBlT8VSuLp6UlOTk5UoUKFQvst2Xjs4TQheImORWpEuyVpOA4TYAJMgAkwASbABEDAZjyUyZejaN3n07VnRXf95o0kij6ymzJTk2WfRqzrW0ZSAm386nW5u+WwJ6l2xz50ft8W/WhFtk9tXkW1OtyUA4EO/fmL9IT6BlcV3k2NN3HnL5/T0b8XUFpCHA15dz75BIRKAYqMzu/bTPuXfk8QvJN+2UFVmreniwd30LZ5H5KzEIoNew6R+cJLCe+nsriIw3Q9RuNZVfssWW6Y/ao22vYfP9auq5XTp09TeHi49FCqfeaWw3qk08fPXSfKs6NZ3/tSdraduSQczgSYABNgAkyACTCBQgRsRlAWqlUxNpJiL2hT3b6ZTm7eftptUytZmemUnXWLcnOyZbQ8yhOi1Y2QByxaeDBhFw/tlMtaHXrTgeU/yPVY0bQOU55SD79KcrvPy58JMTmUbqWnCo9qAtk52EthKQNL8U9ERAThY41tDnejGV9VoP+OT6GXx6XQj396WZOc4zIBJsAEmAATYAJMgGymyduScwGxp5qV9ePniv6Shux25k1t30uEw/tojQXkj8JWHsbowxphiTzy0EasZ/aOjlJMHlu3mL4a0ph+fKKnJoboq2mpZYs6w1zcrRN3QUFBNGjQIGrTRvTrtNCu37CnJRs96JWv/cjDNY9qht62MCVHYwJMgAkwASbABJiAhsA9JSgxeMWzYgAF1Wtu8fshI/dslINj8J5K9GX0C61u1blvO+pZ8gkMoy6TZlKOGJhz7fwpk+nzcnIpR3g74SFFs3ff6Z8bFcHGMrp0dK8cwNPlqVdl/08M7rHEWrduTSNHjqQxY8ZYEr1QnMgYjbPaz1vT1F8okDeYABNgAkyACTABJmCCwD3V5I0+jvW6DqAxX66QI6sxyhsCD55L/C9smh1R+7dR6rXLNPjteXApykE9heOJLX1Po+g/qUZk48Xj6B8J27twjlyqP3m5hQtFGnww4rv5oPFyFDma02XzeX4ZeMfksA9+VVnIfpnY2P7TJ7RXDCiCIY/9S3+gFoMnUL0u/eUAH0N9JmVknT/KY5qb3/9TJ8js6tUkBxmnbaNbtP+ki9n4HIEJMAEmwASYABNgAoqAXVhYWGFVJEJCQkIoNjZWxbkvlnhND/o6wstoreG1Qclx0ZSVkWZxUngVUaY5j6bFGZZBxK1z46h6cDYlpdpT01EhZVAiF8EEmAATYAJMgAncDwTKjaC8H05WWRxDoH8O+fvk0onz/PqgsuDNZTABJsAEmAATuB8I3FNN3vcDcFs/hvhEB8KHjQkwASbABJgAE2AClhK4pwblWHpQHI8JMAEmwASYABNgAkyg7AiwoCw71lwSE2ACTIAJMAEmwATuSwI2IygxEIiNCTABJsAEmAATYAJM4N4jYDOC8t5DxzVmAkyACTABJsAEmAATAAEWlHwdMAEmwASYABNgAkyACdwRgXItKIMbtKBWw5+SAP2r1qY2IyeTk5vHHQFF4ipN21HPqe/IT51OfQrlV1plNg2rTM2qBMiy6gZWoHY1LetCUL2iD3WqHVaojra88VCj6lTJy92Wq2jzdbMX04CCo6eLZTMw3ckBtaoeRPWC/K3OwtvNhbrXr0o+Yunk4CDXA7zv/LtpdUU4ARNgAkyACVhEoFwLypZDn5RTKoJUgx6DqdPjM8gnINQicKYieVUOocA6TalJn9HUbMBjhaKWVpkTOzWlSZ2byrJGtKpPk7u3KFSu7sbr/TvQl6N7yl0daofSYx0a6Qbb9PrjHZtQg+CKpVrHvk1q0qKnB5Kr0/35Vi1nRwfC9RLiZ91c8cWBPqpNA+rTuIbVSfGg83TX5lSzsh/5urvI9dY1gqzOhxMwASbABJhA2RAo14KytBCf2LCUfps6gNKuXy2tIoqdr7+nGzUOrUQL95qek7zYBdwHCYc+UJd2noulzNvZ98HRFD2EW+K4ZizZQuevJRcN5D1MgAkwASbABIpB4P50wRQDhH6SkIYtadiHv9G3j7SUUy7W7tib+k7/gr4cUF8b9blVJ+nUphVyfnEXT29Kir1A8yZ01YYXd2X27Nnk5+dHs2bNonPnzhU3G4PpxrZtSKmZWbQ7smBqTQd7e3p/aBeqWcmXLiSk0Ofr99HVGxkyfa+G1Wlsu4bSW3c9PZM++mcPXcgXItN6tSI0aTqK9DeFSPll13HadDJKpvvvw+0oV8xfjjzRbLnvQhx9sT5c7kP8mf3aUUPhaczMzpHCJv3Wbfp07V6qHeBH8KCeuXKdGodUkuGfr9tHRy4ViPO2NYOFh60J2Ymm2+UHImjFwTOyzOl92tKVG+n0885jcnvWwE50PPYaLdl/Wm7D6zWtV2sK8NY0mUM0zt64X4apP+1rhZCXqzP9vueE3FVNpJk1qBPtjbxMneqE0Y2bt+j//j1Eh6KvyPDvxvWmudsO04GoeLk9f+LD9OHfe+h0XCKh2Xam4IBycwSL7Wcu0f9tOaSddt5YfcCuhuDmLepxUuRTRzBJzrhFry3fRkkZmXQnZb7arz3VEl4/2Kw/d1CUON+mDNfGvAl95Hk/dTlRG1Xtx7GmiLpN79uGgn08KVvMI7/q0FlaHK5hjgTVK/rSz0/0I1fhGT1xOYHeX7NbxhsihHuXumHy+kE3Bpy7t1btoMS0m9pyeIUJMAEmwATuDQLl2kMJT+KRv36XZypyz0Y6tnYRpSVohIGzuyc5ubiRvb1m1hhXD29yci3cd89ZbDd9eAzFnzlK/3zyIsWdOmT2rJsqUyX28fEhJycncnFxUbvMLpcJYbU0XzitPX6eFu47WSSNu7MTQTAhrq55uDgRxOL/NuynsApeon+dpoky0MeDnhDN6GevJEkxaG9H9IYQe8ogAr8UaeDtOigE1VNdmlFF4QGF+Xu40QNVA2n9iSiav/M4takRLMRiBRnWtV4VKSYX7jtFfx+NlOuqf5yLo6MUryG+XkLYhot63aRnezwg06k/TYSHdd72o3To4hUa2bo+iWpJqyxEiSofOyp6uVEFD1cZhmbetwd3Jiy/2nSA3l2zi3KE+NE3NNEei7mmFTUuIr6baPquH+wvhfYtIYDHCFGuDM2xun0RwRjxYc/1fEDy/GHbEVp//AJ1q1eVujeoJsNM1QfsIPrXnbgg2eBYIXI71tF0xyhumSj4l13HxHkOJ5xzsDZnYJSdk0vN8/vnqvjop4tjjU68Qe8OEVxFP8dPxAPBmiORNKxlPaqcL9oRH9fROnFNLth7Uh5PZyEiYXjQCBIiNDYplb7aeEBuj2uv6X4RI/bhQeHS9RuSBdaP6jxUyAz4DxNgAkyACdgMAfN3FJupaslXBCISH9jlkwflx9pSEqIiaMkrY2QyiEVzZkmZW7ZsIX9/f7pyReMFM5cnwrdGRGujhQtvoCEbLm70WUIc4Oaub/8T4g3epW5C7DUSnkEYPHIwCAU0/7o4OdDkbi0oyNeT4pLTaO7Ww+Tn7koPVAukuJQ0Gbeq8MYl5HuY4HFSIndkm/rUomoARcQnEjyMF4UQUZ7FHmLwhb7B27n3/GVKE8LqzYEdpWhLu5Ulo22LuCSPFwIDeaGf3bmrSfpZFNpuUz1YCCgHenf1TlGH6zIMwlHX0DcTwhbHq28/QsAKr2QFIfbGd2isH2xwG/nBs7kh32vbUfRX7SyYwotrrj4nhGcVaXsLcb/51EXq27imLNtgQTo7TZWJaJeup9K1VOs8gGcF2/pBFaWA/H58b+FJ3kd1hKCEtxZeVojdg0Lc47rAOYLo7t+0lhT9KDNZeFUX7NE84GAAGB4ucEzKPhUe6CyRpmZlXwIjGLyUfwgBEV4UcgAAQABJREFUqkx3Xe3jJRNgAkyACdgOgXItKEviNJzbvaEksimUx/z58wttl8QGmpkfalydVh8+JzxzeYWyhDCAmIShaRXCAFbJ0102Zau+hBFxGiEGTyAEJZqU6wVVEE2VGVJIII2rjtcLolEZhCGacGFoAoUAURaXnE7uwmOma2jyhkHMwNDvUzXTR+SHofkXBkFjzoJ8PShPNDsrMWkoPrxjaAKG103fVDp4TB3gqjVjiAHmZ4R3V1lsUhr55XtMzdUnOydPin/UGYbzA6+mKTNXpqm0psKOXrpGeCBoIwbFYMQ1HjTgRYXnWg3sCfHzFOua6wZexTThvVYGb6OyaBEGD7MydJWAmIRFiq4UGBAFbup6VPF4yQSYABNgArZNgAWlkfOTlaHxuLn7iX5+aSlUuZamKU4/ekZyQb8y/bDc7CzRbK5pctUPM7XdrVs3QrP3pk2bKDW14GZsKo25sIeb1hRNw3Zar6C5+AiHYEPzLfrLoemzir+3TAaPE5qk0Qw8c9lW6R1Ec/Z7oulTdGvUmhJD2h35KxBsaFpXFiCaRNHEq2thFbyllyosfySyrgcyX2PpRpfrWTk50oumApR4wza8puhziXLhpdM37Ee/xbf/3KkfJLeNHQv6RqL5GKZ7TJCBEO5V9I4TghRmrj552p6WMnqhP8Uts1AmBjYg5J4X/WJhP+04qm32P3gxniZ0bCxe3VONNgrvamv0m3Wwp0Wiy8K1VE1fW/RbVaJbP2vVnQH70fx9SUdgaq4vO8kqRDzI4OHFUjFZp04dwufs2bMUEVG4G4d+HXibCTABJsAESpdAue5DaQotmsCFS4vajnqW8I7Ket0GmIpuMOzSsX1UqUYDwgAfNx9N/0GDEfV2jh8/nkaOHElVqlTRCyneJjTe4BZ15KAQ5W20JCcICdiYtg1k0zbyuC1EW4zwtKmOiz6iDyGavS1tBkZ++y5clk2leM8g+muqfo4IU4aR1sh3hOgjCS+WEi4q3NDypBjwgUE96EfZRzQRQyApw6AZiMInuzSXzdp4JRC8YcrGtmsky8AgHmvssmCBZmwMwBnVpqBvJfKAZ66teB8ohDjeC4rjPJw/mMdcfUzVobhlmsoTYU5CJEIs4uMrjkcZui7gvKPfJESkk/CUov/kAXF9gDkE4GOiGwDEIry3aLZGXGU4H+gWgfdRYpDTfr0uGXjNFQbldBV9TDGYyVIbMGAAjR07lrBkYwJMgAkwgbtLgD2URvjn5eVS5N5N1KDnEPlJvXZZxPQrEhvxjNmeBV9RaKNWNOqLZZRzO4u+eLi2saiF9hvzhhWKZMVG57pVpAAw1A/NmLcP2cPjhL5u/UR/OHxQr9li8AS8lRhIgT6FM8TIapgaLazyg4dOrcsI2M5fQZ5dRJ3wnkEIFYhFLHUNI7G/e6y33PXTjmO6QbIehXbkb6AfaQ/hRZvz6ENShEKIqjJTRLM+6j6lRwv6asyDMgVem4NBQRCuGHSCwTr6pnoHqHz0w9ccPScGIzWnH8b30TJQcb7atJ/eEQOBPh3RXe4CoxUHz8p1U/VR6QuIadbUdVHcMiG23xvSRZv9O4M7yfXvRF9Y9Os0doyIFC28uhCGqPeJ2ARqGlZJ+yaAj//ZSy8+1Jpmj9ZwhWf2s3Wafqi4BtD8ra6TJDH4a6voA6sMYrR/s1rygQfrakS+Cje19PTUNLEnJ/Prj0xx4jAmwASYQFkQsAsLCytyHwkJCaHY2NiyKF9bxt0oU1u4iRXPioFSDN5MuW4ilm0HfSsEFvquffDX7mJVFN68SmLENPoA4lVAuoYRzvBKQWhYa6op/XshxtaJUdAYwIMBQW8M6ECjvvuT0FcTTcQY5GGNwVMWn5JuNAlGFkO8KK/nlO4PiNcfBdL4eX8ZTWMqAJ5QjLxWg5H046I+N7OyjTLSr49+ekPbd1qmoTzvdB+8jGgKvyLY618nuIbASPe8TBAvqW8rBuhM/m2d8G5qBnrppzNVp59++olcXV1p4sSJlJGhaXo3FZ/DmAATYAJMoPQIsIfSDFv1GiEz0Ww6+M1V28WI3MJ9FK2pMJrJDfU7RB5q5LU1+aFP3dvi3Y5HY67KEdoYrLPl9MUiWaiR40UCzOzQFS2Gournu0C8c/LX3ccNRbVoH8SpMTGJDKytjyWF3mmZlpRhbRwl0A2lwzUUn5JtKEj2n4TH2xpzd3eXYnLr1q0sJq0Bx3GZABNgAqVEgAVlKYG1pWzVS8ptpU4Y1LNZCEgMvEEz9XrxvkV48GDor/fv6WjKFSKtrEyNFi+r8rgcDQH0J8W1UByDR3LUqFHFScppmAATYAJMoBQIcJN3KUDlLJkAE2ACTIAJMAEmUJ4IFAyDLU9HzcfKBJgAE2ACTIAJMAEmUGIEWFCWGErOiAkwASbABJgAE2AC5ZMAC8ryed75qJkAE2ACTIAJMAEmUGIEWFCWGErOiAkwASbABJgAE2AC5ZNAuRaUwQ1aUKvhT8kzj9lw2oycTE5uHhZdCU36jqaeU9+Rn4rV6lqUBpHupExThTQNq0zNxMu5YZilBDOzKMNMLd3qaWbdqSxeGI4ZaszNC63S8pIJMAEmwASYABNgAuYIlGtB2XLok9Rl0kzJqEGPwdTp8RnkExBqjpkMh4gMrNOUmvUfR1VbdCySpnbH3jR+7voi+++kzCKZ6eyY2KkpTercVO7BVHaTu7fQhvZqWJ2e6abZblUtSM5Qg9lh2JgAE2ACTIAJMAEmUBIE+D2UxaS4ec6bMuVL66IM5uAbVFXOAW4wkHcyASbABJgAE2ACTOA+IsCC0sjJdHb3pMfnbSbPCpWJ7OwoMzWZ/nznGYo+vMtICs1uV08fenphONk7OIhk9jTtL83czbt+/YL2LpxjMq0KnD17Nvn5+dGsWbPo3LlzajcvmQATYAJMgAkwASZgkwTKtaA8sWEp3byhmaM7cs9GcvetSGqqRXt7B7p+KZI2fvUa5eZkU6//fECD3/mRvuxfz+SJvJWeSstffYzqiyb0xg+NoGUzx8n4CdEaYWmqTJWxj48POTk5kYuLi9pldrnsQASJKbWlrT1+ng5Gx2vT7DwXI6Ze1My1fSz2Gq04eEa7rY3EK0yACTABJsAEmAATKCaBci0oISLxgV0+eVB+FMfMtBRaPH0UBdVrTrXa96IbV2MpuGKgCja6zMvLpegjuymgThPKE/+wrmumylTxtmzZQv7+/nTlyhW1y+wSUxgqC78Qp1bl8tTlRMIHFp14Q3xOynX+wwSYABNgAkyACTCBkiBQrgWlKYBOLm40eekhcnB0El7LK+TorPEWYpmdpfH2mUp/J2Hz58+/k+SclgkwASbABJgAE2ACZUqgXI/yNkW6/bhpUkzOHtiA5j7ans6Hb5HR0S9S1+CFdHJ1192Vv55HduJfcaxbt240aNAg8vLyKk5yTsMEmAATYAJMgAkwgTIlUFgdlWnRtl2YHFRjb08efpWoSrP2VLfzwwYrfONKLDXqNYx8gqoQBvIoO79PCFAxmKfFoAlk72idI3j8+PE0cuRIqlJF8+5IlScvmQATYAJMgAkwASZgiwRYUBo5K7t/m0230m7QpF930oiP/6D061dlTPSR1LVtP3xArl6+NOnn7TTy08XaoMSLZ+nquRPUffJb9MLfkeJ9l69qw8yt5OXlmYvC4UyACTABJsAEmAATsBkCdmFhYUXUS0hICMXGxpZpJe9GmZYcYIWwmlJMYvQ2GxNgAkyACTABJsAEmEBRAta1xRZNf9/vwauD2JgAE2ACTIAJMAEmwASME+Amb+NsOIQJMAEmwASYABNgAkzAAgIsKC2AxFGYABNgAkyACTABJsAEjBNgQWmcDYcwASbABJgAE2ACTIAJWEDAZgRlWQ8CsoANR2ECTIAJMAEmwASYABOwgIDNCEoL6spRmAATYAJMgAkwASbABGyQgE0JSjeXIm8wskFkXCUmwASYABNgAkyACTABXQI2Iyg93XPp9NIYurj6En36/HXdOvI6E2ACTIAJMAEmwASYgA0TsBlBmZZhT9UHhNGuo640uGuGDSPjqjEBJsAEmAATYAJMgAnoErAZQYlK5YoW711HXcjRgZu+dU8SrzMBJsAEmAATYAJMwJYJ2JSgBKjsHFvGxXVjAkyACTABJsAEmAAT0Cdgc4Ly3/1uZGdH9MiD6fp15W0mwASYABNgAkyACTABGyRgc4LyVJQTzV/jSR8/d50iV8ZQzdDbNoiNq8QEmAATYAJMgAkwASagCDiqFVtZYrT3Yw+n0ZloJ/pigQ9dumJzVbQVVFwPJsAEmAATYAJMgAnYBAGbU2sY4S2bvP9bma7fKOxArVOnDuFz9uxZioiIsAmAXAkmwASYABNgAkyACZR3AoUVmw3Q8PXKpTwxyFtfTKJqAwYMoLFjx8qlDVSVq8AEmAATYAJMgAkwASYgCNicoGxWJ0uM9BajcgyYp6en3JucnGwglHcxASbABJgAE2ACTIAJ3A0CNtPk7eGaR8cWxYh3UBJt2udmkEXVqlWF9zKPfv/9d4PhvJMJMAEmwASYABNgAkyg7AnYjKBMz7SjIS8H0MU4R0pKLeo4dXd3J1dXV9q6dStlZPBMOmV/qXCJTIAJMAEmwASYABMwTMAuLCysyLQ0ISEhFBsbazgF72UCTIAJMAEmwASYABNgAjoEiroCdQJ5lQkwASbABJgAE2ACTIAJmCPAgtIcIQ5nAkyACTABJsAEmAATMEmABaVJPBzIBJgAE2ACTIAJMAEmYI4AC0pzhDicCTABJsAEmAATYAJMwCQBFpQm8XAgE2ACTIAJMAEmwASYgDkCNiMoPSsGUpuRk8mrYhA5ubjJ9YrV6pqrf4mE29k7UPtHnyd3v4olkl9xMyltBiN7pdPF1Zfk5/lRN4pbTU7HBJgAE2ACTIAJMIFCBGxGUIY2bEWdHp9BYc3akVflYLne8MGhhSpbWhvObu5CUE6jwNqNS6yI2h170/i5663Kr7QZuDpr3hBVb1gozV7obVXdODITYAJMgAkwASbABIwRsJkXmxurYFnsz8pIp4UvDKcrZ4+VWHG+QVXJv2rtEsuvJDO6ecvw1JYlWQbnxQSYABNgAkyACZQfAveEoGw7eiq1HDaJvhnaTEy9mCvPzqPfrKGbKddp6cxxwps5nVoOnUQOTs6Um51NUQe20Yo3Jmrjdn/mTareuhulXr0sPaDI4O+PnqdTm1cR8qkQVlPmibxij4fLdWd3T3p83mbyrFCZyM6OMlOT6c93nqHow7tk+NTlxyj+zBEKbdxGhh9Z/Stt/nYWuXr60NMLw8newUEks6dpf52V8Xf9+gXtXThHrj/8ypdUq30vcnJ1p+ysW7TyrUkUtX+rDDP3Z9q0adSiRQtas2YNLVq0yFx0DmcCTIAJMAEmwASYQKkTsJkm73jhHTy2dhHFRxyh9OtX5fq5XZom41NbVkmhVr/7QAnEzduPAkTzdNTB7XIbwm3vwm9owfODae+iOVSjTXdqO2aqFh76RvqFVKfKtRrSzp8/p71/fEN5ORphunH2a7Tus+lS3LkIEanMXvSrvH4pklbOepKWvz6Bsm9l0uB3flTB5OLhRWFN2tH2nz6myycOUItBE6SAvJWeSstffYxObFhGQtHSMiFS8Tm2brFMW+2BzlS/+yA6sHwe/TqlH+1fOpdyb2fJMFMMVMF+fn7k5OREvr6+ahcvmQATYAJMgAkwASZwVwnYjIcy+XIUrft8uhaG7npKXLQQmdeo+YDH6OSmFdJbCbF2+M9fZPxt8z4keBQb9hwiB/TASxlYp4k2L7Wy6OWRdO38KbUpl3ERh+l6TGShfdjITEuhxdNHUVC95tKbeONqLAWLgUO6dn7fZiEIv6ezO9bSpF92UJXm7eniwR0UfWQ3BYjy88Q/rBuzpNgLtGP+p9pgUwxUpO3bt1NKSgodOHBA7eIlE2ACTIAJMAEmwATuKgGbEZTmKJz+dxU1HzieMCK7frdBdDXypGwuRro+L38mxORQgncwIzmB7BzspbDUzRNNy/piUjdcfx0jzScvPUQOjk6UlnCFHJ1dZBQskRcs9oSmeTwl/pLc9vCrJJem/qA5Hs3maMbHJynmvGy2V3mYSouwDRs2yI+5eBzOBJgAE2ACTIAJMIGyImAzTd7mDnjvom9Fv0RH0VdyInkHhNChP3+WSewdHaWYRJPyV0Ma049P9NRkJfo96lpOvgjU3Wdqvf24aVJMzh7YgOY+2p7Oh2+R0dG8rixPeEmNWx7ZiX+GDJ7PLx6uTf/OfZd8Q6pR5yf+ayiawX1NmjShQYMGUY0aNQyG804mwASYABNgAkyACZQ1gQJ1VNYlW1leRlICpVyJka8Tys3JpuPrlsgc0BcyR2yjXyWavftO/1z2ZbQy+yLR5aAae3uC17FKs/ZUt/PDReKY2nF+nxCgQtSibyVEr7KwJm2pgWiazxH9JjEoKDcnh5zdPFSw2eWwYcNo5MiR9OCDD5qNyxGYABNgAkyACTABJlAWBAqUTlmUdodlnFi/RL4vEiOx1WhvLDHCuvmg8fTcyhOyOfr2zXQ5IMZccRggM+yDX7XRhrw7X65v/+kT2v3bbGr44DCa9OtOuQ/9G32Dq2nLxc683MIeSlUnhCVePEtXz52g7pPfkp/wJXNp6/fvUYUqtejB594TwvcLRBNN9Im07osZct2SP8orqpaWpOE4TIAJMAEmwASYABMoTQJ2YWFhhVWRKC0kJIRiY2NLs9wSzxuvDMLrf6zpJ2lJJZAnRp2jf2ZJGfphVqrRgJLjLspXH5VUvubyeaxfGr3zdJKM9tUib/rkVx9zSTicCTABJsAEmAATYAJmCdw3gtLskXIEJsAEmAATYAJMgAkwgVIhcM/0oSyVo+dMmQATYAJMgAkwASbABO6YAAvKO0bIGTABJsAEmAATYAJMoHwTYEFZvs8/Hz0TYAJMgAkwASbABO6YgM2M8r4bA4HGjx9vFOD8+fONhnEAE2ACTIAJMAEmwASYQAEBmxGUBVUq27V5C+YVKXDi6IlF9vEOJsAEmAATYAJMgAkwAcMEyr2g1MWCmW0c7Bx0d/E6E2ACTIAJMAEmwASYgBkCLCgFIAjJOa1mUy2vmvTP5XWUQmlmsHEwE2ACTIAJMAEmwASYgCLAg3IEica+jaSYHLPrMfr89JeKDS+ZABNgAkyACTABJsAELCDAglJACnCtTDdzbtLVzGsWIOMoTIAJMAEmwASYABNgAroEWFAKGo723PKve1HwOhNgAkyACTABJsAErCFQ7gUlBuG0r9iOotMvWcON4zIBJsAEmAATYAJMgAnkEyjXrrkG6XXpr64rKTMnk144OJ0vCibABJgAE2ACTIAJMIFiECjXHsrzbhfp/RMfU05eDg0M7V8MfJyECTABJsAEmAATYAJMoFwLykz7TNp2dTstjV4umr3b8tXABJgAE2ACTIAJMAEmUAwC5VpQKl4JtxLJxcFFbfKSCTABJsAEmAATYAJMwAoCLCgFrNTsNHJzcCNvJ28r0HFUJsAEmAATYAJMgAkwARAo14Ny1CVwNPkYJWcl07JOC2n5pZWURTkqiJdMgAkwASbABJgAE2ACZgiwoBSAMrIzaMSOMeTj7CNxDW011Aw2DmYCTIAJMAEmwASYABNQBFhQ5pPIozzppVRgeMkEmAATYAJMgAkwASZgGQHuQ2kZJ47FBJgAE2ACTIAJMAEmYIRAufdQThw90Qga3s0EmAATYAJMgAkwASZgCYFyLSjj4+Np7dq1lnDiOEyACTABJsAEmAATYAJGCHCTtxEwvJsJMAEmwASYABNgAkzAMgIsKC3jxLGYABNgAkyACTABJsAEjBBgQWkETGntDm7QgloNf0pm71+1NrUZOZmc3DyKFNek72hCXGNm7+hIXSbNJI8KlWWUel36U71uA+V69VZdqWm/scaSWrzf282FutevSj5i6eTgINcDvIvW1eIM74GIneqEUbWKmtdHGaqug70d9W9Wi7xcnQ0FW7yvuiijU+0wi+NbGrFmJV8a1rKe/DQKqVQomakyca77Na1F9nZ2hdJYs1HBw5XcnA33onG0t6cQPy9ydnSwJkuzcXE9Ooi8LbUq/t7UrV4VGb2yt7u8pku6TpbWheMxASbABO4nAoZ//e+nI7SxY2k59Emq06kPhS/5jhr0GCwE5RSK3LOJEqIiCtW061Ov0bmd6+jyyYOF9qsNZ1cPKUwvHtpJ6devUrdn3iQ7cWM9vWUVdZownfyr1aEja35T0Yu1hAB5umtz+vDvPXTp+g25/uvu47T68DmCWHljQAf6zx8bKS45Tea/4KkB9NeRSFq47xT9Ida/23qYNp2MkmGv9mtPwb6eNOW39XJ7yAN1aWTr+nIdf15dvpXOXknSbhtagaj9/cn+RYJu3LxFT/2yzmiZ76/ZTV+M6kFfrA+n3ZGxMr2HixP99PjD9PPOY/TX0UhtnuM7NKaNos5RCSnafborzqIOj7ZrRKfjrlNq5nWZb4ivl24UOhx9hd7/azfNfaw3+bq7FgrDxrgf1lCH2qHUtW4V2n72UpHwO9nhK0RdnQA/ahhSkfZHedHx2Gva7EyVGeLnSePaN6L1Jy5QVrZ1L/av5OVOHwztQhClsBOxCfTump2Uk5snxJ4dvdS7DT1QNVBbj2d/X0+tqgXRY4L19jOX6KtNB6SQ/XVSP/ngMuLbldq4xlaaVwmg6X3ayvwRZ0n4aVqy/7SMjnM7olV9erBhNbk9+rs/5RJ/ejWsLj9bTkdr64D6XrmRro3DK0yACTABJmA9ARaU1jMrkxQLXxhG6UkJZVJWcQox5siydP8/xyJp7/nLVKWCN03r1cqiKtzOyaFpCzdp41YWQua/D7ej8Kh47T7dFVWX2ORUyrydTa1rBGkFZavqQTLqrnMaganSvbL0X0q/dVttml3akR1dTLxB/9sQro2blpkl119dvk3rkRO6it4b0oVShPhFXUrLDggW+Hz2SI/SKqJIvs/2eIAcHexp0vx/CB7A1/t3oIca1aC/hVCHsGshxN9n6/bRwYtXqEGwP6Vl3iZ7ABHWukYwkRCUD1QLlGKySOYGdiDlCw+1pnNXr9O7q3cRHk6Gt6pHW89E09UbGfRCr9ZUJ7CCFImB3p4GcuBdTIAJMAEmUNIEWFCWNNE7zK/75FnUuPcImcvBlfNp+48faXNs+OAwevA/75OjkzNdu6DxxmgDzax4eXnRnDlz6NatW/TEE0+YiV36wTezsik2K5WchRDRtecfbEUuoln0o3/2yN1ogv1OePp+33OC/hVepdikVG10xIX4+2HbEe0+YyvHYq5Jr6oKb109WIq7pIxMuetl4UVrHKppIl4kPKy6XkuIned6tiRXUa+TlxNVFtpl5u3bheqlAq6lZqhVGtO2oTwueHuVoan2feHZQzP1BeER/Xz9PimIEO7p4kwvCtFUL8hfeuHiUtLohYWb6eEmNWWTu7docr8ixBM8gGh+h2A7cumqytro0lSZSDRDeP0aCe9mpvBSfrlhvxCBGrEOb+tx4clrKVjYiXOy/EAErTh4RpZTT4i3v4+elzzBGXWF9xWCEh5BeAP3iYcHmG4d8YCQk5tLDYMryngx4tyGimZxZb880U+WpbZvZt2mJ39eS/VFfFwjC/aepFuinouFd3JQ89rUs0E1WrDnJP2y65jwqKfS0JZ1aUiLuio5L5kAE2ACTKAUCbCgLEW4hrI+sWEp3bxxXQZF7tlI7r4VKS2hwMN2YMU8itr/Lw144zvyqljQTIgEPae+QxnCa7nnj6+p8xOvFMo+fOl34uarEWeHVs0n35DqhcLthXhxcnIiR9H30lLDDR6iAc3dqcLrhvWjFogWlf9w0Zevh+iDCQsTnkg0TZuzE6KJ9onOTaVggFiAJxF9OA8J75auQTxUFd6wN1dtl6JE9aMzVuaOszEyLwi1tFtZ0lMGD6myn4UI8RJhbwzsqG26VWHPdn+ArgnxhibVxzs2Ubu1yxpCEH44rKt2e86WgxQtvJbKgnw8aYDod7nq8NlCwhNNs9fTM0UXgv30bI8W0qv3667jMtnMfu3k8S0OPyWZD2pRR4pHH3cXchf9FNFMDJG7NeKS6JvoSQjXFWuqbP2lqTIRF/0cPxddAx4R3RGmCs/jhB//klngHLQRHt65W4/I5mt0V1gprgd3cQwQmJeSCo73Sko6VRdMYKhrkOjqsOCpgZSbl0vbzsTQTzuOyjD82RN5mfoIkYwuFAv3nZTCWwW+/edOkTeJ5nB7Ao/M25qm+EAfDxlFMYYohQBW/XvhMTZmO8/FaK/DY+JawzVtyXVpLD/ezwSYABNgAhoClqsLJlYiBCAi8YGhf6R+H8mUuGjCJzencLOob3A1cnJ1p5VvTaKLB3fI9W5Pv66t0/6l32vXj61brF1XK5mZmRQeHk4ZGQVeMxVmbJmYdpP+EF4gZbrrap+pJW7U8UJcwNTN3lR8hG0VfeogKDE4Bn0Z4eGCsEVTsTKIwsc7NSGIxFN6HkNjZe4XzcB5eXmy2RvCy93ZSfTfi1FZSs/gVcqg7Jxc7T6s+Hu6EUTYe2t2iSbWJCl00cSra1nZudIjpvbdyhc+ant63zaUlHGL/hDeM337nxBv2UIQYaCIGkTj6uRItSr70Z9CgCovIDyQyhLEecGxQ/DtEgIJ/SVb6PRRVPGMLQ2VqeJC0EJoJ4v6vjO4E/mJPqDKi7tNiNetEdFS4LatGUw1RR3ThdcQBo+zMjwIYKALBuJAbMKD+e2/h4Q32oEmivN29ormgQrx14k+mx8JMZ4sPMWX8/viqnzAGwbh7CQ82W+JhweYGhClW+ZtUSbOkznD9aKuGQjS6MSi58RcHhzOBJgAE2ACRQmwoCzKxCb31O7wkKxX9OHdcnnpyC6r6omm7s8++8yqNKYi54oBF4YsV4g2ZRALalDOa/3bEzx15gwDQk7HX5fNl2gqbSCaN38TA4F0DX0ubwvh9+2WQ7q75bqxMtG8GpOUJr2UbkKwYcAIvKHmrEl+M/j5a8kyqqGBQzHCO/fN5gMGs+orvG8YtDN9yRYxW3xhg/iFmIRBwMGTBwvK98Chz6EhQ92VgQM+EG+WmLEyVdoz+WJPiTl0A9gmRD4sIj9MCUwIOyUCdUd3ozlat5zDQsCjuwIMPLrUqUL7L8bJ7QuCK/q47jpbuC+rDBR/ILQ7igFMEPTw5sKQNwwPBfA2w5xEmeg/ycYEmAATYAJ3h4Bld6G7UzcuVYdA9GGNgAyo1VDuDajdWCfU/KqD8A4NGjSI+vTpYz6yBTGS82/qun0gMUBF15NoQTYUmC8yM3Q8XOuPXyA0I3cVYgJ9BDefuqjNCv0ZIXI+Fx47iERrbM/5WKov+iS2FM3oGNBRIMuM53ImXuMlU2IvtEJBHz/jqTQhaCbGiHAMQDI2atxQHtdSb8rd6D9pyHQ0u6FguQ9s4Om01tA1ARYqmtFhSmBi3VC5GcJDCc8vBlcpAyvlmYa3UtdjiwcGJ8fCPzvT/tikHaGt8sASA3zwlgH019Rtzo/L93qjywMMYhr9W9E1oySsXbt21K9fP6pQoUJJZMd5MAEmwATKBYHCv+zl4pDvzYO8cvYY5WTfpq6imdsnMIxaj3jaqgPx9PSkkSNH0rhx46xKZyxyghhwAiHRp3FNIfrs5TsVIf4uJpi/qb87pLMciAIPE/pCwnS9SxB+8MKheTRSeLBu5o+KRjPqf0TzJ8QZhCveF4lPmIUiD6+oQZkNhFDTH90tK2HgD7xnEEXoM4jm38Gir6KlhpHI8ECiqVjVFUtz3kR43dDdoG/jGnLACgYmYTCOuXS69YIAgyCF6MIxW2pDHqgjj/OR1g3kaHQlDE2lxyuUuom+suDTTIzoRvcG1T8Vr1BqXjVA9qlU9cF5MGc4128P6kTnxbleLvo5YhuvjYKdjkuU52S0GOgE0TyqbQO5/3D0VbmEhxTH7e/hJvpfklzHOycttfHjx9PYsWOpcWPrHtoszZ/jMQEmwATuRwLWuzDuRwo2dEwvrrugHVzToOcQwufyyQO04PkhdHDFT+Ldk0/SpF92UGaa4fckGjsUiL+SNIis38TI67Hipo6Xn8MwwALvPVQDZHTL0y0ewuMD0W9O2cpDZwp5GyEmj8ZcJbxrcP3x8yqaHDACAQFR9vHwbtr9iD/2+9XabbWiWyb2QRzBowaBhT6IlhrecTi2XUMxKCWYkvKbXVXaPBN+zjoBFaSHVfdYkW7msq0GvX0qTyzf/2uXeM9nR3pTDBKCweO4/kSUFPFyh/iDlm+cV0Pndp3g1iSsMn0yorsUhnj3pT4PlQ+WKqySp7scVY99GKika4bKQfjXorkfg5IwGh+Gkd7o/wrDCPyPxLlCP0mkxyj5f0U/TPUgISMZ+IN3W+I8YQT8b5P6yxg4z6O+WyXX4aHGeygxEhw2X7xPFKPLYY2EBxuj1ZWBAd4zOfX3DWqXyaWzs7MMT0hIMBmPA5kAE2ACTKCAgF1YWFgRpRESEkKxsYb7NBUkLdm1u1Fm7969ae3atSV7IKWcm4uHF3kHhNK186dKuSTLsofXKMjXgxJEMy3EmqWG5mA/8RJuiLzSfC+jpfVBPOHMooVPD6T/EwNI0H9T1yBkfcUIa0s8drrp7nQd4hsjqfHyeN3+qXear6n06Ot6Pf2m9AKaiqcfBi8gXuUEwY/3eapR2IiHwU24PnQH0uint3Yb5wsDg9A/F6+PenHR5ju+lry9vWnu3LmUmJhIU6ZMsbZKHJ8JMAEmUG4JsIfyHjv1t9JTbUZMAh08Z7rCwVKcaLK2tr+lpXlbGw+vysF7IlWfvN3C06pvEL3xKQUjmfXDS2sbA2DUIJjSKkM/X+Xp099vbhvdFl5fsY1GtWlA19M0A2hUGjThl7ThSRiDh14SQhJecmtn+DFUnzZt2sjdP/zwg6Fg3scEmAATYAJGCLCgNAKGd5cfAniPIWa3wTsKMXWkrXhM78UzgGbp33afKNOq4zVKeLl5SdiGDRsIHzYmwASYABOwjgALSut4cez7kACasfEycjYmwASYABNgAkygeAR4lHfxuHEqJsAEmAATYAJMgAkwgXwCji4uLgZhGNtvMHIJ7SwvZZYQLs6GCTABJsAEmAATYAI2QYA9lDZxGrgSTIAJMAEmwASYABO4dwk4Yko+Q2Zsv6G4JbWvvJRZUrw4HybABJgAE2ACTIAJ2AIB9lCW8VkIbtBCvJz8KVmqf9Xa1GbkZHJy8yjjWhQUV1r1aSpeqo1ZU2B1AytQu5ohBYVasDaweW350mr1Kh8LkhQ7Cuak7t+slnwJeXEzqS1eYq6OV+VxpwxUPrwsHgFMN2onZhmy1FxdXQnvoWQrXQLgjGkt3d2Lzl7k5+dHOG/WmpubG3l4WP47yufaWsKlEx/fN5wLtvuDAAvKMj6PLYc+SV0mzZSlNugxmDo9PoN8xIvK75aVVn0mdmpKkzo3lYc1olV9mty9hVzHFIKLnxlEU3s8ILcxreDvT/aX+xQDTN03olU92ilms5n5cHsxfV5hUQCxOaFjyU2LFyzmnsac287FuJGpOvdvWkvOGqS2sTTGQDfOvb5etWpVql27dqHDqFKlCtWpY/kUlYUSl8AGblA1a9aU9apbty6hjpYYbm4BAZqHIEvicxzrCQQHB8vz4ePjU0RI2IspXMFfzVRkTe4QqJUrV7Y4yd061xDR+H6waQjgfHt5eZUIDn9/f/7+lgjJ4mfCrw0qPjtOWQwC9phcWVhrMY0hbTpAD1QL1M7RrLIL9PGgz9eH04GoeOk5xCwr18Tc4crgDawspuazJftpx1FydCh/z2dxcXFUo0YNwo85ZpeBpwg3Tey/WxYYGEgQJ2fPniUnJyeqVq0a+fr6UnJy8t2qEpebT8DT05OuXbtG169fL8IkV7wPNioqiorT9enKlStWeaOLFF5GO3A94jvCVvIE8CAJvmx3jwALyrvHvkjJIY1a0fAPf6foQzupeuuuhFlxNn39Op3arJm/eMQnCylUxLF3cKTsrFu0+/fZtPePr8W+1jTsw980P6jCm5cUc57QnH5o1c+0ec5bspyHXvhYzgvu4OhE6dev0uIZoynx4tkidTC0Y/bs2YSmqFmzZtG5c+cMRbFqH2bXwcvEGwZXpF4Nq1NMUiqFitlqlMFDibmzMd3hdTF39vHYBCkoMZf2FOHpdHHUNImpeZwx5Z6u4FT56C+riykBp/VqTQFiikDYznOxNHvjfm20x4VXtWPtULohZvHB9IuHoq/IsGm9WlGr6kHkKETKTTFjzi+7jtOm/LmqIW5nPtxOxjt5OYE+WbtXm195WMnKyqKUlBSqWLEiJSUlUVBQEKl9OH40X4rpXaU3CnN537hxQys24VWCpwgiAlapUiV5s42Ojpbbxf2DMiFKcnCdiQ/KtaZZDR5N3PQzMzPlFLS3b2umFIUohRcMYjU7O5tiYmJkHNSzVq1aFB8fT2lpmvnE4aG9dOkS3bypmSEIDJAP8sXbLCCeIiMjZf2QJzx2qDf266YzxQDePnh30KyPdFevXtWKZtxY4QnDEucDDHCelJDDeQJ7pEUdcSxgZYmh/hCGEOiWpgkNDZUPGmCH84zrBfWBEISpawTrOH6wh+G84ThSU1NlfVEeHlbS09NlOHgib5g6Drkh/uDYVLlYxznT//0ydq5VHoaWqD+uXVhGRob0qOJcwuBdRZlYgjkesjAnPI4b1wjqgY/y4OP4wcGcmbv2UA+cExjKxAeGcnGdoDsAygU3nGvUzZSBK84JmCItri9Mx6y4Iy1aJvCdR90cHR3lOcN3GWkxlTL2IZ3uMepfl6iTMnO/B/h+IF/kj3S4ri9cuCCPG9czjhWm2CJMfXdVGbwsXQLlz6VSujzN5n5iw1I68tfvMl7kno10bO0iSkuIl9vOoi+lo7MLBdZpQuu/eIVyxBem04QZ2jyz0m/Qxq9eo4UvDKfY4+Ei7GXyC61Bzu6adNt/+ljGdfP2kyK0ab+xcrvNqGepce9HxL6V9PfH08heiMqHZ3wpw0zVRxWMmx1+CKx5rdOyAxG0dL9m9pK1x8/Twn0nVXZyuUdMb9hHNH83CqlEWyMKBAS8k0+IpvKzV5LoC+GlhEPzjf4dZJqjMVdp1qoddObKdboqPJZYxwei05w5CxH69uDOhOVXwjP67ppdUtTqpqsXVEF4RvfJOawxFaMyzBP95Yb9NGPJFjoovKZPdWlGFYXXFHbp+g368O89QhTfEEK1cB8ucwxU/vf6UomCasITiBvp5csFU1fiZobrBmILAgTXEm5AMNxwcF0p099W+61dKk8pPJW4KeLmgxufJYabFoQHbp6oNx6kYDgu5IcbLMJgyFsZ6o60ynBz093GceK41Y1ZeUtxc8SNFKLj/Pnz0ntn7mavykBeYI2bOIQs6qd4oikR5SMcN1Uci6oPjgnnAUxw7iDacEO2xJBP9erVpShEtwJLDeWoBwWIWqwr0YM8IIZRV9RRV2RgHSzh9UY4jlm3aRsPDhBIEBfq2FWdIFqRDgIV4gIPM7p5oyxD51qlN7TEeYY3HgIX1zTy1y0XAhVloE44TtQB4ag3jlkJeqzjox5ADJWl9lly7eHBAowh+CB4lSkxiTAIcdRXXdMqjqGl4o6ycb2Dk/41An44PohZHC+WMPW9QDo8GCCdYqR7XSJPJQKRTv/7r78NoY7vC74ruOaVJxvHDJb4buJaV2yRP1vZEmAPZdnyJohIfGCXTx6UH/0q/Dv3XTq5aQV5VQqmdmOf0wavfOtJ2d+yvuh7mRx3kapSRwqu34JupmieRvcv/Z5aDnmC4s8cleKxQfdBMm3z/o9Kj+bNlOtUqXo9SoiKoLDGbeRgIEvqs2XLFvkjih8lS01XJIZfiCuSbN2JC/TRsK6ULOaqvpys8eogUqc6mps0PH2YAtHFyYEmd2tBQaKfY5yIF3ktWcwBniW8lI5yvUjGRna0qS6EjRCT767eSRHxmua2YzHXCsX+cftR6ZWs4OFG4zs01obN3XqY/NxdZfO8mue6qvB2Yso/1DEiPpGS0m+Rm2+BOEJicwy0BdzjK7hZohkTN3rcIJV3CYeFGxhuvkpAwSuGj9oujUNXHjklXHGjsebmAuECUYcbJOoPQ51huEnieHEjxI0SN1yUZ4kh3cWLF2VUMNE31NFS4Yu0EDS46cIzpeoAwYebKuqNvCCicE6U1wbpcCwoCyIOhrjKuyV3mPijO/AFDCAULPECIY6Kh7rqXiMoDuJAhRsqHr89OA4cr66gBFN1fnEujBnyV8erG8fQudYN11+HcMO1gXQw8FDXBjhCZKGeqAu8qagfHhhQfxwzzg/S6x+/fjm62yp/U9cevJz4QFyhjnhIQBk4rzh2JdzAGN8LJWx1yzG0Dma4VnEs8BTj+HS90viOKBY4bpSLsnBtIh3C4cnEMeABwtR1aah8tQ95Qkyi3upBBDxgiieuaQhha9iq/HlZMgRYUJYMxxLN5cL+rTK/1Kux4gtS4EQe/906qlitLqUnJVBWhuaGBO+kFJT5TRg5OdmUffsWZd8SXjvx5YK5ePnIL1qtdg/KbfxJir1A7j4VhDjTNB1pAwyszJ8/38DeO9t1QQjD2ORU2nVW86Ogcqvk6S6bldV82hFxGvGHPpMQlMW1IF8P+cOjxKShfFTY9fSbhUZ8zxrYieC9vHIjg9JuacSDq7ixsRUQwM0MN3oIGF3DDzxu+Mpwc4MoKE2DVwaiBeINNyI0NcJrg5ucOcPNEjcoGG5QSqQoLxMEAkwdE/YrMScDTPxRaXSjYB+YwXODD7Zxo0TZ5gw3eNygUb66yeN41UfdWFFnVW/kCf44D8pQJkSIJYbzDJbqxm1KBFqSn6VxlPcL5aFsSwziA4IKnGCou27fXmPn2lTe4K17bsBYCT51rWCp1sFZnRtT+ZoKs+TaU9eWqhvOsfqe4XpQ5xd1saY+Kl+1xPHrPgzpruMYVJnqfKEsXHs4BohR1MXYdWmKgeIJ0cpmuwRK95fddo/bpmuWJ76E+hZQuzFVFN7FJa+MoYsHd1C1ll1o2Pu/iB/XAsGpn0Zt385IFzfJXJr3eDe1y6plt27dZBPZpk2bCv2YWJWJgcjT/tgk96J/orIk4bF0E30nHcQPD/pZVvHXeIbgyVSGG77+yG8VZmwJbyJuRGEVvEQzdVHvENIpIaGbR4ivF9UP9qeZy7bSuatJhD6T7w3pLPLSjVX89b59+8rEf//9d/EzseGUYAqvjDLcGJQIwY1GVxyom4aKiyU8QLhJ4UZiyY0Q+SE+PKAoG2lwU9f1rOnmb+k6btS4GSJ/3WNSN3DsQzhM93h18zdWf3h4IHQgTNBsjSZVc60BYIWbe5Ro+sMNGt4bNZpdCUh4i3DDR71U3VAf1EOXtfKa6dbV2DrSnjlzRqbXFaXG4t/N/agrmrohZOAlBFeId91+gNbWD8JK15ure67VtQCvnhJghvLXveYNhevvM3ft6cdX26o++O6Yu55UGv0ljg/5qONUYlDF07+mVZm49lAujhXXHvYjLr4n6tpTYSovU78H6jcD17kSqyqd7tJatrppef3OCZhXI3deBudQAgTUF8XTP5B8AsOo++S3LM41ct9m8qhQmVoOmyT6TzpShbCa1PXJ1yxOP378eBo5cqT2Sd/ihMWIePCixos0pm0D2cw8uEUdwiCemKSCJ9PTcYkU7OcpxaGlwhIjxvFj9mSX5rKvIwb89BV9OM1avnD0cRf96USzt25TuNm0FkQYN24c4XO/Grxn8I7ghoQlxJ66oWOJmw2EEW4UuAnpGwQWmpYRbonhHKNM9BFEWcgTZasyLcnDUBzlGYF3DvlCnKiyEF+VCfGi24fNUF66+1A/CBTkhTKw1BV/unENraMu+Og2AyMeBA2aNsEWDHUNLOAxwvlA+VhaIw5RR2vi65ZdluvquoOQUefPGraG6gpBit9ieJPxkIIylEHogA3OBUQT4uEhQffaVWII+9VvukpvbKnqbuzaM5YO+5UHFdcBDHVRHlW5w8wf9JHE9YUlBJ8SdsaS4boAA3w/dK9LdQzqusT1p/89MfV7gHOIsvFgoI4F67oMkTe4K/FrrI68v/QIsIey9NhanTO+iDB4E/UN/SLjIg5Tn5c/k0Ep8ZfkEnFVuvwdyIDyxJdf2YYv/yuayutIEamEJNKjr6YlVih/SxLcQRw0O28+dZH6ifc64oOyZ288UGgAzXbxfsoudavQpyO6yx+U5xZsoPgU0033KWLkNvKZ0qMFfTVG0/R/XjS7/300knLzBzwaGvcYK0agY7T3jD5t5VFFJWhGZOafKvpoeDfC6HFleMdmamYWTfzJvMdR3YzKkq+qZ1kt4X2D5wwDOWC4wak+ULgB4AakmiQN3ayUAFCeD0vqDW8MRCiaulWZ6ONpzkydB9QVXk/cxPCB4dhUGjSvQrihv5jy4qgwU+XixoqRq8rAwFBfPxWulhCwuEmrEc6qTBUOBuAOtmCHuqj6gD9ErCoXQkH1g1Ppy3IJkaO8qyhXraOLgjnhWq1atUIPIvXq1ZOeMLwyCoJPHSPyhWBRTbSKBfZbY2CJ6wADW/BB/ZTHDRwxOAVl4lVaMJSj+vphG+cX9UC3DBjOtbn+jOauPZmR3h91fCgb14D6jiEaytPvmqKXXLuJ61N9jyzxcqJcnDfd7x/68qrrE99D1AUDuhBX1RMFmvs9AFsM+FHHgrS6fY7RpQFiWf3WYJAbvidsZUfATpygIvdRfCF0vwRlUZ27UWbv3r1p7dq1ZXF4JVaGu594YnRyphtXC0bSWpo5ZuSpXKM+JV2OogzRD9OWDR7ESl5uFCs8k7nih6MkLcjHk7LFj78lrxpS5Xq6OMt+lRCmJWVo7oZ3cseOHfT111+XVLY2mQ9uuvAy4KNvuGkp0aMbBm8fBBpu2mi6tNbgIcFNHp+SMghc1NeQ0IG3BGUaEsamykc68EE6a+sKRkhvTHAjDHUGRzDUrTfqinBr62vqWGwtTJ0vCAtd8VJS9YQwxPWgBlupfLEPbEtS0Khj0T2HqjxzS1wnON+WcoAXEMItIiJCHh+uL2uuTRy7sWsaYeBjjA3CDP0eqGPEcYCFsfQqHi/LngB7KMue+R2VeCdC8LYYgBN7ouC9i3dUkVJOjH6VGN396PerS1xQqpHa1hyCGoxjTRpzcZs2bSoF1rx588xFvefDTf34GxM0qmnLksE0hgAZE1mG4lq6DzdVYzd0CBZjx2Iqf6QzlqepdAgzJNCxH94zNHnDMwRvJOLpl1EafFC2LZmp81XcesL7CJYQabhGdQf6qDyLcx2otMaWd3Isxh7mjJWlu9/Ud1c3nu66qWsaYabyNMeuPFy3uizvpXUWlPfS2SpHdY1KSKbVR86WuJi0JYQffPCBLVXH5uqC5snTp0/bXL3uhQqhWRUeInhz0FRpaRPnvXBsd7uOaDKGkISohJg0J4Dudn2LUz6OCU3IEH9sTMBSAo7GOrAa229pxsWJV17KLA6b8pbmanoWLTsUSU7ipsjGBJiA9QR03/V5N35bra/xvZECff3wgaHp9X5lC+F8vx7bvXGl3Xu15FHe99454xozASbABJgAE2ACTMCmCDjq96tRtTO2X4WXxrK8lFka7DhPJsAEmAATYAJMgAncLQLsobxb5LlcJsAEmAATYAJMgAncJwRYUN4nJ5IPgwkwASbABJgAE2ACd4sAC8oyJh/coAW1Gv6ULNW/am1qM3Iy4f2Qtm5N+o4m1P1eML/QGtT6kWcKVRUzBfWc+o786IcViqi34VkxkDpPfIXs7B30QjSb4KLyxTzrltrdvA5cXJ3JQ8yNzsYEmAATYAJMoKQI8GuDSoqkhfm0HPok1enUh8KXfEcNegwWgnIKRe7ZRAlRERbmUPLRnN09afx362nFmxPp2vlTBgvo+tRrdG7nOrp88mCh8G5Pv04e/gG05r1nC+23ZOM/q0+Tk4sbfTe6LaUmxFmSxKI4NVp3p86Pz6B9i77VxscxBtZpSr4h1cTITIdCYdpIBlYCajWS4nT3gq8I7/HUN4hI5BtYtyklxUZZfB5L6zp4+ZNnKLhq4an2po14U1vtKW+Op1oNNbPWJCem0CcvfUsZ6ZoRq9pIvMIEmAATYAJMwEoCLCitBHY/RncQM+94B4SQu6+/0cNb+MIwSjcwuw7EFLx41lpQ3WZSTIoXnVHzgY/RtnkfWpuF0fgn1i+huNOFhW9SzHn6beoA6jvjf1SrnWbqRaMZWBGweY5GrL20LsqKVKUZ1Y4SryTRz/9bLAvJVfNKiq0OvVpJMbno/1aJWS/yaNTkQTT62cH0w0cLSrNCnDcTYAJMgAmUAwIsKG3sJHcc/xK1GvG0nLbrytljYg7uuvTlgPqyls8uP0pbvn2bTmxYKrfh4Vv97mQ6v3czdXp8OrUcOokgDnPFNFlRB7bRijcmCr2WS10mzaS6XfpTTlYm+YVUp+S4i8Ib+QQlXjxLk37ZQZ7Cwwgb+u7PMn7Msb205JWxcl/3ybOoce8Rcv3gyvm0/ceP5HqTvqOox5S3ycHRSW5P++usXP78dG/Kyb5NE77fKOsWuWej3I9m5rajp9LXQ5vI+kFE3s7MoKSYC9JjqwTliI//IEdnV1rw/GCZDk3NU8Vx7/79S+HVnUsjPllIoY1akb2DI2Vn3RL7Z9PePwqmLXxu1UnJLud2liirqczD3B94Lx+ft5k8RbO4SEyZqcn05zvPUPThXdqkoz5bQpVrNqBske/6/71CJzcu14YZW3Hx8KJhH/wqvZd2ZEeYj33hi8NlvY2l0d0/e/ZsOePJrFmz6Ny5c7pBJtezbmVRXPRVUdfsQvHa9XiAMtJu0p7NB6nPI91lWO1GNQrF4Q0mwASYABNgAsUhwH0oi0PtDtJADB7563eZA8TWsbWLKC0hXm47OrtI0ZUYdYZ2/vIFBdRqTE6uBX3dXD28yc3HT1s6motdPX3ktp2dPe1d+I0UYnsXzaEabbpT2zFTZRg8j96VgykjOZE2fv26WA+lNo9MlmEQpH99+Jxc3/Hzp7Rs5jja9E1BE+mBFfOkMISw89LxRJ7dsVbGTYw+J/NFOnxS4i9RSly0FIttRxc0g7cYOJ5uXImRYhKFVWvZRQqss7vWkW9QVSmEsR8iLrh+c4LIgzXu/YhcP71ltdzOSr9BG796jRa+MJxij4dTpwkvE/pMKoMQjNi6RstF7Te1RBP49UuRtHLWk7T89QmUfSuTBr/zY6Ek8OCu/3Im3UxJpAefe69QmLGNoe/9Is/hzp8/p+0/fUyVazWkdmP/I6Obug5Ufj4+PnLOW2tfLhxUJYA++f11+uyPN2nI431VduTl60lo5vb09qCegzrRtbhE8eJ4fqbUAuIVJsAEmAATKDYBFpTFRle8hBCRG4QwgaE/4rrPp1NmWorcrtd1gFz+IbxY8LpF7t0kty35Aw/f/mU/CAHTSDYlw0sZWKdJoaRLXhlDh1f/SlcjT1BIw5YyDF6zS0f3ynV4RKOP7JbiSiWEODy/bwvl5hT2dt28kSTjwpt3+9ZNuY608AzCTqxfKj1zEMk+gWGyWXz/0u9lmLtfRdm8DuF39O8/pFew0UMaL+iBFRoh12LQBBm3Wb+xlHrtsraP5cq3nqSLB7ZTaJM20tOKSMH1CwYLRe3fStcuWNcfFfwXTx9F6devCS6t6MbVWE1zvKyB5s/OXz4XdV0gzx1Evk9AqE6o4VUI49TEeIKn0tXLlzAPe6New2VkU9eBym3Lli0UHh4up85T+8wt9287Qgu+WUF/zFlJiVeTqFPvNuTr7y2TOTk7Udat2/TEjNF0LT6RDu06Lr25dsIry8YEmAATYAJM4E4IsHviTuiVcFp4FWIJPv8AAEAASURBVNGMqwZ/XD65n2p3eMiiUvq8/Bk17DmUbqWnCo9hAtk52BcSRVliQAnyhsFT6V05xKJ8ixsJTdQthz5BD4hm+Aqh1WUz+HHRtxEGbyUsrGk7KQbRLI+6H1nzmzz2hItnhPAaJgcuVapZv9AAmvHfrZPdANCfMysjVebj7H5no+Th6Z289JBsvk9LuCKa3F1kvmqJDdX8ffHQThlWq0NvOrD8B7lu6A88wmg+dxYj+FWfTTTxZ6ZqHh4MpdHfN3/+fP1dZre3rNbUDxGP7jtF7//0CvUa2oUWz11Nt7NuiwE7AcIr6UTvTf2SujzcTs7Vy/P1msXKEZgAE2ACTMAMARaUZgCVZTA8hHU69pGvqMnLzSH/KrULFZ8r9qkm7qB6zbVh9o6OUpAdW7dYejzRPP3CP+ekoNFGMrUiBsbAVH9IU1H1w/IoT+imoo5uCNurkSepqXitjqu3L0WF/6tNWqfzw7LpGwNzYGhiDqjTWBuOLgHon9ly2JMy7/DF38mwgNqNqWL1eqJ/5xi6eHCHbDYf9v4vBsvXZqa3kiNEtZ1D4VcAtR83TR777IGij6QI7/3Sp9KTqHtcKBt9TpXXN/pwgXBDEeCg2z0hVQhT2CXhtUUzfHGsW7duhGbvTZs2UWqqRjxbk89t4Y2Eefloug+kJqeRt58Xbf9nr/ReQlxCZOpau3btyN/fn3bt2kWYy5eNCTABJsAEmIAlBIoqAUtScZxSIQBBCK8WXsWDfoG12vcqVA68Z/W69pfNx4ijLC8nl3JEk7Sbt5/sb9h3+udWiSw0X6OpurnwHKJ5VldIqTKMLdGP0bNiAEHg6r+rEX060fcQXjo0GcMgfiuIgUEnNy2nuY+2l59/PnlBCrqqLTrKOBCU8Fp2EEIvKfaCtkuAapr19A+UzejdJ78l41vz5/TW1dJz26DnEELTO8xeCEw7e3vy8KtEVZq1p7pC8Opb21HPyjIxwAms9F+vdONKrPSq+gRVkecADwToT1q9VVdxHjVeZvQbfWDIRP2sjW6PHz+eRo4cSVWqVDEaRz/gkacGUOWQilQpyF82bYPZ3ws1XScwGAcWH3ONAkMrUfW6Vejs8Si5T/1BmWPHjqXGjQsEvgrjJRNgAkyACTABYwTYQ2mMzF3Yjz52l47uIfQfxAfN1Lp26M/51PmJ/9LTC/ZKsYIwCC98joi+kc0HjafnVp4oaDbP9zxa0qR5bO1Cair6K05dcZwSLpym+U9pRNCL6y5oBSZEGD6XTx4Qg3+GyKod+vMXIXIH0JgvV0gxjFHeSmxFbPuL+giPX1ZGmvRWIkH9boNkPCmeZQ5EZ3esk8eAl4TD84j+n+jbCQ+m7GOZHw/74iIOE5r3YRBsMBw/7KEXP6HG+X0xsf3S+otY0P+NbqMd+IT80dez78tC4Aqx9ePE7rT7t9nU8MFhNOlXjdcx+XIU+QZX07JFHhCfGBEP27twjlzq/tn2wwf04H/ep0k/b6er507QL5P70rJXH6ORYnT4oLfmaqOe2rxKu25uxZLzpp9Hm+4tqK0Yza3sWPhpirt0VW7uXB9OLTs3peGT+snttJR00ddSnDcdc3Z2llsJCQk6e3mVCTABJsAEmIBpAnZhYWGa9k6deCEhIRQbG6uzp/RX70aZvXv3prVr15b+wVlZAgaxoPkUzbv9/jubPu1VVZsD+vV5if6PeK+ivuGVQRXCamoFnX54WW+7+/jT5MUHaK94wbh63VBJ1AHizlEc642rl0siO20eYJd+/arsh6rdqbOC1wYli0FKEMjWGGbp8QkMlYOFVP9Ya9JbExceSTRlYzacmAtxchCOfno0gbu6u8hR3rph3t7eNHfuXEpMTKQpU6boBvE6E2ACTIAJMAGTBNhDaRLP3QlUnjcISn1DHz9DYhLxDDXF6qcvq+1ez38gvJED5WCcPeJdkSVp8OSWhuHVQaYMfUKLYxCp+JSFwasZG6V5DZWx8lJT0ggffWvTpo3c9cMPxgcb6afhbSbABJgAE2ACIMCC0oavg0Qx2hlNtPeiZWWk01kxVeMe8fojvFaIzfYJbNiwgfBhYwJMgAkwASZgLQEWlNYSK8P46IuIEc33ov079917sdpcZybABJgAE2ACTKAYBHiUdzGgcRImwASYABNgAkyACTCBAgIsKAtY8BoTYAJMgAkwASbABJhAMQiwoCwGNE7CBJgAE2ACTIAJMAEmUECABWUBC167Fwk4ON2LtbaJOtuLKbxdnIu8Ncwm6nYvVMLRnrug3wvnievIBIpLoLjfcTHzMTk7FfO39R6+p7GgLO6VVsx0wQ1aUKvhT8nU/lVrU5uRk8lJzCRTUoYZdlo/Yv1Uf5jlpv2jz2tnj7nT+tTr0p/qidcGwTBbDF6aXpKW22QEZb10lrJejqQ8r0CzWdsqd0MV96wYKK8Lr4pBclYfXCMVq9U1FLVY+yAkDy+IpajVl2jR+5a9zqjlsEkU0qiVLA8voK/Ruluxyi6LRKV97fUK6Ul/9lpGa3qtIH9Xf7OHVNrXntkK2ECE0mLQNKwyNasSII+wbmAFalczpNSPtouYYapaRR9ZTpsawVQ30Pw1YK5Spf2dN1d+SYaX5vfPv7KfnAXMWH09vT3I2cWwkwHv5vXwcjeW1OD+z9t8TGt7r6Y3mr9qMNzYzlEPpdG5FTF0fmUMDeleeIISY2nkfkcXynoxgrKmn6ec1pNMRrXFQBaUZXxWWg59kjB9H6xBj8HU6fEZ5BMQWmK1qNG6O3UWeVprzm7uQlBOo0AxZ3VJWLdn3qTu4gPrNGE6FWeaRFP1yGk7mezP/EPOH1Unu1TT711EPrbK3dAxhjZsJa+LsGbtxEvsg+V6wweHGoparH34gavgnUt9ngukQS9pbsbmMur65GvUOv9BqMeUWbJO5tLcrfDSvvYeqTGMdl4Rsy2tG0iJmYlmD7O0rz2zFbCBCKXFYGKnpjRJzP4EG9GqPk0WM0XBQny9aPEzgwoJTA8hNLDvrYEd5XKqzoxSj7SuT4ue1jwAP9ezpQxH3J+f6EeTu7UgRzE1q7IpooyHGtWQm1gf2aa+Cir2srS/88WumImEmP6336tfF4lRWt+/z/54k177+nma+eVz9OEvr1KPQZ20ZUMozvruJXrnh+n00a+v0VOvPqoNw8qUN8fLNO/Om0FvfvsCuXu4FQo3tvHc7hfojQNvU/uAtlTJVTNVr7G4uvt/+8eT6g8LpdSbdvT0kFTdINPr2bfI+eOa5HDgZ8pp96zpuDYYWvAtscHKcZWsJ3Bi/RJaME0zLaI1qfHeyIUvDKdLR/ZYk+zuxXX1IbtYMTd1Xs7dq4NOycXlrpNFma3WDM2mbIHtxHnDT/JlVpF7tCAPJ086lXSacvOn/LxHD+O+rnZscipl3s6m1jWCtMfZqrpm/cqNDLmvY+1QgsiEOQi3PWaZguHvTZF2+pIttHjfKepUJ4ym92kjw/hPAYHAOk3l9LgFe0p3ba04H29P/pzeevozihfTyfZ5pBs5ODjIQh/9zzDy8Hanj1/8hg7vPk71mtaiVl2aybAOvVpRrYbVadH/rRJTza4kX38fGv3sYIsrezL5lIzr5eRlcRpETM+0owuxjuTlbm3Td564t+0X/ZGsK8+qypVSZO4EVEpgi5NttQc60+C351GCeKF5QM2GlH07i9Z+8iKd3rpam91zq07SqU0r5PzZLp7elBR7geZN6CrDEYYfRcyY8/VQzVO7ShjaqDX1f20OeYhpC2EXD+0Q77jUNEM/+s0aOWUj9i+dOY5ij4djVTZxDv/wd4o+tJOqt+4qpyTc9PXrpOajxvzXmBHHwdFJzr3tX60OLZkxWsz1LYSeGfPy8qI5c+bQrVu36IknnjATu2hwnoMz2eXcLhpQjD2lyf2BIROp4/iX5FSamKN894LZYu7wL2UtH3rhYzk3OvhhJp3Fgl3ixbMWHcG0adOoRYsWtGbNGlq0aJFFaVQkl+L27VEZ6C3RdWPkp4vJzaeCOI5rlCvOy0lxjW7/8WMZE57q6qKJPFVMlQmvK+zvj56X11G7sf+htqOeJUwbmpmaTKtmPSXns0ec5gPGUbuxohuGr7/IM5v2L/2ets37EEEUWKeJvJ6Vd//yqYPa+eVlBBN/7vTacxJ9J7Pzsk2UYF0QphId/sFvYqrVuuL7ay+vhbmPdpDf42eXH6Ut375NJzYslZn+Z/VpWv3uZDq/d7Pcxnc3LSGeKtVoQN7Cm43fjLlj2lFGSiKZCjN27aFbg6nvPLrGYDrYWh0ekt97TCW64o2JlHI1liZ8v1HWLXLPRlk3dL1pO3qq+C1qYhGQ2bNnk5+fH82aNYvOnTtnURpTkY7FXKNGIZW0UVpXD6aUm7folvgeYkapjKxsGik8k/O2H9XGUSu5uXkUlZAiP+5CdA5vWY+8RJNpamaWilKmyxGfLKRQcW7sHcS1J2ZL2y1mH9srJo3A7/qwD3/TiGHx249Z1PB9PLTqZ9o85y3C+Rr63nyq0qw92Yt13C/+eHE4YbaxkIYtZdpvH2kpp5Ot3bE39Z3+BX05oL7J3/4mfUdRjylvy/MPCNP+0vxm/fx0bzI32xjiF/f7t2H5NiSXdnjPCaoqHggqBVWgeHGea9avSueOR1GcEJr+ARVkHAjJ8K2HqZ3wRGek3aQ9mw8KEdpdhtXO9zBrcjP9NyffaeFkb/0DeG6unRC91gpKUZ979GGVPZSmr6USD8WN4chfv8t88cN7bO0ieUPADmd3D3lj9RZzda//ciZl3kiiXtM0N1BVEWcxx3fTh8dIAfePEJtxpw6pIPrznWcoYusacvX00e7DCvpoDv94gcjbiTZ/O4tWvzdF3KALPHsbZ79G6z6bLkWPi7unNq2zSIe5w3HzXv/FK5STlSWar2dow3tOfYcykhNEXf9LPkFVZH8/Z3fNU1X40u8ofMl3Mu6hVfOlGNAmFCv2ognJSdTHw8P6/qN5lerJpze7+CO6WZpcvxvcq7boSN2efoNSxPzfK996krb/9BG5eWt+7NoIEdW49yNCVK2kvz+eRvZCVD48QyM0488ek9dFfMQRKS5wjZzbtb7Q8eHGC36+vr6F9pvbQEfx7q1uUnKq5sneXHwVfmTNb3Rs3RK5uX/Z93Rw5U8qiHq/8Im8xnBtpV67TF6VggnzlyuDYPILqU6VazWknT9/Lm6E3wjHcq4QQfWpw7gXpIjeMPtVKaaGvFuQb2fRNeR6TCT99mx/2vjV65SedE1lST2nviuv10Uvj6Tlbzwuvg/HtGGlee1V86pGHo4edCbFMuGPSpm69hA+6rMl5F9FIwIWTx9FSZej5PWAMFcPbyHU/bAqzcnFrdD328OvEtVs96CcjWrDV6/R2R1rxZdL42kzFmbq2jP7nX/2barbpR9F7d9KqOvpf1eTuzjXuMZvZ2YIAfmsqiq1GDieblyJITxImWOARD4+PvKadnFx0eZhbmXZgQhauv+0jLb2+HlauK9getQdZ2PIx82FPF2cZXiDYH86eDFem+XSA6epZ4Pq5Oxo+rtw9JLmugur4C3TLhHl7ThzSa4vEh7Mv49GavMs7oq573xW+g3xHXhNtiLhgb/ThJcJ/eVxz8Bv9PafNA9vbt5+8kFN9VnvMG4a4YH59JY/aZd4kMXv9KA3v5fVdBa/9bieIDRhuNacxP0FZuo6wDW2TDgeEqPPid//RLmObTVlcGl+/9DM/fRr46jf6J50LS5RiknU19HJkWKi4qhZu4YUKjzRN5JSydtXcy/zEsvkxBRC/8qeIj3SOTlb7ku7mX2TbtxOlc3ewo+N4iy2A6edqXKFHAoNsO4B1C5O3NvEg2tu1fYWl2ULES2nagu1vQ/qABGpnuDhyTPkzdsx/1M6+vcC+WUd9NZcOVBGd/7qhKgI7Qw6+KFWhh953Jj0DcIFXrCVH/6HLoT/K4Mjtv2ljRYXcVjeuLU79FYw6w08ThAK7cY+J0PxY4YfH3iUog5sEz9qroX6ScKbpOzYusVqVbvMzMyk8PBwysjQND9pA0ytCK/k7Sl7Kc/dnxz+/ZDs4k+Yil0o7G5wx407Tzxp/vxMX/HAWSDgUbHm/R+VnoabKdepkpizHec0rHEbKcyShaBY9/l0bf1119XO7du3U0pKCh04cEDtMruc/VIiDeySQTk5djThbcv7AyFjCD5lyvOotivVbCBuWKvo4Iof6eSGZQSvmiGD+MPsT8oefO49ubro5Uek9xv9eLtMelUKz2vnT8sbJX7A8dCC74OuwRsKb/z/t3ce4FFVSxyfkEoqSegh9Bo6AiHSm4BU6U2lWgB79ymKT7Eg+kRFBRVQOiggRYqASO8d6T2EhBRCCul58z+bu2w2u5vdFAjszPft7r2n3XN/9+7u3Jk556QlJymLpmaxQ5nCuPdgnfi13Swq4eJDs07PoXO3zht2x+K2pXvP1cNLKQb4HsOiBLl8aIf6tPYtPS2VZo3pqIpD8TcUU3mW7j2trqnvPPLqdOjDSmKoskpi37Cvx9cvpYf6jVbXDQ8UGGiC3zKIJQaqAL9t3ryZ/P39KTw8XEvK9XPLqcv6MnsvhOm3sbGP17SHJRJu78NsuXJ3caatp6/q3eBrj56nocFB9FiTmtnqGe/cYqsmxD8r7m7JXp0Ci7TVBaBMop3cvvN4IIU1vg7H3d8Mu0SVqBWVr9OEbrMlGoJ7vmnfMcrQgIfUIL5OkFptulNSfKx6aMV+xcYPU/naTbBplZi6D26zoePy4Z3Ko+Dk6qa2DRsrjO+f1n4QX6uK1corV/fRrOugDcJJTU6lwRz3um3tHqpcK5D8Suketp35uqdw3hj2AN24HkWHd52gR/q1Vb8fuD+skf8enEz/afQm9arUkz4/8iXHUFv3Hf1uqTc90uI27fgpjG7EONJDj5e35nDkcOsaOa17m9IG8fc5OY6cf+pMDvERVtW9l4VEobyX9M0cW1u/G25pSI2WXcnwj+Lszg1mappO9q9YnU3omXpl0nQp86kXWFGFxLFbCy45SHW2ikAuH9Z9sa4e3a32rX2Dq3vq1KnWFteVY1eq0+InKb3xcEpv9yYVO7KIHBJ1P6i2NWS6dEFz9+I/VLgjjZVJHN3Vi2NAWSHSOCIN7ih3VpRi2Y2Ym+Rl3e3/LfChM1ec6cUht+jFobG05YBbbofJNR+KHSwkocf3qbL484ISYyxw0xkqk8jHAwrSkxN0Qesaf7+AqhRx9jiHBkyj4CHj6am5/OfF7f752cv6h7GN305U7rlhX69Qx9uz6Du2flp3P+Xl3kvLSOPg/EnUPbAbjaz5JK27uoFupsQan6bN+6Wq1FF1sO59XiXq4mmzVU3lWbr3tIZMfeeR58xK/7ldG7Vi2T53zvuKB7+NYaVyLPlVqKKuyzGO6bZWZs+ebW1Rq8qlshfmakw8IXayOFuw0tmNfTz0hl6hxP6qw+eoB8fbrT9+wWybPu46i+mNeBsefs22lreMET+sUzM9JLCrOiVR932BdVIplFlKUTqHhaSlJquHLP5xUQdy8yqhtxwi4frJw8pNbm0vzN0H1tY3VS4v3z+tna8n/qQ2ew5/hDr0akkHth+l0KwHifY9H+bzT6PfZ62hN7+cQClZ4QmpKalUvlIZtko600fPfUVtu4eoBw1rlUkccHTNERTHVsopR6bSqVjz3zetn9onlMkq5dNo5VZ3mrNKZzHV8ix+8mjvtM4f8MDT9eS4+3v+n4u2WLyoZIrLu6hcCYN+lK2li38sx65miLGyBjeDLQK3E35gytXSBSnbUhdlMw3c41pdzdKJ0YmQcvy0bIsgmLpPnz7UrVs3G6pxsPL1I+S09i1iPxplVmlrQ93cixY0d1gfPXxLmzxwKg+CQszgT6PaZ3tpbiOTlQwSGzRooPhVrVrVINXy5nkOEP96kTet3lac6lfLqfRZrm06F+cIBRLWEgjcaLCGG0s6K47GksCWRyijiJ+ElM26P+MidZamHb9+SV8+Wl2FC8Ath3hdTWCRRJzwL892o5gr5yiEY/XgvrNG8nLvZVKmcnN/dfwbQkxVk5K23e/m+hUdqrN0VmzU0mSRDLZsayEs5Wo3NlkGyrY5MZVnzb1n6juPY8AijNAFU4IHg4hzJ6ghTytVo1U3urj3b1PFzKa1b99e3dOIsSso2XU+lOqU86emrFSejYjmq5hdlh04rUZwt6peIXuGwV7jrGmJrkbrFDmDLJObfn5+1KNHDwoJCTGZb2tiGZ55oyR7MZa8NZy+G9yUNk5/XzWhPdxbai+FH069/O9Mq1aS49wRjwxJSYxXnwhJgZSuXk99Gr6Zuw9QBt8Ja/pg2B628/L9M27jnzW7VFJjdnFDoEi6cnjD7C903rASHJ5w66bu/OL404XDHmC5jIqIUcollExrxaWYC9UuUYtmnPyR9kcepPjU3B/4tbb7tEugWwnFaPyn/rTnuO7BRMuz9JkRGKxc3k5rXiGHsEPq/85S+aKSJwplUbkSBv0IGfa8cm+0Hv2GsuBYO1DDoIlsmyf+WqYslF1fm6qecuFmw0CR/AhctLAudX5hsppnEn22RTw9PWnw4MH0xBNP2FJNV5b/0B2SYimzgEfBFTR3WGeKOTlR9zenceykrwqWb9z7SXUO5/ZsUnGGmN8RZfwCqxGm5rFW+vfvr/h17qyzFFtbD+VCbzhx3JTxX6stLWQvG3nhJA8S60k1W3ej3hO/z55pYe90VtgFBoj4lA2k5gOfVvF2108fUYppyydfUQrnJQ6pwKAlKDOaYDAP5umEazyMy0PxQniBNZKfew8ju+NS4zmOUhdrZs3xLJVBKAtciPW6DKDqD3dRgyhaj3pdnTfqxUeGK7ZwH2OaloKQ/Nx7V4/uIX++VzHgBgM+MOcgYoU12b3wW/IuE6Bi8Lb/8oWWbNXniBEj1D1dsWJFq8pbU2grxzrC1R3ESuWOs6E5qmAk+N8nL5GvR3ZrfTGOQ63Ocx7CHd6rUQ3az7GX8ckpOeqbSqhbty4NHz6cRo4caSrb5jRt9LknK4b4ntgyBduVI7vUoDaEPWEAT0D95nqLpQq3YusmBsVhIE/t9r1s6htiOT1LliE86OBesFby8v2rFlSZegzrTL48/2c5nnt05CuD1OHOn7ys/4TFMT42nkJ42icolzs26LwmGIwDweCdshVKURWeR/TMsYsqzZo3Fw61gkQlRVtTPFsZN144Io4VSpsF/21sNKEU65VXm49RCBXE5V0IUPPbpCfHH439dbtqZtf8r3M0Z+qPs8srU6h+l4H6sq+uv6S2vx8aTLD4bJz+nhogMmLGepWOmB3ENyFgu//Hv+rr9f1wttreOmsKhfPgEIip4yF9y8yPVJv9PpqjRhciDYH51ogt7gaT7XFcSWZpnbvQZH4eEgua+5E1CzhmqSXHnfVWL3TpWFY86QYeyARrAZRITZGEdRIxS9aIxk/7tKaOViYqthhhHEJAqXRWLq3/I9DqG39u4AFkGIXa693vldUVgzBMWSSN68HKjdg6zMeKF8IycJ9ilgLMYIABHtqDCu6r1RwDrEkjnigfA3pQBwPMMPALDzjWSF6YGbabmJZIVb2qGCbla/v3d0byyOq5hHhpCPjtmqf73h/8Yza1GfMWPTN/t14RyPF9ZAZmxUSepXtPY5PjGFkHWDV5Ag2btoLajH5TvcAfg/w0QWx2N74OsH7BWmmLaMe2pU5uZa/HJvBo7lSlVGKQDsQYyQIeWNOBRwlrihtowkU+mePsMH0Q4jRn/nNY1bXmDYOLIDbFh1toGA9YiHPvxgYBiObFwDXKxgwnxq/MjDsPVojLrcS/QXhog6Qm36ZVk59T26h/bvdGNdNEUKe+akAdkW9Wnu6eMncfoNDBP35Rs40M+4oNFuwBwyhv47AW1ZjRW7Y+G+WZ2/XkeSbh4u7Ic4hCUli53735AJ1gCzNk7rTf6I0vxvNrgto/d+Ii7fn7oNrevn4vNeW5SgeM7aH24/meWDCd+2ylVPGqrErG84OkLYKxcRXLplNYpO2/sZmlg1TspC3HKwplHQIDA3P8GgUEBFBoaM6nucLs8L04ZteuXWnt2rWFeVo2tQ0LD/6Uv+xegwfXVOfg68t6t4RNDVkoXJoHUOCP15rpHSw0ky0LLstGPMgEE7Z/0a1atrzC2sEqAukd2GLDE8E6f98yXwHLhc0dfMrUqKeup+HgKrDBCPzSPNoZI3uN8wqLXckS6bRrVphaGmz7YTca8p9SBXIonKcrj/IftwRT+DxmcsCZqQPBYu5XoRphpKthvCncabCcwKWO6VCMBYMUEMOJP9y7KX0r96Gnao+mlIwUGrFlLEUn2265MNVf7XzCOX7UkAPCArx45gdTDEy1Y21afu49uOFxbSJ4kBWmDtLE3cefxi3eT7s5pnXrz59qyXb1OXHiRAoKCqLPP/+c9u3TWckKAgBc0078HbvF02/ZKphSCjNwwLNkLLB+4yEO4StFWTAzSJmAkkqJhrXRlJTm/ASeZzQhLqdhw8vHk9w4HhajvK2VT5p9SI38G6pwlxd2vqLc/NbUHdApgT5/Qcfz+c/9acUWKz0abA1NeYEfXlx4xped35LjlvvrOyQKZRFVKPEFL+oyaMoiZUlCnBZiKTEwAyN275o4u1Omhz85xPIPLLvB8yqGCuX9wD2v52lYD0/P2lQWl6/nz1EB13TdTv14GpEz+uUZp/XmJ+wHWNwc3dSI74gknnfTSlf7A4xDnRpiXOvwcquYAuubvg2UNexBP2dT5zdz5kxKSEigF1980VS2pN1HBEry6jgp6clq2iBbuu3lkUEVy6QT4tZvJ/OPrQ2SWYKt5YmR9527G6eYv38SGyBJ0dwJYF4vDDaAy+t+ELjj6ncdzJPtOtKy90bneRR5ns81NZEcbuZ8ErW1vfuNu63nZ6o8D3Cl/CqSWrunt65RMaAefqWUVerQyrla1gP7mZSeRNdv34npfGBP1IYTw2pbGK2+iyfchmvVXmXs2LH2euoP3HlHJrFilwdB3OTx83mIneRjOdy8lIcjFo0qYqEsQhbKonFLSC+EgBAQAkJACAgBIWAbgbyp0LYdQ0oLASEgBISAEBACQkAIPMAE7NrlXbZsWcJUFaakoCfZNXUMSRMCQkAICAEhIASEwINAwK4VSlzAn+brZt43vJijh4423JVtISAEhIAQEAJCQAgIAQsE7NrljXWCHR1snyPKAk/JEgJCQAgIASEgBISA3RGwa4WyTHJpWtt+JS1vs4Tql6hndxdfTlgICAEhIASEgBAQAgVBwK4Vyuuu4fTo370pPCmcelfoWRA8pQ0hIASEgBAQAkJACNgdAbtWKHG1UzNS6dStM+Tt7GV3F19OWAgIASEgBISAEBACBUHA7hVKQEznVVacHOx+fFJB3E/ShhAQAkJACAgBIWCHBESh5It+6tZpquVdk3ycve3wFpBTFgJCQAgIASEgBIRA/giIWY75bYnYSq1KP0xLWy+kk7dO0SE6lj+qUlsICAEhIASEgBAQAnZEQCyUfLFhnQz2b06zzv9Cn534wo4uv5yqEBACQkAICAEhIATyT0AslMywZakQupJ4heZfXJiDaEhICPn7+9OOHTsoOjo6R74kCAEhIASEgBAQAkLA3gmIQsl3gGsxV4pMjjJ5L2BpRh8fH4qLi6MtW7aYLCOJQkAICAEhIASEgBCwZwJ27/LGajlVPauYVShdXFzU/REZGWnP94mcuxAQAkJACAgBISAEzBKwawtl6ZRS9Gf7PxSc787MyAHJ29ubihcvTlFRUXT8+PEc+ZIgBISAEBACQkAICAEhQGTXCmWUczQ9sXMURafEUFpGWo77ITg4WKX9+OOPOfIkQQgIASEgBISAEBACQkBHwK4VynSHdIpIumH2XtiwYQPhJSIEhIAQEAJCQAgIASFgnoDdx1CaRyM5QkAICAEhIASEgBAQAtYQsGsLJQCNHjraGk5SRggIASEgBISAEBACQsAMAbtWKGfPnm0GiyQLASEgBISAEBACQkAIWEtAXN7WkpJyQkAICAEhIASEgBAQAiYJiEJpgAVzUjo52LXR1oCGbAoBISAEhIAQEAJCwDoColAyJyiS3z78Ff3Z9Q96ru4468hJKSEgBISAEBACQkAICAFFQMxxjKGeX12q5l2Vnvh7lMVphOSeEQJCQAgIASEgBISAEMhJQCyUzKRM8dJ0Oz1JlMmc94ekCAEhIASEgBAQAkIgVwKiUDIiiZvM9T6RAkJACAgBISAEhIAQMEvA7hVKRwdHCinTgq7EXzELSTKEgBAQAkJACAgBISAEzBOw6xjKQVUH0BM1hlESu7tf3f2meUqSIwSEgBAQAkJACAgBIWCWgF1bKNeH/kWfHP6c0jMzqFfFHmYhSYYQEAJCQAgIASEgBISAeQJ2rVDGJMfQ1uvb6LcLy5Tb2zwmyRECQkAICAEhIASEgBAwR8CuFUoNSlRyFLk6umq78ikEhIAQEAJCQAgIASFgAwFRKBlWfGo8FXd0I29nLxvQSVEhIASEgBAQAkJACAgBEBCFkiEciT5GN1NiaXHH+fR07TFyZwgBISAEhIAQEAJCQAjYQMCuR3lrnBLTEmnIpsfJx8VbS5JPISAEhIAQEAJCQAgIASsJiEKZBSqTMpWV0kpuUkwICAEhIASEgBAQAkIgi4C4vOVWEAJCQAgIASEgBISAEMgXAVEo84VPKgsBISAEhIAQEAJCQAjYtUIZEBAgd4AQEAJCQAgIASEgBIRAPgnYtUKZT3ZSXQgIASEgBISAEBACQoAJiEIpt4EQEAJCQAgIASEgBIRAvgiIQpkvfLZXLh/UhJoNeFpV9K9Ug4IHjyPn4h45Gmrw6FBCWXNSzMmJ2o59mzz8Sqsitdv2pNrte6vtKs3aUcMew81VtTrdu7grdahTiXz409nRUW2X8c7ZV6sbvA8Ktq4ZSJVL+pjtqWMxB+rZqDp5ubmYLWNNRhU+RusagdYUtalMtVIlqH/T2upVL6BUtrqWjolr3aNhdSrm4JCtji07fh5uVNzF9MQRTsWKUYCvF7k4OdrSZK5lcT86ctvG4u7iTOVKeBonU0V/b2pfu6JKL+3tru7pgu5TjoNKghAQAkLADgiY/vW3gxO/V6fYtN9TVLN1N9q75AcK6vgYK5Tj6dyujRR58VS2LrV7+h06u30dXTtxIFu6tuPi5qEU00sHt1NCdAS1f/Y9cuA/1pObV1Drka+Tf+WadHjVXK14nj6hgDzTrjF9smYXXYm+pbZ/3XmMVh46S1BWJvZqSS8s+IvCbsar9uc/3YtWHz5HC/f8Swt4+4cth2jjiYsq7z89Hqby/Ac/fu56td/3oVo0uHkdtY23//y+hc6Ex+j3TW1AqZ33VM8cWbduJ9PTv6wze8zJq3bSl0M60pfr99LOc6GqvoerM80a1Z3mbD9Kq4+c07c5omV9+ov7fDEyVp9muOHCfXg8pB6dDIumuKRo1W5AiewrLB26HE6TV++kGU92pRLubobV1fYTP66iljUqULtaFWnrmSs58vOTUIKVupplfKluQEnad9GLjoXe0Ddn6ZgBvp70xMP1aP3xC5SSlq6vY81GKS93+rhfW4JSCjkeGkkfrtpO6RmZrOw50Ktdg+mhSmX1TU2Yt56aVS5HTzLrraev0Ncb9ytF9texPdSDy8DvluvLmttoXLEMvd6thWofZZbsPUlL9p1UxT/p346qsmINSU1Pp39OXVH3IvYfqVtFvTafvKzvA/obfisB2SJCQAgIASGQRwKiUOYRXGFXW/hyf0qIiSzsw+S5fXOGLGvT/zx6jnafv0YV/bzppUeaWdUPKAcvLdyoL1uaFZm3uofQ3ovX9WmGG1pfQm/GUVJqGjWvWk6vUDarUk4V3XFWp2Bq9d5c+jclJKdqu7l+OpADXYq6Rf/bsFdfNj4pRW3/5/d/9BY51qvoo75tKZaVX/SlsGQ/s8Br6qCOhXWIHO1O6PgQOTkWo7Gz/1QWwHd7tqQu9arSGlbUBzarQ01Y+Zu6bg8duBROQeX9KT4plYoBCEvzquWJWKF8qHJZpUzmaNxEAmq+3KU5nY2Ipg9X7iA8nAxoVpu2nL5MEbcSacXBM3QxKpai42+rfgwPqUvrWFE295Bg4hCSJASEgBAQAjYSEIXSRmCFXbzDuElUv+tAdZgDy2fT1p8/1R+ybuf+1PmFyeTk7EI3LuisMfrMXDa8vLxo+vTplJycTGPGjMmldOFn305Jo9CUOHJhRcRQXuzcjFzZLfrpn7tUMlywP7Clb96u4/Q3W5VCY+L0xVEWyt+P/xzWp5nbOHr1hrKqavnNq5RXyl1MYpJKeo2taPUr6FzEi9jCami1hLLzfKem5Mb9OnEtSmtC/5mUmpqtX1rGjbhEbZOGtairzgvWXk3gqp3Mlj24qS+wRfSL9XuUQoR8T1cXeoWVptrl/JUVLiw2nl5euIm6N6imXO7e7HIPZ+UJFkC436GwHb4SoTVt9tPSMVHpDbb61WPrZhJbKb/asI+VQJ2yDmvrMbbkNWUWDnxNft9/ipYdOK2OU7usHyuP5xVPcEZfYX2FQgmLIKyBe/jhAWLYRzwgpGdkUN3yJVW5q3xtK7BbXJNfxvRQx9L2b6ek0lNz1lIdLo97ZP7uE5TM/VzM1sk+jWtQp6DKNH/XCf1DA+ptPnmJoFDCoi4KpUZSPoWAEBACBU9AFMqCZ2qxxeMbltLtW9GqzLldf5F7iZIUH3nHwrZ/2U90cd/f1GviD+RV8o6bEBU6PfdfSmSr5a4F31CbMW9mO87epT/wn69OOTu4YjaVCKiSLb8YKy/Ozs7kxLGX1gr+4KE0wN0dx1Y3bB+xQmnR2h/AsXwdOQYTEsiWSLimc5Pj7KId06ahUhigLMCSiBjOg2zdMhQoD5U4Hu69FVuVUqLF0Zk75rYzV1VbUNTik1OUpQwWUk3m7DhKXpw3sXcrvetWy5vQ4SG6wcobXKqjWjXQkvWfcK/CzarJ9M0H6DJbLTUp5+NJvTjucsWhM9kUT7jdoxOSOIRgH03o2ERZ037dcUxVe7tHiDq/xXv/Vcz7NKmplEcfd1dy5zhFuImh5G5hdy7c1cg3VNa0Yxt/WjomyiLO8QsODRjE4QjPseVx5M+rVRO4BsFs4Z2x5bByXyNcYTnfD+58DlAwr8TcOd/w2ASqkuVyRl8Ryzj/6d6UkZlB/5y+SrO2HdF3a9e5a9SNlWQofAv3nFCKt5b5wR/buW0eOcj3NXgkpepc8WV9PFQRjTGUUijAhvG9aA8W6RZsAU3j/H/YtQ7Zfvaq/j48yvca7mlr7ktVWd6EgBAQAkLALAHrtQuzTUiGLQSgROIFQXykcYxkbNhlwisjPbtbtET5yuTs5k7L3x9Llw5sU9vtn3lXf+h9S2fqt4+uW6zf1jaSkpJo7969lJh4x2qm5Zn7jGKX4QK2AmliuK2lWfrEH/V1Vi4ghn/2lups4T9+KJQYHINYRli4oNjCVawJlMJRrRsQlMR/jSyG5o65j93AmZmZSsmA4oVBG1tZudEErtIISqS09AwtSX36exYnKGEfrdrBLtYYpejCxWsoKWkZrHTfsZwmZyk+WpnXHw2mmMRkWsDWM2P5HytvUHgwUARKEMTN2Ymql/alP1gB1ayAsEBqEsnXBecOhW8HK0iIl2xiEKOolTP3aeqYWlkotFC0b3J///tYa/LlGFDNiotYxC2nLisFt0W18lSN+5jAVkMILM6a4EEAA10wEAfKJiyY3/19kK3RjjSar9uZcN0DFcrDFf0pK+M32VJ8LSsWV2sHvCFQnJ3Zkv0+PzxAtAFRhsdM5WPiOmlSrXQJerhagHo42HshTB9mgPtFu2egkF6OynlNtDbkUwgIASEgBKwnIAql9azuackaLbuo418+tFN9Xjm8w6b+wNU9depUm+pYKpzBAy5MSQYrbZpAWdAG5bzT82GCpS43wYCQk9ejlfsSrtIgdm/O5YFAhoKYy1RW/L7bfNAwWW2bOybcq1dj4pWVsjgrbBgwAmtobtIgyw1+/sZNVdTUwKGrbJ37dtN+k009ytY3DNp5fclmXi0+u0D5hTIJgQKnjUoul2WBQ8yhKUHfNQEHvKC8WSPmjqnVPZ2l7GnKHMIANOveqaw8TcGEYqcpgYaju+GONjzOIVbgEa4AAY+2NSvSvkthav8Cc0WM644z2WNZVSa/QdFuxQOYoNDDmgtB2xA8FMDaDHHmY+KhQBPEUeIV6Oel4km71a+q9rV8+RQCQkAICIGCJWDdv1DBHlNaywOBy4d0CmSZ6nVV7TI16tvUiiNbh/r06UPdunWzqZ65wjez/tQNYyAxQMXQkmiurmF62SwlM9HAwrX+2AU1SrcdKxOIEdz07yV9FcQzQsn5gi12UBJtkV3nQ6kOxyQ2ZTc6BnTcUcvMt3L6us5Kpil7FVhBsVbgJsaIcAxAsiV+70bcbXUIxE+aEgOd3VS2SgMbWDptFYQmQCqwGx2iKZjYNnXcRLZQwvKLwVWagJVmmYa10tBiiwcGZ6fsPzsvLdioH6GttYFPTPGDWQYQr2nozg/Lsnoj5AECZRrxrQjNMBZYjhFn26Ri9vAR43KG+yEhIdSjRw/y8/MzTJZtISAEhIAQsEAg+y+7hYKSdW8JhJ85SulpqdSO3dw+ZQOp+cBnbOqQp6cnDR48mJ544gmb6pkrHMkDTqBIdKtfjZW+YmpORSh/lyJz/qkbt/Fh3zZqIAosTIiFhBhal6D4wQoH9+g5tmDdzhoVDTfqC+z+hHIGxRXzReIFK5Q1gilqcMwgVtSMR3ebqw/rGZQixAzC/fsYxypaKxiJrOL32FWs9RWfuVkTYXVDuMGjbFXDgBUMTMJgnNzqGfYLChgUUihdOGdrpe9DNdV5DmoepNzEmmJoqT6mUGrPsbLg04hHdCO8QYtPxRRKjSuVUTGVWn9wHXITXOsP+rSm83ytf+c4R+xj2ijIybAodU2G8kAnKM1DWgSp9EOXIxQrTEcEazgsqL15sA5c4TvO3QlvUIUtvI0YMYKGDx9O9evb9tBmoUnJEgJCQAg88ARsN2E88Eju7Qm+su6CfnBNUKe+hNe1E/tp/ot96cCyWTz35FM09pdtlBRvep5Ec72H8leQAiVrLo+8Hs5/6pj8HIIBFpj3UBsgY3g8w8ND8fiY4+Y0WX7wdDZrI5TJI1cjCHMNrj92XiumBoxAgYBS9tmA9vp0lB8+c6V+X9swPCbSoBzBogYFCzGI1grmOMRI4WAe4BGT5XbV6mZasHPWLOOnLKyG54p6b/+2xaS1T2sTn5NX7+B5PlvRezxICAKL4/rjF5USrxL4DZ5vXFdT13Ydc2sQWJqmDOygFEPMfWnMQ2sHn1peKU93NaoeaRioZCimjoP8b9jdj0FJGI0PwUhvxL9CMAL/U75WiJNEfYyS/5vjMLUHCVXIxBvmtsR1wgj4uWN7qhK4zkN+WKG2YaHGPJQYCQ6ZzfOJYnQ5HmoeqVtZKeBIh0KP+FlYva0VFxcXVTQysuhO22XtuUg5ISAEhMDdIuAQGBiYQ9MICAig0FDTMU2F1TF7OWZ++bl6eJF3mQp04/y/+W2qQOrDalSuhAdFspsWypq1AnewL0/CDSWvMOdltLY/KMcDimnhM73pex5AgvhNQ4EiW4JHWFtjsTOsl99tKN8YSY3J4w3jU/PbrqX6sO5FJ9xWVkBL5YzzsPIMpnKCwo/5PLVR2CiHwU24PwwH0hjXt3Uf1wsDgxCfC7f2K4s26e8lcPN0c842WMqa9r29vWnGjBkUFRVF48ePt6aKlBECQkAICAEmIBbK++w2SE6IKzLKJNDBcmaoOFiLEy5rW+MtrW3b1nKYKgfzRGoxeTvZ0mosUHqvx94ZyWycX1j7GACjDYIprGMYtwtLX14EYQvvLvuHhgQH8aTiugE0Wjtw4Re04EkYg4deZUUSVnLDFX7yyi04OFh188cffyzo7kp7QkAICIEHmoBYKO+yJfaBvpvu05PDvIZ9m9Sim7eT1NKRRUXRvU9xSreFgBAQAkLADgmIhdIOL7qccnYCcGNjMnIRISAEhIAQEAJCIG8EZJR33rhJLSEgBISAEBACQkAICIEsAqJQyq0gBISAEBACQkAICAEhkC8ColDmC59UFgJCQAgIASEgBISAEBCFUu4BISAEhIAQEAJCQAgIgXwREIUyX/hsr1w+qAlPTv60quhfqQYFDx5HzsU9bG+ogGoUVn8a8qTaWDUFUqusH4VUC7Cpx1jhBJNWa1P52FTZxsJYUaVno+pqUmxTVTG59o8juqlJtk3l5yUNywpinWoI5m/EtDdYDUZECAgBISAEhMD9SEAUyrt81Zr2e4rajn1bHTWo42PUetQb5MMTld8rKaz+jG7dkMa2aahOa2CzOjSuQxO1jSUEFz/bh57r+JDax7KC857qqdI0Bli6b2Cz2rSdV7N5u/vDajk9LQ+fUDZHtrJ9WTxXVtg+55VjME2QoZTntaex5rZL1tJ+hnnYxvKP63illYm8ak3xPKyPbdwe9h+pW4Weba9j0qxyObVmNSbjFhECQkAICAEhcD8SkGmD7serdh/3uRgvjQdpzssY0sb99FDlsvo1mrXTgsL3xfq9tJ+XzIPlEKus3OC1wzWpwUsalual+WwVLAkJy6CnK5bWS7Cp+pJ9J9Wa4lXYWnnimizJZxM8KSwEhIAQEAIPPAFRKIvQJQ6o14wGfDKPLh/cTlWatyOsirPxm3fp30269YsHTllIFbhMMUcnSktJpp3zptHuBd9wWnPq/8lcXgOclTV+xVw9T3CnH1wxhzZNf1+dYZeXP1Prgjs6OVNCdAQtfmMoRV06Y9XZT5s2jXx9fWnSpEl09uxZq+pYKoTVddJ5jeW65UsqS93VmDiqwKvVaAILJdbOxnKH0bx29rHQSKVQYi3t8WzphKURoq3jjCX3DBVOrR3DT6z9rVkmJ/VpxcfPVGs8T/trn77YKLaqtqpRgW7xKj5YfvHg5XCV98MTXWnGP4do1WHduc8e3Z0+WbOLToZF0Qxevxr9a8qKMfj/vv8ULTtwWtXDetTvs1UTn5jrEutKb+Q1rlcfOac/pmwIASEgBISAEHgQCIjL+y5fxeMbltLh1fPUUc/t+ouOrl1E8ZHX1b4Lx1I6ubhS2ZoNaP2Xb1J6Sgq1HvmGvocpCbfor6/foYUvD6DQY3s57zXyrVCVXNx19bbO+kyVLe7tq5TQhj2Gq/3gIROoftdBnLac1nz2EhVjpbL7G1+pPEv90Q7s4+NDzs7O5OrqqiXl+vkbK1ZL2aoHWXvsPC3ccyJbnV28vGE3dn/XCyhFW05d1udB6RvDrvIz4TH0JVspYdCc2LOlyj9yNYImrdhGp8OjKYItltjGC0pnbvIVK46f/blbFftp6xFVb8Hu7H2qXc6PLaN71BrWWIpRE6zhrbNq6lLcXZz1rm+sSR5ctRyhzYOXwmlw8zpqTXCUHNW6Aa8n7UJf/7WfFcp4pTSXyHJrbz97Vc/naOgNpYRCkRURAkJACAgBIXA/EhAL5V2+alAi8YJcO3FAvYy78PeMD+nExmXkVao8hQx/Xp+9/P2nVLxlHY69vBl2iSpRKypfpwndjo1SZfYtnUlN+46h66ePKOUxqEMfld645+PKonk7NppKValNkRdPUWD9YDUYyJr+bN68mfz9/Sk8XGex03fIwoahkrj3QliOkuuOX6BP+7ejm7xW9bWbd9aObl0zUJWdsnY3Yf1sV2dHGsexhuU4zjGMyyGeMfZ2ClspndR2jobNJISyFTQmS/HE2uNox1h+hlLIVkk/j+I0oqX1MZr/nLqilOIjVyKoRbXyVK20r1pjOogtsOtYmd565gpbQ8NoDg8y0uTfa1GEFwT9uRyVXbnVysmnEBACQkAICIH7gYAolEXwKl3Yt0X1Ki4ilN2od4zII35YRyUr16KEmEhKSYxTZWCdVAplZqbaT09Po7TUZEpLZqsdXOAsrl4+yh1bPaSz2sdbTOgFcvfxY+Us91jC2bNn6+sV1MYFVuhCb8bRjjOh2Zos5emuYhWhTEJOhUWrT8RMQqEsTDl1XXes6ITbZkd8mzr+KbaYQmJYOYZg1LhmxYSlFXKbzyc5LV1ty5sQEAJCQAgIgQeNgCiURfCKZnKMobGUqVGfSrJ1ccmbw+jSgW1UuWlb6j/5l2wKp3EdbT81MYEyMzPop1HttSSbPtu3b09we2/cuJHi4nSKrE0NmCn80oKNKqdZlXL6ElDKMJIaA2gQZ4lBNBBYMjXJZOUZo8NtlUzSKd1o25SgXVOSzukers4qK9DvTqynVtZUtcSUVKVAYsohWGgR96nFfmr1cvsMCQlRluEdO3ZQdLROac2tjuQLASEgBISAELgXBEz/s96LnsgxLRJQA264hKd/WfIpG0gdxr1vsbxh5rk9m8jDrzQ17T+W4yedyC+wGrV76h3DIha3R4wYQYMHD6aKFXXzJlosnM/MA5d08aTDWgQRptF5rElNwiCeqzF3rJMYDFPe15Og3NmiWN5OSVNu9E5BldWAH2tV0mt87DbsivfmeMkhwXdiK3M7VfSzM08PhDjRp9s1zq14jnxwHz58ONWvb737PUcjkiAEhIAQEAJC4C4QEIXyLkC29hCahQzWRGNBXGTYqUPU7bWpNPaXbYTR2hCU1eplJSCRMtm6p8mGr95SdaFEvrzmHI36aRPVaNVVy871M1v7uZbOXwG4nTf9e4l6NKxOP/AI6iolfWj6poPKWqm1vJXnp7waHafmlFz4TG/96G0t39LnH4fOqpHcGCH+fu/WqigP+FZi2j5JtOrIWZ5g3UdNbl6SpzAyFnN8Zm8/qq7NxF4tCfGUUIxTTFifjdvT9l1cML0RUWSkTFOkMZFPISAEhIAQKJoEHAIDA3P8jwYEBFBoaPbYtsLuvr0cM78c3X1LkpOzC92KuGZzU1iRp3TVOhRz7SIlchxmURZMGVTKqziFsnUww5RP+S533ond5BjtHRl/2+Yjw8XuxoOLZo3qTq8u3qQG4eTWiLe3N82YMYOioqJo/PjxuRWXfCEgBISAEBAC95SAxFDeU/y2Hzw/imAqD8AJPX5n3kXbj373aiCuEqO7H5+5skgolJhD0lZlslv9qtSxTmW6EHmTGvMylJgWCCO6rZHg4GBV7Mcff7SmuJQRAkJACAgBIXBPCYhCeU/xy8HNEbjIStjKw2eKhDJpro+5pWMKIkx3hFjQWduO0s5z1lv9N2zYQHiJCAEhIASEgBC4HwiIQnk/XCU77OMVjpGcv+v+npsRq+NgbksRISAEhIAQEAIPOgEZlPOgX2E5PyEgBISAEBACQkAIFDIBUSgLGbA0LwSEgBAQAkJACAiBB52AKJQP+hWW8xMCQkAICAEhIASEQCETEIWykAFL80JACAgBISAEhIAQeNAJiEJ5l69w+aAm1GzA0+qo/pVqUPDgcYT5IYu6NHh0KKHv94P4VqhKzQc9m62rWCmo03P/VS/jvGwFjXY8S5alNqPfJIdijkY5ul1w0drFOuvWyr28D1x5rXEPXhtdRAgIASEgBIRAQRGQUd4FRdLKdpr2e4pqtu5Ge5f8QEEdH2OFcjyd27WRIi+esrKFgi/m4u5JI35YT8veG003zv9r8gDtnn6Hzm5fR9dOHMiW3/6Zd8nDvwyt+mhCtnRrdl5YeZKcXYvTD0NbUFxkmDVVrCpTtXkHajPqDdqz6Dt9eZxj2ZoNqURAZSrGyqFhnr6QiY0y1esp5XTn/K8J83gaC5RItFu2VkOKCb1o9XUsrPvgtSnPUvlKZbN186WB7+n3x783gqrzcpCQm1GxNOXV7ygxwfbJ2vUNyoYQEAJCQAgIASYgCqXcBuTIK+94lwkg9xL+ZmksfLnd8LUzAAAtDUlEQVQ/JZhYXQfKFKx4tkq5Wo2UMollIhv3fpL++ekTW5swW/74+iUUdjK74htz9TzNfa4XPfrG/6h6SGezdW3N2DRdp6y9uu6irVULqbwDRYXH0Jz/LVbtZ2jrSvJey0eaKWVy0fcrCOlDxvWhoRMeox8/nV9IfZFmhYAQEAJCwF4IiEJZxK50qxGvUrOBz5CDgwOFnzlKsIB91auO6uWE34/Q5u8+oOMblqp9WPhWfjiOzu/eRK1HvU5N+41VymFGWhpd3P8PLZs4mvW1DGo79m2q1bYnpackkW9AFboZdomtkWMo6tIZtS64J1sYIf0+nKPKXz26m5a8OVyldRg3iep3Hai2DyyfTVt//lRtN3h0CHUc/4F+TfGXVp9R6XOe6Urpaak0cuZfqm/ndv2l0uFmbjH0OfqmXwNC/6BEpiYlUszVC8piqymUAz9bQE4ubjT/xcdUPbian+Pz3jnvK7bqzqCBUxZShXrNqJijE6WlJHP6NNq94BtVFm/Przih2KWnpvCxGurTLW3Aeon1zT3ZLc6VKSnuJv3x32fp8qEd+mpDpi6h0tWCKI3bXf+/N+nEX7/r88xtuHp4Uf+Pf1XWSwdyIKzHvvCVAarf5uoYpk+bNo18fX1p0qRJdPbsWcMsi9spySkUdjmC+5qWrVxIx4cokZeO3LXpAHUb1EHl1ahXNVsZ2RECQkAICAEhkBcCEkOZF2r5qANl8PDqeaoFKFtH1y6i+Mjrat/JxVUpXVEXT9P2X76kMtXrk7PbnVg3Nw9vKu7jqz863MVunj5q38GhGO1e+K1SxHYvmk5VgztQi2HPqTxYHr1Ll6fEm1H01zfv8nYFCh40TuVBIV39yfNqe9ucz+m3t5+gjd/ecZHuX/aTUgyh2HkZWCLPbFurykZdPqvaRT28Yq9fodiwy0pZbDH0jhu8Se8RdCv8qlImcbDKTdsqBevMjnVUolwlpQgjHUpc+TqNCUoepH7XQWr75OaVaj8l4Rb99fU7tPDlARR6bC+1HvkaIWZSEyiCp7as0nPR0i19wgUefeUcLZ/0FP3+7khKS06ix/77c7YqsOCu/+ptuh0bRZ2f/yhbnrmdfh/9oq7h9jlf0NZZn1Hp6nUpZPgLqril+0Brz8fHh5ydncnV1VVLsuqzHC/zOGXeuzR1wXvUd9Sj+jpevGoP3Nye3h7UqU9ruhEWRc4u8kypByQbQkAICAEhkGcColDmGV3eKkKJ3MCKCQTxiOu+eJ2S4mPVfu12vdTnArZiwep2bvdGtW/NGyx8+377kRWYesqVDCtg2ZoNslVd8uYwOrTyV4o4d5wC6jZVebCaXTmyW23DInr58E6lXGkVoRye37OZMtKzW7tu34pRZWHNS02+rbZRF5ZByPH1S5VlDkqyT9lA5Rbft3SmynP3Lanc61D8jqxZoKyC9brorKD7l+kUuSZ9RqqyjXoMp7gb1/Qxlsvff4ou7d9KFRoEK0srCpWvc2ew0MV9W+jGBdviUcF/8etDKCH6BnNpRrciQnXueNUD3dv2X77gvs5X1w5Kvk+ZCga5pjehGMdFXSdYKt28ShDWYa/3yABV2NJ9oLW2efNm2rt3L4WHh2tJuX7u++cwzf92GS2YvpyiImKodddgKuHvreo5uzhTSnIqjXljKN24HkUHdxxT1lxYw0WEgBAQAkJACOSHgJgn8kOvgOvCqgg3rjb449qJfVSjZRerjtLttalUt1M/Sk6IY4thJDk4FsumFKXwgBK0DYGl0rt0gFXt5rUQXNRN+42hh9gN71ehinKDH+PYRgislZDAhiFKGYRbHn0/vGquOvfIS6dZ8eqvBi6VqlYn2wCaET+sU2EAiOdMSYxT7bi452+UPCy945YeVO77+MhwdrnrLILaJw6iub8vHdyujlm9ZVfa//uPatvUGyzCcJ+78Ah+LWYTLv6kON3Dg6k6xmmzZ882Tsp1f/NKXf9Q8Mief2nyrDfpkX5tafGMlZSaksoDdsqwVdKZPnruK2rbPYRDHDLVK9eGpYAQEAJCQAgIAQsERKG0AOduZ8FCWLNVNzVFTWZGOvlXrJGtCxmcprm4y9VurM8r5uSkFLKj6xYriyfc0y//eVYpNPpCljZYqYA4OjlbKmUyj9UR1ptyGrqh2EacO0ENeVodN+8SdHHv3/r6Ndt0V65vDMyBwMVcpmZ9fT5CAhCf2bT/U6rtvYt/UHllatSnklVqc3znMLp0YJtym/ef/IvJ4+sbM9pIZ6XawTH7FEAPP/GSOvdpvTlGkvO7vvq5siQanheOjZhTzep7+dAdxQ2HAAfD8IQ4VkwhV9hqCzd8XqR9+/YEt/fGjRspLk6nPNvSTipbIyFePrrwgbib8eTt60Vb/9ytrJdQLqFkGkpISAj5+/vTjh07KDo62jBLtoWAEBACQkAImCWQUxMwW1QyCpsAFEJYtTAVD+ICqz/8SLZDwnpWu11P5T5GGU0y0zMonV3Sxb19Vbzho69/YZOSBfc1XNWN2XII96yhIqUdw9wn4hg9S5YhKLjGczUiphOxh7DSwWUMgfLrxwODTmz8nWY8/rB6/TnlZaXQVWrSSpWBQgmrZUtW9GJCL+hDAjTXrKd/WeVG7zDufVXelreTW1Yqy21Qp74E1zukGCuYDsWKkYdvKarY6GGqxQqvsbQYMkEdEwOcwMp4eqVb4aHKqupTrqK6BnggQDxplWbt+DrqrMyIG32o72jjps3ujxgxggYPHkwVK1Y0W8Y4Y9DTvah0QEkqVc5fubbBbM1CXegEBuNArl+9QWUrlKIqtSrSmWMXVZr2hmMOHz6c6te/o+BrefIpBISAEBACQsAcAbFQmiNzD9IRY3flyC5C/CBecFMbysE/ZlObMW/RM/N3K2UFeVC88DrMsZGN+4yg55cfv+M2z7I8wq2Zmxxdu5Aacrzic8uOUeSFkzT7aZ0S9Mq6C3oFE0oYXtdO7OfBP31Vkwf/+IWV3F407KtlShnGKG9N2Tr1z2rqxha/lMR4Za1EhTrt+6hySnnO6tSZbevUOWCScFgeEf+J2E5YMFWMZVY5pIWdOkRw70OgsEFw/pAur0yh+lmxmNh/df0lfND3Q4P1A5/QPmI9H32NFVxWtn4e3YF2zp1GdTv3p7G/6qyON69dpBLlK+vZog0on2N/2YZNHvw0XX0avv3z48fU+YXJNHbOVoo4e5x+Gfco/fafJ2kwjw7v8/4MfdF/N63Qb+e2Yc11M24juEMTasGjuTU5uvckhV2JULvb1++lpm0a0oCxPdR+fGwCx1rydTMQFxcXtRcZGWmQKptCQAgIASEgBCwTcAgMDMyhbQQEBFBoaKjlmgWcay/HtAYbBrHAfQr3bo+3ptHnj1TSV0NcnxfHP2JeRWPBfJJ+gdX0Cp1x/t3ed/fxp3GL99NunmBcm26oIPoA5c6Jz/VWxLWCaE7fBtglREeoOFR9osEGpg26yYOUoCDbIlilx6dsBTVYSIuPtaW+LWVhkYQrG6vhXL0QpgbhGNeHC9zN3VWN8jbM8/b2phkzZlBUVBSNHz/eMEu2hYAQEAJCQAhYJCAWSot47k2mZnmDQmksiPEzpUyinClXrHH9u7X/yIsfszWytxqMs4vniixIgSW3MARTB1kSxITmRaCk4nU3BFbN0Iu6aajMHS8uNp7wMpbg4GCV9OOP5gcbGdeRfSEgBISAEBACICAKZRG+D6J4tDNctPejpCQm0BleqnEXT3+EaYVEij6BDRs2EF4iQkAICAEhIARsJSAu77vs2rf1Akl5ISAEhIAQEAJCQAgUdQIyyruoXyHpnxAQAkJACAgBISAEijgBUSiL+AWS7gkBISAEhIAQEAJCoKgTEIWyqF8h6Z8QEAJCQAgIASEgBIo4AVEoi/gFku7lQsDR9tV9cmnRbrKL8RLeri45Zg2zm/PP74k6FZMxjfllKPWFgBDITiCvvysuzpmE3/Q8SQH9j4pCmSf6ea9UPqgJNRvwtGrAv1INCh48jpx5JZmCEqyw03yQ7Uv9YZWbhx9/Ub96TH77U7ttT6rN0wZBsFoMJk0vSMloMJBSXj1DKa+do0yvsrk2XVS5m+q4Z8my6r7wKllOreqDe6Rk5VqmiuYpDT86h+aH0sWVV2jRZOumM2rafywF1GumjocJ6Ks2b5+nY9+NSoV97z0S0In+eOQ3WvXIMvJ388/1lAr73su1A0WgQGExaBhYmhpVLKPOsFZZPwqpFlDoZ9uWV5iqXNJHHSe4anmqVTb3eyC3ThX2dz634xdkfmF//yz11dPbg1xcTRsZMDevh5e7yeqYv9c365qaKoA8baU243xLeZb6Y9wO9l2KudCKzktpdZfl1LcyLwJig3z/VpT6Tf936VWqUCbN+ppOrpTyyilKef08pTcfa309EyXlEdsElMJMatrvKarZuhvtXfIDBXV8jBWH8XRu10aKvHiqQA5btXkHajPqDdrDk4nbIi7F3VmhfImunzpM5/dstqWqybLtn31PLWd4cvMKaj3ydfKvXJMOr5prsmxeEtNbjKNip/8kp5Uv8VI56bk2UVS5m+p4hbrNqDVfw7jI6+p6YNvNqwRtmTnZVHGb0/p2SCA/7wzq9nxZOn7e9I+vcaPtnnqHzu3cQMt4qc2O4ycR5uwsiPvE+DgFsV/Y996gqv1pe/hOmnLkC8rIWqXJUr8L+96zdOyikldYDEa3bkiO/IQ0fu56GtisDtVkpXLnuVAKKOFFXw7pSF/y6lDYh3iwojFrVHc6cS2SgsqXpK2nr9DXG/ervEHN61DfJjVp0Pcr6PlOTalVjQoq/XZqGu0+d41mbDlEaRm6FbnG82pUG/+9RD/8fZCwfe7GTZq0In/TuxX2d16dTAG/YflfD/8ytOqjCdlaLqzvX0CVcjRgTA+qWD2AIq9H0+QX7sxvDEXx9c/Hkbevl+rLycNn6YePftX3a/x7I6h63Spq/2ZULE159TtKTNBNZ9elfzvqMqCdUhjT+Hp/O2k2XeR7A1ItqDI985/HeSENJ145LZNWzdtAm/7Ynmtebv1RDZh4S8lIoR7rHqOnao+mwdUG0u8Xl5soZTpp1AclKaBUOu2cdY2e7B5PH/1cwnRB49S0ZHL5rBqld5xI6SETyHHPTOMSVu+LhdJqVPdHwePrl9D8l3TLItrSY8wbufDlAXTl8C5bqt27sm78xBjKa1NboUzejU7mlfvd6JvxMapVSKM01sGtVSaN69v7voezJ/0bc9IqZdLeWd2r8w+9GUdJrBw0r1pO34VmrJBAwm8lqk8ojVAyIVBKNQsUvIZQJF9fspkW7/mXWtcMpNe7Baty8naHQNmaDdXyuHdSCnfrxQ/HUEl+YEhNSaVixbKrLo+/0J88vN3ps1e+pUM7j1HthtWpWdtGqkMtH2mmlMlF/LCwYPpyKuHvQ0MnPKbyYEHsOrA9Hdt3ir58W7dE7ujXhuhPZNRrgykhLpE+nPA/iuYHhx7DOpO7R3GVbynPUn/0jZvZyKRMOnHzJHk4mbammqmmkkNvOFJikgP5++gefiyVzZ6Xyf+n+zgGSqeQZ8+zfk8slNazKvSSlR9qQ4998BNF8oTmZarVpbTUFFo75RU6uWWl/tjPrzhB/25cptbPdvX0ppjQC/TTyHYqH3n4UcSKOd/0a6ivg40K9ZpTz3emkwcvWwi5dHAbLXlT54Z+/NtVaslGpC99+wkKZSsUBC7OAZ/Mo8sHt1OV5u3UkoQbv3mXtPWosf41VsRxdHJWa2/DCrnkjaG81jcrermIl5cXTZ8+nZKTk2nMmDG5lM6ZnenoQg7pqTkz8pBSmNwf6juaWo14VS2liTXKd86fxmuHf6V62eXlz9Ta6OCHlXQWM7uoS2esOoOXXnqJmjRpQqtWraJFixZZVUcr5MqxNgUpCN0Y/PliKu7jx+dxgzL4upzge3Trz5+pw3Rga3UVdpHH8VKZgY1CVNqaT19U91HI8BeoxRB+KualNJPibtKKSU+r9exRqHGvJyhkOIdhlPDnNtNo39KZ9M9Pn6j6ZWs2UPezTxmdJenavwf068urAhbe8nvvOXPsZFpmmoUj2JaFpUQHfDyXl1qtxd/fYupemPF4S/U9nvD7Edr83Qd0fMNS1egLK0/Syg/H0fndm9Q+vrvxbMkuVTWIvEuXV78ZM4aFUGJsFFnKM3fv5fadR2gMloOt3rKL+t5jKdFlE0dTbEQojZz5l+rbuV1/qb4h9KbF0Of4t6iBVUCmTZtGvr6+NGnSJDp79qxVdSwVOnr1BtULKKUv0rxKeYq9nUzJ/D2EtSkxJY0Gs2Xyp61H9GW0jYyMTLoYGate7qx0Dmham7zYZRqXlKIVuaufA6cs5N/wZlTMke89Xi1tJ68+tpsXjcDvev9P5uqUYf7txypq+D4eXDGHNk1/n71EjtTvo9lUsdHDrIQ5qv+LBa8MIKw2FlC3qar73aCmajnZGq260qOvf0lf9apj8be/waND2Evxgbr+gPDSat1v1pxnuirPRW5g8vr9+54tjudOXKS3v3o+h0JZrU4lOnvsIoVdiSD/Mn6qC1Ak97JlOaTjQ5QYf5t2bTpA3QZ1UHk16lVVn20ebaE+53+7jEqxsgpLpKePE/mVKkFOLk5KeVwyfyPFxsSRl4+H4tyqa3M6tOu42bz1v20hS/1RB8zlzRrPh7km8Ouep9h4K7wt5o6ppWdX87VU+Sw0AvhjOLx6nmofP7xH1y5SfwhIcHH3UH+s3rxW9/qv3qakWzH0yEu6P1CtQy68xnfD7sOUAvcnK5th/x7UsuiP/z5Lp7asIjdPXXyPloEYzQGfzee2nWnTd5No5Ufj+Q/6jpv4r2nv0Lqpryulx9XdU6tGLlwPa4fjz3v9l29SekoKu6/f0Od3eu6/lHgzkvv6FvmUq6ji/VzcdU84e5f+oNz6KHxwxWylDOgr8gaeMJ25Px4etsePZpaqrZ6kHK4fNmzS4va94F6pSStq/8xEiuX1v5e//xRtnfUpFffW/dgFsxJVv+sgVqqW05rPXqJirFR2f0OnaF4/c1TdFwg/gKKJe+TsjvXZzg9/vOBXooSVbo2s2gjc7tDsNt2Mc8zWXm47CFc4um6JKrbvt5l0YPksfZWuL09RccC4t+JuXCOvUuUJ65drAoXJN6AKla5el7bP+YL/CL9lw3IGK0F1qOUTLyslesO0/yhlqu+Hd9ptM/Ztir56juZO6El/ff0uJcTc0JqkTs99qO7XRWxB+H3iKP4+HNXnFea9V9mrMlsOPOh0rHWKPzpl6d5D/pCpS8i/ok4JWPz6EIq5dlHdD8hz8/BmRd0Xm0qcXYtn+357+JaiaiGd1WpUG75+h85sW8tfLtjY2MVrJs/SvZfrd37CB1SrbQ+6uG8Loa8n/15J7nytcY+nJiWyAjlBHRtvTXqPoFvhVwkPUrkxQHkfHx91T7u6umLXKvlt/ylauu+kKrv22HlauOfO8qjbzlwln+Ku5OnqovKDyvvTgUvX9e0u3X+SOgVVIRcny9+FI1d0912gn7equ4SPty3LJbqILZhrjlheslV/QAsbuX3nUxJu8XfgHeVFwgN/65GvEeLl8Z+B3+its3QPb8W9fdWDmhaz3vKJlwgPzCc3/0E7+EEWv9N93pupeuLCv/W4n6BoQnCvOfP/C8TSfYB77Dc2PERdPsu//1FqG/vaksGF9f2DMmlOoAhevRhGjULqUgW2RN9iBdC7hO6/zIs/4eaGNbJTn9Z0IyyKnFlZhJQq58/LA6dTUmISjeb7OYLDISBlKpSi8lmxuef/vUhDx/Vhy2ga/2/y7xbXsZSH+pb6g/zc5HTsaXJ0cKSGftY9jBm2d+W6E7Wol0webrYZDhzC+P+UH5YzKj1s2JxN22KhtAlX/gtDidSe4GHJM2XN2zb7czqyZr76svZ5f4YaKGO4fjXiLZe8OUx1Bj/UmuBHHn9MxgLFBVaw5Z+8QBf2/q2yT/2zWl8s7NQh9cetTzDa+HvGh8riBEUhZPjzKhc/ZvjxgUXp4v5/+EfNjTqMe19fE9YkTY6uW6xt6j+TkpJo7969lJiocz/pMyxtsFUydfxuynT3J8e/PyGH68ctlc6Wdy+44487k5/65jz7KGVm3FHg0bHGPR9XlobbsdFUitdsxzUNrB+sFLObrFCs++J1ff8Nt7XErVu3UmxsLO3fv19LyvVz2qtR1LttIqWnO9BIjrexRaDwaaJZHrX9UtWC+A9rBR1Y9jOd2PAbwapmSqD83Tj/rz6r8/Mfqe1Frw1S1m/E8bYd+x+leN44f1L9UbIjUj204PtgKLCGwhqflpykLJqaxQ5lCuPecy7mTL+2m0UlXHxo1uk5dO7WecPuWNy2dO+5engpxQDfY1iUIJcP7VCf1r6lp6XSrDEdVXHjOGVTeZbuPe2Ypr7zyKvToQ8riaHKKol9w74eX7+UHuo3Wl03PFBgoAl+yyCWGKgC/LZ582by9/en8PBwLSnXzy2nLuvL7L0Qpt/Gxj5e0x6WSLi9D7Plyt3FmeMmr+rd4GuPnqehwUH0GMdOWpJbbNWE+Ge5Opfs1SmwSFtdAMok2sntO48HUljj63Dc/c2wS1SJWlH5Ok3oNluiIbjnm/YdowwNeEgN4usEqdWmOyXFx6qHVuxXbPwwla/dBJtWian74DYbOi4f3qk8Ck6ubmrbsLHC+P4Ztm+8rQ3CSU1OpcHP9qFta/dQ5VqBysqIss583VM4bwx7gG5cj6LDu07QI/3aqt8PxDqms3Glc982asDOTPbIvfrZs+TDsZguWQ8icJE3ergeTf9gDj399nBVzptjdCGm8nLrj6qYy9uNpEj6+vh0mtzsA0pIS6Rntk2g6OToXGrpst+e7ktzP7hBGJzzz0E3Gv7uHSu9pQYcbl0jp3VvU9qguUTJceT8U2dyiI+wVCVHnlgocyC59wna+t1wS0NqtOyarVNneXCELeJfsTrHGmbqlUlb6qLsBVZUIXHs1oJLDlKdrSKQy4d1f35Xj+5W+9a+wdU9depU+u6776ytQuwDJKfFT1Kxwwspvd2brFjqrH3WN2C5ZEFz9+I/VLgjjZVJ9MLVSzdqEBzx8uQ/YIQvuLOiZI1gzW3w27dvnzXFVZn/LfChz+f6cIQO0YtDY62uZ6kgFDtYSEKP6/qBPy8oMcYCN52hMol8PKAgPTkhThXX+PsFVFXMds6dRmVrN6Kn5u5USmq1Fp30zW78dqIa9DXs6xX00pqz1PLJV/R5uW3k5d5Ly0ijifsn0bqrG2hkzSfJx8U7t8NYlV+qSh1VDuve51WiLp42W9VUnjX3nqnvPA7izEq/dq2ND7pz3les/juwUjlWzRiB++AYx3RbK7Nnz1b3dGRkpLVVLJZLZUXhakw8IXayBY/GTmc39vHQO1Zu7K86fI56cLydo1FMnmHDPu46i+mNeBsefg0bKIDtET+so7G/bOMwkCepYkNd2Aisk0r4tx2SzmEhaanJ6iGLf6hVGgbzaZZDJFw/eZiNUE4qz5o3c/eBNXXNlcnL989cW0iHsghp3/NhPv80+n3WGjXSOyUrPAExl+UrlVGDeWZ+PI+Ku7upBw08bCA+EgonBuUsm72WDS86ay1c3Lc4Dhcy4uWBdIofHM4ev8C/OQ6qjqW83PqjGs3lDaO9xwU9TTvCd9G7+96n2BTrf6/H948jeKK+XeJNk2ba4MHi0d5pnT/gwa7ryZn/Zx0SrVNgDU9FFEpDGkVku2wtXfxjOXY1Q4yVNbgZbBG4nfADU65WI1uq6ctmGrjHtUTN0onRiZBy/LRsizg6OlKfPn2oW7duNlTjwOHrR8hp7VvEfjTKrNLWhrq5Fy1o7rA+eviWNnngVB4EhZjBn0a1z/Yy/PE3WTErsUGDBopf1apVLRXLlnc+1Im+XuRNq7cVp/rVcip92QpbuYNzhOIAawkEbjRYw40lnRVHY0ngcAkoo4ifhJTNuj/jInWWph2/fklfPlpdhQvALYd4XU1gkUSc8C/PdqMYHnEewrF6cN9ZI3m59xAoDzf3V8e/oXQeCNakpG33u7l+RYfqLJ0VG7U0WSSDLdtaCEu52o1NloESb05M5Vlz75n6zuMYsAgjdMGU4MEg4twJasjTStVo1Y0u7v3bVDGzae3bt1f3NGLsCkp2nQ+lOuyibMpK5dmIaPUwZdj2sgOnyYmVyVbVdbG4hnnaduMs1+fVaJ2CoaWb+/Tz86MePXpQSIhO8TNXztr0MjXqc3xtbVry1nD6bnBT2jj9fVVVe7i31E4Kx7h6+ZfVFynJce6IR4akJMarT4SkQEpXr6c+Dd/M3Qcog++ENX0wbA/befn+GbdhvA9F0pXDG2Z/ofOGleDwhFs3decXx5+wNsJyGRURo5RLKJkQuL/h6cCo8R0b9lJVjsWEXGeL9rXL4Wob7uvZUxdxDCX/tvH/FtzilvJQyVJ/VKO5vNX3q6tc3l8c/R+dYvc3fnOslWB2d+8+5kafzvGhM5dz/habaycjMFi5vJ3WvEIOYYfUf6y5subSRaE0R+YepocMe165N1qPfkNZcKwdqGGuyyf+WqYslF1fm6rmM4SbDQNF8iNw0cK61PmFyWqeSfTZFvH09KTBgwfTE088YUs1XVn+cjkkxVJmPkekGR+4oLnDOgNrQPc3p3HspK8Klm/c+0l12HN7Nqk4Q8zviDJ+gdUIU/NYK/3791f8OnfWWYqtrYdyoTecOG5KZ9WwpZ65spEXTvIgsZ5qOqzeE783VyxH+umssAsMEPEpG0jNBz6t4u2unz6iFFNYHaFwXuKQCsSSQpnRBIN5ME8nXONhXB6KF8ILrJH83HsIlo9Ljc/TCExTfUMoC1yI9boMoOoPd1GDKFqPel2dN8rHR4YrtnAfY5qWgpD83HtXj+4hf75XMeAGAz4w5yBihTXZvfBb8i4ToGLwtv/yhZZs1eeIESPUPV2xYkWryltTCFMDwdUdxErljrOhOapgJPjfJy+Rr4dbtrxibImqXtpXucN7NapB+zn2Mj7ZugE5devWpeHDh9PIkSOztZnXHW30uScrhvieGIYW5dbmlSO71KA2hD1hAE9A/eZ6i6UKt2IrHQbFYSBP7fa9cmsuWz5iOT1LliE86OBesFby+v0r4e9NVXgOULiUEQOJbZ+suNbzJy8rq2N8bDyF8LRPUC53bNB5TTAYB3KdB2mV5dhI1Dtz7KJK2/rnbvUZwwOw3Nhy2aFnS2WBxH5EaKSaWgjTCznwQ8egZ3qrY2xft9diHhq01B91wFze3DlOG0rk7fQ7v3m5VNFn47c9LNL666GviP9TNtRQSoI+ydYN623ftrYs5fNMAO7Psb9uV/V3zf86Rzum/ji7vDKF6ncZqC/76vpLavv7ocE8n2EYP9W+pwaIjJihG9yBmB3ENyFgu//Hv+rr9f1wttreOmsKhfPgEIip4yF9y8yPVJv9PpqjRhciDYH51gjcDfkSjvHILF0nX00YVy5o7kfWLOCYpZYcd9ZbvXC8Y1nxpBt4IBOsBVAiNUUS1knELFkjGj/t05o6Wpmo2GIEzw7mLMM0E/mVDTyADKNQe737vbK6YhCGKYuk8XFg5UZsHeZjxYtvNHWfYpYCzGCAAR7agwruq9UcA6xJI54oHwN6UAcDzDDwCw841khemBm2m8gxTVW9qhgm5Wv793dG8mwKcwnx0hDw2zVP970/+MdsajPmLXpm/m69IpDj+2jpu2Qiz9K9p7HJcYysM1w1eQINm7aC2ox+U73AH4P8NEFsdje+DrB+wVppi2jHtqVObmWvxybwaO5UpVRikA7EGMkCHljTgS1TmuKGX6bibJWazHF2mD4IcZoz/zms6lrzhsFFEJviwy00jAcsxLl3Y4MARPNi4BplY4YT41dm1nyZKIu43Er8G4SHNkhq8m1aNfk5tY3653ZvVDNNBHXqqwbUEflm5el+n83dByh08I9f1Gwjw75igwVb+TDK2zisRTVm9Jatz0Z5lnb78xyUdR+qpS/y/H9H0zGOZ/1pygKaO+03euOL8fyaoPIxgGcPzxMK2c5zkTZt05AGjO2h9uP5nlgwnfvMEscK6MblW6kjD9b5ePZbKp7yu//+ovLw9uv/ltJYHq+APMjaxZv181dayrPUH9VQLm/4fUHspK2CgTjFXTPz9LueWTpIxU7aekzD8g6BgYE5/tkDAgIoNDTn05xhxYLetpdjWuKGCc/xp/xl9xo8uKY6B19f1rslLNWzJa80D6DAHy8mpi4ogcuyEQ8yacujcr/oVq2gmrXYDmb0T+/AFhuelNX5+5Y2Bw8bNl7Y3MGnTI166noaDq5CHzACvzSPdsbIXuM8wz4W5HbJEum0a1aYirPZftiNhvzHuqDt3PqA83TlUf7jlmAKn8dMDjgz1QYs5n4VqhFGuhrGm8KdBssJXOqYDsVYMEgBMZz4w72bghUsMPEwJiEesWWs1cHyufVRO5/ws8ezcYCV1otnfjDFILc2LeXn596DGx7XJoIHWWHqIE3cffxp3OL9tJsXVtj686dasl19Tpw4kYKCgujzzz+3KcY5N0hwTTvxd+wWT79lq2BKKczAYWoBDVi/8RCH8JX7XUoHlKQEnmcUsZHGApe1G8fDws1tLHBrl+NVl66cz8kWDxoYOY4pieDKNhRLeShnqT+G7WjbGPy3uON8Ku7oRovOL+EBgHeUW62Muc9v34iinq0TKS2N45gfL08xcVY6oHmwa8oL/MDkwrPM7PyWHLfk/XsrCuVdVpzN3QxIN1Rs8AUv6jJoyiJlSUKcFmIpEayPEbt3TZzdKdPDnxxi+UeA3QN5lfuNe17P07AeZpbRlue6zNNM5Efgmq7bqR9PI3JGvzzjtN78tPsAixv/4GPEd0QSz7tppav9AcahTg0xrnV4uVVMgfVN3wbKGvagn7Op85s5cyYlJCTQiy++aCpb0oSARQLl3MvRzeQYm93d8Di5uWbQxWvOPADN4iFyZGaWYAt9YmS+3N1oNH//JDm6JQn5IYB5vTDYAC6v+0HgjqvfdTBPtutIy94bnedR5Hk+19REcriZ80nU1vbuN+62np+p8jzAlfKrSGrtnt66RsWAeviVUlapQyvnalkP7GcSxzZdv217fNMDC4RPDKttYbT6Lp5wG65Ve5WxY8fa66nLeRcAgbBE3aBEW5vShS/lLYTJ4eYlWw9nsrxYKIuQhdLkFZJEISAEhIAQEAJCQAgUcQJWOtmL+FlI94SAEBACQkAICAEhIATuGQG7Vijv9sCje3aV5cBCQAgIASEgBISAEChEAnatUBYiV2laCAgBISAEhIAQEAJ2Q8CuFUoM+ccC7CJCQAgIASEgBISAEBACeSdg1wplE/9GtLrLcvqt00Kq71cv7xSlphAQAkJACAgBISAE7JiAXSuU+yMPUs/1fSn8dgT1rNjdjm8DOXUhIASEgBAQAkJACOSdgF0rlMCWmpFKZ2LPkrezV94pSk0hIASEgBAQAkJACNgxAbtXKHHtsQi7UzGZ492Ovwdy6kJACAgBISAEhEA+CIhCyfBOxZ6mmj41yNvFOx8opaoQEAJCQAgIASEgBOyTgCiUfN3/CdtKh6IO0+IO8+h/LT63zztBzloICAEhIASEgBAQAnkkIH5eBlerRE1qXqoZzTnzK227viOPKKWaEBACQkAICAEhIATsk4AolHzdQ0q3oCsJV2nBucX2eRfIWQsBISAEhIAQEAJCIB8ExOXN8Nwc3SgqKSofGKWqEBACQkAICAEhIATsl4DdK5QO5EBVvCpTpCiU9vstkDMXAkJACAgBISAE8kXArhXKBn71aVWXZVTNuyr9eXVtvkBKZSEgBISAEBACQkAI2CsBu46hxHRBI7eMpeiUGErLSLPXe0DOWwgIASEgBISAEBAC+SJg1wplcnoyRaTfyBdAqSwEhIAQEAJCQAgIAXsnYNcub3u/+HL+QkAICAEhIASEgBAoCAKiUBYERWlDCAgBISAEhIAQEAJ2TKDIKJShoaF2fBnk1IWAEBACQkAICAEhcP8SKDIK5f2LUHouBISAEBACQkAICAH7JiAKpX1ffzl7ISAEhIAQEAJCQAjkm0CRGuW96OMIalEvWZ1U3UEBFJ8o+m6+r7A0IASEgBAQAkJACAiBQiZQpDS2Ye+Womc+LkkODqRehXzu0rwQEAJCQAgIASEgBIRAARAoUgplWpoD3U5mbVJECAgBISAEhIAQEAJC4L4hUKQUyvuGmnRUCAgBISAEhIAQEAJCQE9AFEo9CtkQAkJACAgBISAEhIAQyAsBUSjzQk3qCAEhIASEgBAQAkJACOgJiEKpRyEbQkAICAEhIASEgBAQAnkhIAplXqhJHSEgBISAEBACQkAICAE9AVEo9ShkQwgIASEgBISAEBACQiAvBEShzAs1qSMEhIAQEAJCQAgIASGgJ1CkVspZMTWcGtdK0XdONoSAEBACQkAICAEhIASKPoEipVD2fqVM0ScmPRQCQkAICAEhIASEgBDIRkBc3tlwyI4QEAJCQAgIASEgBISArQREobSVmJQXAkJACAgBISAEhIAQyEZAFMpsOGRHCAgBISAEhIAQEAJCwFYCJhXK0NBQW9uR8kJACAgBISAEhIAQEAJ2SsCkQmmnLOS0hYAQEAJCQAgIASEgBPJAwLxC6eich+akihAQAkJACAgBISAEhIC9ETCtUDq5Usorpyjl9fOU3nysvTGR8xUCQkAICAEhIASEgBCwgYBphTItmVw+q0aO++dQesgEG5qTokJACAgBISAEhIAQEAL2RsC0QqkoZJJD6D4iVy97YyLnKwSEgBAQAkJACAgBIWADAQsKJbeSmWFDU1JUCAgBISAEhIAQEAJCwB4JWFQoHcIOExVzooxKD9sjGzlnISAEhIAQEAJCQAgIASsIWFYob10jp3VvU9qguZTywmHK9CxtRZNSRAgIASEgBISAEBACQsCeCDhZPFke7Z3W+QMqdno9Oe7+nhwSoy0Wl0whIASEgBAQAkJACAgB+yNgUaHMCAxWLm+nNa8QpSRko1OzZk3C68yZM3Tq1KlsebIjBISAEBACQkAICAEhYD8ELLq81QjvjLQcyiTw9OrVi4YPH64+7QeXnKkQEAJCQAgIASEgBISAMQGLCmVm6SCi5DjjOmrf09NTfd68edNkviQKASEgBISAEBACQkAI2AcB0y5vRxc1CIdcPMhx57cmSVSqVIkyMzNp3rx5JvMlUQgIASEgBISAEBACQsA+CJhWKNNTyPnnrjwIJ9Kku9vd3Z3c3Nxoy5YtlJiYaB+k5CyFgBAQAkJACAgBISAETBJwCAwMzDSZI4lCQAgIASEgBISAEBACQsAKAhZjKK2oL0WEgBAQAkJACAgBISAE7JyAKJR2fgPI6QsBISAEhIAQEAJCIL8E/g8DObQwPiPj7gAAAABJRU5ErkJggg==;movable=0;resizable=0;rotatable=0;deletable=0;editable=0;locked=1;connectable=0;" vertex="1" parent="1">
          <mxGeometry x="70" y="-50" width="660" height="795" as="geometry" />
        </mxCell>
        <mxCell id="fpwWL5qKGAFFPtYYpQE2-2" value="" style="endArrow=classic;startArrow=classic;html=1;rounded=0;strokeColor=#FF0000;" edge="1" parent="1">
          <mxGeometry width="50" height="50" relative="1" as="geometry">
            <mxPoint x="300" y="20" as="sourcePoint" />
            <mxPoint x="430" y="-70" as="targetPoint" />
          </mxGeometry>
        </mxCell>
        <mxCell id="fpwWL5qKGAFFPtYYpQE2-3" value="URL của sản phẩm, viết liền không dấu&lt;div&gt;không khoảng trắng&lt;/div&gt;" style="text;html=1;align=center;verticalAlign=middle;resizable=0;points=[];autosize=1;strokeColor=none;fillColor=none;" vertex="1" parent="1">
          <mxGeometry x="370" y="-105" width="230" height="40" as="geometry" />
        </mxCell>
        <mxCell id="fpwWL5qKGAFFPtYYpQE2-4" value="" style="shape=image;verticalLabelPosition=bottom;labelBackgroundColor=default;verticalAlign=top;aspect=fixed;imageAspect=0;image=data:image/png,iVBORw0KGgoAAAANSUhEUgAAA3gAAABmCAYAAACZWjM4AAAMQGlDQ1BJQ0MgUHJvZmlsZQAASImVVwdYU8kWnluSkEAIEEBASuhNEJESQEoILfSOICohCRBKjIGgYkcXFVy7WMCGroooWAGxoIidRbH3xYKCsi4W7MqbFNB1X/nefN/c+e8/Z/5z5szcMgDQTnDF4lxUA4A8UYEkNtifMTY5hUHqBgRAA7oAA3ZcXr6YFR0dDmAZbP9e3t0AiKy96iDT+mf/fy2afEE+DwAkGuJ0fj4vD+KDAOCVPLGkAACijDefUiCWYViBtgQGCPFCGc5U4EoZTlfgvXKb+Fg2xK0AqKhxuZJMANQvQ55RyMuEGup9EDuJ+EIRADQGxD55eZP4EKdBbANtxBDL9JnpP+hk/k0zfUiTy80cwoq5yItKgDBfnMud9n+m43+XvFzpoA8rWNWyJCGxsjnDvN3KmRQmw2oQ94rSI6Mg1oL4g5Avt4cYpWRJQxIU9qghL58NcwbXGaBOfG5AGMSGEAeJciPDlXx6hjCIAzHcIehUYQEnHmI9iBcK8gPjlDabJZNilb7Q+gwJm6Xkz3Elcr8yXw+kOQkspf7rLAFHqY+pF2XFJ0FMgdiiUJgYCbE6xI75OXFhSpsxRVnsyEEbiTRWFr8FxLECUbC/Qh8rzJAExSrtS/PyB+eLbc4SciKVeH9BVnyIIj9YK48rjx/OBbssELESBnUE+WPDB+fCFwQEKuaOdQtECXFKnQ/iAv9YxVicIs6NVtrjZoLcYBlvBrFLfmGcciyeWAA3pEIfzxAXRMcr4sSLsrmh0Yp48GUgHLBBAGAAKazpYBLIBsL23oZeeKfoCQJcIAGZQAAclMzgiCR5jwhe40AR+BMiAcgfGucv7xWAQsh/HWIVVweQIe8tlI/IAU8hzgNhIBfeS+WjREPeEsETyAj/4Z0LKw/GmwurrP/f84Psd4YFmXAlIx30yKANWhIDiQHEEGIQ0RY3wH1wLzwcXv1gdcaZuMfgPL7bE54SOgiPCNcJnYTbE4XFkp+ijACdUD9ImYv0H3OBW0FNV9wf94bqUBnXxQ2AA+4C/bBwX+jZFbJsZdyyrDB+0v7bDH5YDaUd2YmMkoeR/cg2P49Ut1N3HVKR5frH/ChiTR/KN3uo52f/7B+yz4dt2M+W2ELsAHYWO4mdx45iDYCBNWONWBt2TIaHdtcT+e4a9BYrjycH6gj/4W9wZWWZzHeqcepx+qLoKxBMlb2jAXuSeJpEmJlVwGDBL4KAwRHxHEcwnJ2cXQCQfV8Ur683MfLvBqLb9p2b9wcA3s0DAwNHvnOhzQDsc4eP/+HvnA0TfjpUATh3mCeVFCo4XHYhwLcEDT5p+sAYmAMbOB9n4Aa8gB8IBKEgCsSDZDABRp8F97kETAEzwFxQAsrAMrAarAebwFawE+wB+0EDOApOgjPgIrgMroO7cPd0gRegD7wDnxEEISFUhI7oIyaIJWKPOCNMxAcJRMKRWCQZSUMyEREiRWYg85AyZAWyHtmCVCP7kMPISeQ80oHcRh4iPchr5BOKoWqoNmqEWqEjUSbKQsPQeHQ8molORovQ+egSdC1ahe5G69GT6EX0OtqJvkD7MYCpYrqYKeaAMTE2FoWlYBmYBJuFlWLlWBVWizXBdb6KdWK92EeciNNxBu4Ad3AInoDz8Mn4LHwxvh7fidfjrfhV/CHeh38jUAmGBHuCJ4FDGEvIJEwhlBDKCdsJhwin4bPURXhHJBJ1idZEd/gsJhOzidOJi4kbiHXEE8QO4mNiP4lE0ifZk7xJUSQuqYBUQlpH2k1qJl0hdZE+qKiqmKg4qwSppKiIVIpVylV2qRxXuaLyTOUzWYNsSfYkR5H55GnkpeRt5CbyJXIX+TNFk2JN8abEU7IpcylrKbWU05R7lDeqqqpmqh6qMapC1Tmqa1X3qp5Tfaj6UU1LzU6NrZaqJlVborZD7YTabbU3VCrViupHTaEWUJdQq6mnqA+oH9Tp6o7qHHW++mz1CvV69SvqL2lkmiWNRZtAK6KV0w7QLtF6NcgaVhpsDa7GLI0KjcMaNzX6NemaozSjNPM0F2vu0jyv2a1F0rLSCtTia83X2qp1SusxHaOb09l0Hn0efRv9NL1Lm6htrc3RztYu096j3a7dp6Ol46KTqDNVp0LnmE6nLqZrpcvRzdVdqrtf94bup2FGw1jDBMMWDasddmXYe73hen56Ar1SvTq963qf9Bn6gfo5+sv1G/TvG+AGdgYxBlMMNhqcNugdrj3cazhveOnw/cPvGKKGdoaxhtMNtxq2GfYbGRsFG4mN1hmdMuo11jX2M842XmV83LjHhG7iYyI0WWXSbPKcocNgMXIZaxmtjD5TQ9MQU6npFtN2089m1mYJZsVmdWb3zSnmTPMM81XmLeZ9FiYWERYzLGos7liSLZmWWZZrLM9avreytkqyWmDVYNVtrWfNsS6yrrG+Z0O18bWZbFNlc82WaMu0zbHdYHvZDrVztcuyq7C7ZI/au9kL7TfYd4wgjPAYIRpRNeKmg5oDy6HQocbhoaOuY7hjsWOD48uRFiNTRi4feXbkNydXp1ynbU53R2mNCh1VPKpp1GtnO2eec4XztdHU0UGjZ49uHP3Kxd5F4LLR5ZYr3TXCdYFri+tXN3c3iVutW4+7hXuae6X7TaY2M5q5mHnOg+Dh7zHb46jHR083zwLP/Z5/eTl45Xjt8uoeYz1GMGbbmMfeZt5c7y3enT4MnzSfzT6dvqa+XN8q30d+5n58v+1+z1i2rGzWbtZLfyd/if8h//dsT/ZM9okALCA4oDSgPVArMCFwfeCDILOgzKCaoL5g1+DpwSdCCCFhIctDbnKMODxONacv1D10ZmhrmFpYXNj6sEfhduGS8KYINCI0YmXEvUjLSFFkQxSI4kStjLofbR09OfpIDDEmOqYi5mnsqNgZsWfj6HET43bFvYv3j18afzfBJkGa0JJIS0xNrE58nxSQtCKpc+zIsTPHXkw2SBYmN6aQUhJTtqf0jwsct3pcV6praknqjfHW46eOPz/BYELuhGMTaRO5Ew+kEdKS0nalfeFGcau4/emc9Mr0Ph6bt4b3gu/HX8XvEXgLVgieZXhnrMjozvTOXJnZk+WbVZ7VK2QL1wtfZYdkb8p+nxOVsyNnIDcpty5PJS8t77BIS5Qjap1kPGnqpA6xvbhE3DnZc/LqyX2SMMn2fCR/fH5jgTb8kW+T2kh/kT4s9CmsKPwwJXHKgamaU0VT26bZTVs07VlRUNFv0/HpvOktM0xnzJ3xcCZr5pZZyKz0WS2zzWfPn901J3jOzrmUuTlzfy92Kl5R/HZe0rym+Ubz58x//EvwLzUl6iWSkpsLvBZsWogvFC5sXzR60bpF30r5pRfKnMrKy74s5i2+8OuoX9f+OrAkY0n7UrelG5cRl4mW3Vjuu3znCs0VRSser4xYWb+Ksap01dvVE1efL3cp37SGska6pnNt+NrGdRbrlq37sj5r/fUK/4q6SsPKRZXvN/A3XNnot7F2k9Gmsk2fNgs339oSvKW+yqqqfCtxa+HWp9sSt539jflb9XaD7WXbv+4Q7ejcGbuztdq9unqX4a6lNWiNtKZnd+ruy3sC9jTWOtRuqdOtK9sL9kr3Pt+Xtu/G/rD9LQeYB2oPWh6sPEQ/VFqP1E+r72vIauhsTG7sOBx6uKXJq+nQEccjO46aHq04pnNs6XHK8fnHB5qLmvtPiE/0nsw8+bhlYsvdU2NPXWuNaW0/HXb63JmgM6fOss42n/M+d/S85/nDF5gXGi66Xaxvc2079Lvr74fa3drrL7lfarzscbmpY0zH8Su+V05eDbh65hrn2sXrkdc7biTcuHUz9WbnLf6t7tu5t1/dKbzz+e6ce4R7pfc17pc/MHxQ9YftH3Wdbp3HHgY8bHsU9+juY97jF0/yn3zpmv+U+rT8mcmz6m7n7qM9QT2Xn4973vVC/OJzb8mfmn9WvrR5efAvv7/a+sb2db2SvBp4vfiN/psdb13etvRH9z94l/fu8/vSD/ofdn5kfjz7KenTs89TvpC+rP1q+7XpW9i3ewN5AwNiroQr/xXAYEUzMgB4vQMAajIAdHg+o4xTnP/kBVGcWeUI/CesOCPKixsAtfD/PaYX/t3cBGDvNnj8gvq0VACiqQDEewB09OihOnhWk58rZYUIzwGbo7+m56WDf1MUZ84f4v65BTJVF/Bz+y/cKnxjKcujfAAAAJZlWElmTU0AKgAAAAgABQESAAMAAAABAAEAAAEaAAUAAAABAAAASgEbAAUAAAABAAAAUgEoAAMAAAABAAIAAIdpAAQAAAABAAAAWgAAAAAAAACQAAAAAQAAAJAAAAABAAOShgAHAAAAEgAAAISgAgAEAAAAAQAAA3igAwAEAAAAAQAAAGYAAAAAQVNDSUkAAABTY3JlZW5zaG90G49mawAAAAlwSFlzAAAWJQAAFiUBSVIk8AAAAttpVFh0WE1MOmNvbS5hZG9iZS54bXAAAAAAADx4OnhtcG1ldGEgeG1sbnM6eD0iYWRvYmU6bnM6bWV0YS8iIHg6eG1wdGs9IlhNUCBDb3JlIDYuMC4wIj4KICAgPHJkZjpSREYgeG1sbnM6cmRmPSJodHRwOi8vd3d3LnczLm9yZy8xOTk5LzAyLzIyLXJkZi1zeW50YXgtbnMjIj4KICAgICAgPHJkZjpEZXNjcmlwdGlvbiByZGY6YWJvdXQ9IiIKICAgICAgICAgICAgeG1sbnM6ZXhpZj0iaHR0cDovL25zLmFkb2JlLmNvbS9leGlmLzEuMC8iCiAgICAgICAgICAgIHhtbG5zOnRpZmY9Imh0dHA6Ly9ucy5hZG9iZS5jb20vdGlmZi8xLjAvIj4KICAgICAgICAgPGV4aWY6VXNlckNvbW1lbnQ+U2NyZWVuc2hvdDwvZXhpZjpVc2VyQ29tbWVudD4KICAgICAgICAgPGV4aWY6UGl4ZWxYRGltZW5zaW9uPjg4ODwvZXhpZjpQaXhlbFhEaW1lbnNpb24+CiAgICAgICAgIDxleGlmOlBpeGVsWURpbWVuc2lvbj4xMDI8L2V4aWY6UGl4ZWxZRGltZW5zaW9uPgogICAgICAgICA8dGlmZjpSZXNvbHV0aW9uVW5pdD4yPC90aWZmOlJlc29sdXRpb25Vbml0PgogICAgICAgICA8dGlmZjpYUmVzb2x1dGlvbj4xNDQvMTwvdGlmZjpYUmVzb2x1dGlvbj4KICAgICAgICAgPHRpZmY6WVJlc29sdXRpb24+MTQ0LzE8L3RpZmY6WVJlc29sdXRpb24+CiAgICAgICAgIDx0aWZmOk9yaWVudGF0aW9uPjE8L3RpZmY6T3JpZW50YXRpb24+CiAgICAgIDwvcmRmOkRlc2NyaXB0aW9uPgogICA8L3JkZjpSREY+CjwveDp4bXBtZXRhPgq2UJRdAABAAElEQVR4Ae2dB5gdxZXve4ICQuScJUQGEU3OIoPJJue4js9e2+tss7Ber+HZfuuEA9hEGWHAgMk5g8ggkYMIEiByMFGa8OpXo9Nzbk/3TXNHM5r5n++b6b7d1RX+XV1VJ1bT+E236kxEQkAICAEhIASEgBAQAkJACAgBITDPI9A8z7dADRACQkAICAEhIASEgBAQAkJACAiBiIAYPHUEISAEhIAQEAJCQAgIASEgBITAIEFADN4geZFqhhAQAkJACAgBISAEhIAQEAJCoHW5lcYJBSEgBISAEBACQkAICAEhIASEgBAYBAhIgzcIXqKaIASEgBAQAkJACAgBISAEhIAQAAExeOoHQkAICAEhIASEgBAQAkJACAiBQYKAGLxB8iLVDCEgBISAEBACQkAICAEhIASEgBg89QEhIASEgBAQAkJACAgBISAEhMAgQUAM3iB5kWqGEBACQkAICAEhIASEgBAQAkJADJ76gBAQAkJACAgBISAEhIAQEAJCYJAgIAZvkLxINUMICAEhIASEgBAQAkJACAgBISAGT31ACAgBISAEhIAQEAJCQAgIASEwSBAQgzdIXqSaIQSEgBAQAkJACAgBISAEhIAQaBUEQkAICAEhIASEgBAQAo1H4Nw37m58pspRCAiBIYnAkUtuUXW7pcGrGiolFAJCQAgIASEgBISAEBACQkAIDGwEGqbB6+zoSDo725OOcAz/wnk4dnaGvwBAE6eciISAEBACQkAICAEhIASEgBAQAkKgFgRmffyvqpP3isHraJsdeLm2pLO9vTwDJ96u6heihEJACAgBISAEhIAQEAJCQAgIgXoRqJnBg5lrb5+ddLYFxi6q5+otWs8JASEgBISAEBACQkAICAEhIASEQCMRqJrB6wiMXcfsWVFj18gKKC8hIASEgBAQAkJACAwVBA4ePX6oNFXtFAJCoE4EJn04tc4nux6ryOB1dgSNHYxde1uvCtLDQkAICAEhIASEgBAQAkJACAgBIdC3CJRl8GDs2md/1rc1UO5CQAgIASEgBISAEBACQkAICAEh0BAEchk8tHZtsz5LOIqEgBAQAkJACAgBISAEhIAQEAJCYN5AoAeD1xECqLTD3Glbg3njDaqWQkAICAEhIASEgBAQAkJACAiBOQiUMHgdwRyzLZhlioSAEBACQkAICAEhIASEgBAQAkJg3kMgZfDaAnNHlEyREBACQkAICAEhIASEgBAQAkJACMybCEQGr1HMXVNTc9LU0pI0NYdjE8emcGwKyPAHhZ3zgulnZwfHsDl6R8ecTdI7um7rvxAQAkJACAgBISAEhIAQEAJCQAjUjUArZpm90twFBq6lZVjS3NoaGLqWChXpYvgC7xeoOy3BXDrCxulsoB44vwp56LYQEAJCQAgIASEgBISAEBACQkAI5CHQWq/PHdq65mHDkpbW4Xn51nQNxrBlePhLRiTtbWHPvdmzA58nrV5NICqxEBACQkAICAEhIASEgBAQAkMegdQHrxYkWoYNT1qGjajlkarTwjDyx/577MMnEgJCQAgIASEgBISAEBACQkAICIHqEKiJwUPT1jp8RBWmmNUVXi4VDGRzS6v24ysHku4JASEgBISAEBACQkAICAEhIAQcAs3uvOxpc+uwZNjIUXOFubOKwFBSJmWLhIAQEAJCQAgIASEgBISAEBACQqA8AlUxeJhMtg4fWT6nPrxL2Y3w9evDKiprISAEhIAQEAJCQAgIASEgBIRAvyNQkcGLPnHBLLO/qSXUQUxef78FlS8EhIAQEAJCQAgIASEgBITAQEagLIOHaSSM1UAh6iJzzYHyNlQPISAEhIAQEAJCQAgIASEgBAYaAoUMXldAlf4zyywCCnNN6iYSAkJACAgBISAEhIAQEAJCQAgIgVIECqNoEi2zt7TuWmukWay79hrJlMefir+nPNF1TG/WeELdZn/6cY1PKbkQEAJCQAgIASEgBISAEBACQmBwI5DL4LHPXb1aMpi6ww7YJ6LmGTwuHPaFbjAnXnxZ/HH+RV3H7juVz6gbddQ+eZWxUgohIASEgBAQAkJACAgBISAEhg4CPRi8pqbmujYxN8Yuy9QVQXnYF7qYQO7Xw+SxT15HW1vS2dlRVISuCwEhIASS1tYwzHV2Jm3t7UJDCAgBISAEhMCgQmDRRRZJPvjggwExxy2x+GLJm2+9PajwnVcb04PBax5W+55zhweNnWfYagGD5/j77sk/T2o13aSu7bM+q6W4imkvPu8vycILLZR8+tlnyecPOKxi+nklwUILLphccv5fY3Wffva55Cvf+l5a9XL30kRD+GTxxRZNll9u2WT27NnJ9BmvJh/86181odHc3JysOm5ssuQSSyTzzz8qefvtd2I+M994o6Z8Rs03XzJu5THJEosvnrS0NCdvvPFW8sJLL4X6fFhTPissv1yy3DJLJ4ssvHDyfpgUZr7+RjLtxZdqymO3nXZI1lx91fjMmedMrAmTQw7YN1lmqaXis7/63R9rKrfaxGC11x67JksGrIYP7xrTHnp0SnLzbXdWm0WfpfPYnXX+pOTd997rs7IamfEaq62a7L7zDjHL2+68J3nwkUcbmf2QyOuEow5PFlhgdPLZrFnJ7//cNR7nNXzEiBHJV044Jt7i27zsymvykg2Ka1tsunGy2cYbxbZcesXVYUx7eVC0q95GWB9hDXL6GWfVm42eGyIIHLjf3smKYU7v6OhIzr3gouStt/uHuWptaUm+FMasEcOHJx9/8knyhzPPDnLVzoa9hf6YN2nLV048Nrbhpekzkksuv7Jh7ZkbGZUyeE1NNW9FUMTcYYKZ53NHeijLEJ560vcSnqlFm8e2CdFMs4GdaL6R8yVNAYfhdTC6c+OF1VtGa2tLbBfPj55//pJsyt0rSTiEfsAg7L/35wNTtniKmzW/vb0jefHll5N/Xn1twnk5WmuN1ZKdtt82GZbTn15/482Yx/sfVGYYt99my2TD9dbtURfKfvLpZ5Nrb7ypYl2WWnKJZK/ddkkWWmjBHlVmQL7q2hsSBrFqaMxKKyQwrkwqtTK8I0eMjM9SDt9aIycB8pxv5MjkmCMOiUd+G7W2lA53dn1uH0eODNGAA3YQ3968QjDKVu8RI4bPK9UeUPUcMefdDw8uBuVo5TErplgjEBrMRF+yfmXCmMHc3nJtY0Fp4/OHH35ULqnuCYEgvBwemTug4BvacL3xyfU339ovyKy6yrjI3FE466cxK67QUGFNf8ybYGpj08iwrpjXqGTF09JSm/Yuj7lDC4c2roiMgeOYfd6YPktTlIe/Tp3b22b5Szofggj84NvfSLbdcovY8lP/32+Sm2+/s24UYIQO3n+fXKaMTNGejRs7Jjn+yMOT8/9+cfLRR/kBf9YJ/qi77jihsB6Uc9ShBydnnnN+lHgVJdxzt52T1Vddpeh21KQtvPBCycQLLy5MgxbysAP3TwerbEIG5C/ss2dy0aX/TF6e8Ur2dslvJpX5R42K194agItPcIfJg2DAn3/hheS5aS8kr82sTWMaM+iHf0cecmCy6KKLxJJ/84czIhPdD9VQkf2IAOOLEX1X1H8IIFxbb/w6sQKXB01qX2oYx45ZKW1oX5aTFqKTeRqBWcES4KOPP07n42efn9Zv7Xnp5elp2QhtX3nttfS3TvoHgRIGr7m15GfFGhlDZglrNbM0Rs7nwzmav2rNNamzGDx7A0P3uEgwqzVtyAILLFA3EEhrPCP0yaefJvc/+HAYrGZGre6KKyyXfG6D9aPmCVOrffbYLZn490t6lLdIYLg8c4e27oabb0veff/9ZJVgZrkjWr3Qd5FYHxz6/F/Pu6BHHlxYf911Spi7qU88mUy+78Fga98WNXqbbLRBrMsySy2ZTNhmq0LG9pAD9kuZO0x/rrn+pmT6K68mMJm77TQhWTBghjYNJu93wXSMiaOIxgbtndGLblC3a/19XH7ZZdMq3H53MCV8eN4yJRw1ar4EcxfR0EUAk3AIDflrwYRa1H8IIMyy77GvNddi7PvvPc+rJf/l3InJWquvHl0tanX7aGSbsQI64+zzwvpm5eTp554La4jZjcxeedWBQLM9Q3CVWiJnmqmlPR9NMgu2P8D8MpvenoPJy2r8LAqnpSl3pM7UXSQEGoEAfmWmkseW/U9/PTe5Dwbv1dei5Bbfo4kXdjN0MEgwRlnaYbtt0kswd+dNuihh8P0sMFePP/l0cs7EC1PNDA7SmDPk0dZbbJZevue+B5Lrbrwl+s2hNbzj7snJNTfcnN6HGUS7liXMNjD9gWaHwERnnHVe0Gq9GJm46UFbhw/dhx91mQPR9q033zSbRcnvcWPHpr8HonZhkUUWTuv35FPPpOc6EQLzAgKYc5sZ/TvvvjsvVFl1bBACK3jGfubrDcpV2QxmBGCkHpn6WFxf9Hc7cTfBN1vmxf39JrrKT1V2TTVIjLOmleV850hLZE3+ijRzaOvIwzR5afoChjELHXXvbCvvC5V9phG/CTqAxA1NDgvlJ8JispaACWhv1l5jjWTlsSslH3/8SXLPffcn773/QdVVW2mF5YOGZ3xcqN/34EPJ2+80djGAmds2W24e63Pn5HsLTRHzKkwQD8wKl156qeSNN99Mnnn2+Yqmfz4fNEqbfm7DiO3Dj04tNIshHTgSlMBowfA+MEmE8A+rRZK0QWCGjK676dakLTBEWYJRe++99xPMImGIeA9ekwUz5Rm2PMfc94ImD8bRggtstcWmJXlQ5hqrrZIyZkjH7pp8X7Yqoc89nWy0/rpRE0ddNt5w/R7pNgk4Gt0Q7PMJ8OAJLcFlV1yTHH5w1z4m666zdnLTbXf4JCXntgjBDOPVoNnMIxapML9oMj8Igz5aiHJawbw8uMb7JSoXWi2+jTcCs5ytvz2LmSlkmtzsdTSXtDVL2PYvu/TSCcdXX3s9lPN+NknJb74LmPpZIehOXv8gMe9i5Jw+iRa4Gj9Dy5dnjeabb2TS2dHlqE4faCRharzEYosHc9CFY1sIIIQAolYC95WCgOJfH34Y+0Mexnl5giHf6VIh+BDf6athQVuEJ8/Tp9B6d4TIyZ9+2l1P+hl9BF+1N956q6wvqvUR+qJFVY3fa9BKY87Lt13L4mTxxRYLbVgkvO+W5N3AjFUqPw+H7DU/drz48oz0Nu9rxJz9aX2f4htbOmjwwf3Nt95JKjGFeRgQWGyF5ZeNY3xewCXrKwhPkGe9G8a/N998K8UwrWTBCe8af+bFFl00Bqt6debMquYTIuDiD8/3Q5uLiHfYEtYBWDaUG++tHdX0eYRlaO6GtXa7ruA/bPh9FgK8Fflgjx49f4Ilwey2oMWYMrWo2iXX6ds8B73zbmngJSuz3n5rbaHPlxuH88opqeScH+DN+2QO/OyzWbG+tQb34NtHuMl4PeOV12r25c6rV/Ya64KWMJ76fgEWKwdTWMY65q/sfML4uxR9NdTvrfA9ldOKDQRc6TeMjZW+kSw21f7mPTG+wLzNDGM0QuIi6v4Oe/azvL7Vm7HX6kAfWjasM3lPc9NlxNrj+5bVyR8ZQ+gnUNEaxKdv5Hk3g+cWFbUWYKaWec/B1Nn+d3Gz8wKmjTzGz2EEyQct3pQyvny+rKZe1N3nU+350YcdnBy4714lTIU9i9nbSf99atlgFUx2J//wO8kWm2zcQ/tDpMa7770/OeXUX1qWJUeYmVN+8N3kc2EhTz6eWBzddufdyc9++Wt/ueZzBr9f/uzkuLi2h7+TfDX6if38l79J7rq3J6Nh6bbcdJPkG1/5tzBwd2tR7B4RG3/zxzOTW++4yy71OO61+y7JF489qge2DF73P/Rw8uOf/jwsArvD3V949hmRwfMZ8X74gybf/0Dyw1P+x9+ODBmLhTfCAiVLMOmvhMmGQf+1MhJUFvdG2Qli5bFj7FacQIoW5ph+GoNHtMcsrTpu5fTSQ48ULxLufeChBNwgBA6eEWRgMW0AkzvtyyNb2LLAYBG09JJL5k5sLLgQaEDZRYjlu8sO2yXrrLVmj/7JwvFap3G09HlHTNR23WH7uIDI3sfW//KrrytZqLDIP+LgA7JJky/PiUTIjZsD0/pQEBYYodncOggwmCA9sVBGY3vJP6/qwXAQBfVLxx0dk88I3/qkSy7zj6bnW266cbLpxhvF31ddd2MIhJOPuz2wwOjRyb8de6T9TI9WFhcuvfLq5PlpL6b3enOy8wTe0RqpttryYvx5LIzR5Rh8S4sAYqeQD5O0Ed8pQq5JQWBX1O/pY/t+fvcoALDn7MgEeH0QrDzz3PN2KT0eftAXAoPQ5Zv4y9/+Idk7REllrPIMMYkRCN0Sxpgso4lg4qDgWwuhRX8smDvvGb4bm6jjjfAPn5ZL/3l1bv+3NGjLt9li8x5jDwv+R6aG8m8vHuMsj6LjKivna8gRtm20/nrxscuvIsBTe7JbiGpq/qaWH9r4q0Ofy/OlzWIw/ZVXkh223Tr1N2bx9uvT/2xZxW945/A9r73G6j1wBl/e09XB3DuLdZpBOFkvCIy223qLtAy7x/hx1XU32M/cI+947EorxnuYosFY5hGR7ugH9LmiyJO19nnmIeZbTztuv00wr98mXsJcHosKT+avZyad8d6UK3ySwvOVnOm792fKvrN6+q21Jft+fWUY803IR6TtK6653t+O54x/e+66c4wqnb3J2IGVCYLLcrT++HUSBJomALO0fDuvBr+tS4OfYzkm1NJXc/xq6Besk/4VIk1fcPE/gjvEviXrGvJ47Mmn4phDH7aIrn5MYUx7Ogior7y2Jx4DAVeiaC4TGBzod3/+S4nwK16s4x/9njGaeTi7zuQbI9pt3vroyyccG9cPjOO/+9Nf0pIb0YfTzOacTNh2qwRhtP/WeIcvvPhynCuz6Rv5mwjkxx15aMyS9d9vw7q2iPb+/G7pGIabzqOPPV6UtOHXU1FxU1P1Ph+maaM2aN7KEdq53Q46OpphlmMEyWOqY/6q3U+P52qpO+l7Q0cdelBcSHqNkc+Pjnz6r06LIej9dX/+v6f+NIERyn44pEESs+1WWyTnn3F6wqLPE4ubSyeek2w8x+/K3+OcxTemgb/9vz/LzTubPu83GoPf/eJ/egyCpGUhBGO6QdAa5tH4tdeM9/OYO9KzHcOP/uPfY/3znv/xd76ZfP1LJ/Zg7kgLVptstGFy8Xl/Lbmf4XFzsi1lghkMDwjMOYEsvPmjPfjQI1Pi4hAmu4hgCNAYQAz+2YFuXNDIGpVzNGZgsEUwEwoTrCfzw+HayzNm+Fsl534xYJpLS8AC2Oi9sPAuR6+93m0StErY1iGPVlpx+fSyL9cuwtyNX3ut3P5HXY4+/OAoUbX0eUfagAAF6XAeoS06/KD9S8poSkrfc95z4YH0MkF0JrCwzTB3JOBdsJXE8Uce1mPxX/LNuvzSjO3E3St5xu5nji555k73z6ra2J288GyfMOGsu85aPRbsPMD4gxab7yO7uPUZLhs09HvsslMJc8d92opElffsGT97lnDeJx59RC5zRxoWfQgrjJGx5zh6jD6/607B12NsbhuoP23sQS4DtF6MA1nmjmfwuWKhS5o8YpzbMYyzefggHKHuME31Epo0iLEFQYORf/9Yfey31x49mDvSItDBl5ZFSA9yGDCG7bLD9j0YL//MvnvuHgSva+bizHeCFQvfahEhpNppQn4UYeYJmPbces7JsPTb6f5+i8orul5Pn3dQ5Wbr68Yik2+Gd+8XnLkPFlxEOGf0XDChT8lVpDf9lvx8ndP855w0NXfjm5eO/s76x89LPg/GDoQQ+IUXEeMODHKWuSM93w7jLoKu7DxWlF+111uClvDQA/fPXdess2ZXMDTmLhg8z9yRP1ggzCLYWRHl4WVp+xxX1z/8GGHl13rke/y3INzgXeS1izGTOAUIuaomV8fe9mHKRDBOVPHst8a7YyspIqD3JSHERBAIMc9l125WNvhh4QUxnj9RQdBrzzXqmIqufScsl3ktjJfPp5qgKV7bx7PRrNMxfT4/f15t3f0z9ZwTjIJB3AgJPhKrl6ZPT7bafNPQ4daLkz6mXmf+7lfJocd9qYfJE9EeGVAgXjg+TLfcfmdkzrbfestkTJBW0imQyJz0/W8n3/7hf8a0/IP5IW8ILdZtd90dA4BgarB9WFDgO8WzawVpK0xiOU1ZzCTnHyY0EH5j1AuNz+phcDsoMEYwkORPvfY55KiSp1m4/eKnJ6cDAiZXaJYeePiRyBBibsnAwfP//ePvJ1/+5ndj2y0TFhvbhfYb3XjL7UGDcmVIn8SAJIT3j9qjwPQefdhB0TeOtCf97LSoUTrioAPSiYd23xM0d9Czz02LR/7x8VNPIxZq+LHVQkgw0RTRDihPGuMXLEVaLisTczBbZC4WTL3QpBl5yXw581sYRSRXtI8/JmIzUzKNB3lWMv/1dS1i0lcp438HnjB3RphlPhMkwfSF1VYZF52vaau119L5I/cOPaA72icSe8xQ3wz+kCuvtFKyZth2AqYMJoJFG5JECPOgfwSNG7Rr+E6tDLvGdfb7g9AI+EUK2hxMbDElXW7ZpZPNwyRPGWiaOL/p1tvjc33571+hH1hdPx8k5MY8XHbVNUlHkGxDM9xiv966oGEwDRHjz8vTZyRPPvNs7Ddrrb5aaP8ysW9jfrXzhO1zpdaUbWaEjF9EbqMfEwEQc2G+DfAnkFBWQwNDQR+FkKpPefyJYJ71amjv8GTD8KxNhmh8Hp4ytVAzhPk32ogpQRqKxJbgFwi+bKJFmEDgoaIAJTCoEKb1Tz3zXPJOmLARzrFwsPrtEZjI8yddHNPZPxY9tMEILRnm57Nmzw64jgn7Xa4c2w+TyTeLb0wtxIIFs2SIRQTvKI9guiBMxXl/jBurjB2TrBZwYcFBGw4LQhB8iNGs5BHvGOL7JGIjY74vj4W4CYi4Tho0dh3BZHj18D2PHdO1lQPf0u477xg0eTeWFMM36hfFvO+nnn02muPRf5hX6CdWRsnDDfxRb5+/+LIrY79iDKAvQeyl+eJL0+P52+90b18Bo2t4oom66bbb496imL5+Lqau/G/F5bsXgnwTeVRvv83Lq5Zr9CeYcRtX6VPPhLn12WnTkoWD4Jbx3eoGk8d4lrVa4D2jRTXCguap0Hex7OF7Zvxg3KX/InxhH7VGkdWbPs64Qv3XDXMVwkKI7YyMWPM88/zz0TR4g8BE2LunjtfddGvDtIuU1whcrd6NOm6z5WapcI5x/bqbbkleD+8KtxsYdNOos8Z8ZEpt4xt1tH5S69jr28e7YM2DtQnxBJKmwC+E92lCEuq4+qrjoubVP9fI8ymPPZFsvknX173eumsnM2/sXrtZOdTH5hOEdUVjsaVv9LGbwZuzYK21gEpauehPt3YXQ1Pkg1drmdn0ttjOXm/kbxZc3/ral9Ms0fBgLmhEsAsG+PP+fHpgRFriZuloq3waFg9esvuHv5xdsnEi0RhhctBkQZgysMg334ONN+ySjDHZfvtHJyVTH3/Sik9uD4zK8UcdnhwSTBCgbUJwjnoYPJ5lIj/ha99MJ3tMMjH5Of/M0+PiBc0ibfSmkqf910/iNZ6HUTjo6BPSxRnMGu/ob3/5Y8QIX4lTT/lxsv/hx5I80oH77m2nyZ333Jv8z69+nf7GPALN2n/96HsxH7ZDYOECwURCu4TFqC3apwRcKDNLDAjvBz8u22fIS8ezae03i5wYRS1MPDChZu7IfcxY8srx0sl33imvNWNys4XBqPlGWbHxaAMD77uSbxRMnjGEo4IGYtas92Metp0BP1gMliPvP2oTYja9McjUyTMcvF8/eWP24s0xeYfgh4Ck3Pe6b9BKGHPDZExwGqPnnn8hCAwejQw+2DB4whC8NH1G9AUy3yF8Qqz+ds3y4Ih5M0QbMKVj0WaExpVnzMTXGBm731dH6mJ1nTV7VorBtBdeSr+j3pYN8+Y1Y9fccFOJyS4TFu1F+wOttsrKUahS5Bd3R/hO773/wbRavIeZQQsMgwrhF+EJwceCC3YxL0g/z5p4QSqIIB0TtW3aSx+B4SLPPMLc+Jy/XVjSp+ljCF8w14VYdBcxeNxn/GTxYsSC44Xw7g8LC1kI30BP9DkvGabtYGCEICJqA4KAAdphu60jA8u4Uy2tGPqz0UvO/86u+SNt81ujYL57x933Jiccc0RcKDMOoWnkPRcRY1ieKR7YM/8YXR72/OT7M6Ktvq+wQGaxbn2YdJhX2hiG/w7bwdDPId717Xfdk5x47JHpuBVvNPhfb/q8WV/QNlvk47Pl22jVHb9OF8PN78uCKbVtcVCtPyfaq4XmfBsI4gwny98fa+23/tl6z7cNTBsMOwQDe9b5FwTBwIdpdozLCKg32mC9eG33nXeIAlxb0NIPvFYdoYo3eeTbZcxGcwQWzFv0QVxeGkW8zwsuujTNjjLRgnsBw41BmOeZFpi94448LNXmo11vlJk8FektrmljGnhiW3XQB88MZtE2/iPI4+/QEJEbJg1mnPVAnil4per0tg9Ttwv/cXmJhQPvBcsOxn1opRVW6FMGD1cAY/AQcGTNtanDeuPX5hCJb2RuU3N3gYEFroLwo6uFSI9JJ3+Vns1q+Sql765HdXXvTl/72Z5Bg2QLUxbCPwl+dllCInXKz3+RXkaa7emAfbpNWWBY8oJvwJThQ4UfBYsgrwbfbf+Dkx323D/Zca8vlDB3VgZ7mBmtGaTx9dLXv/vDHhMMEuIoKZmTqV8ooiVaYvHF4x0+vK9867s9FqVcR2uH3wiEZBOJkJExOfy2ScHucURTSrtp/6HHfdHfqukcJhpfPhYXMK2VCF8ypPJIhDxzNzks7rISa8trWBAGGL39breU1675o/cpmX/UfOktc8rlAsxbJfILifkdo4jJrRFainLktYSmKfbp4yJkzibpLEL8wpX3Z98HGgHP3Fkeb771dvSDs9/ZI4ydLaRYwF9wcfdkbGkJIHHTrXfYz8QviNOLFU74Tn7xm9MT/Lg8c2eP4ahtprML52wKb+nmtSM+h0YsxvP8MdFkwugx9iBYwrk+j7jvmTtLw8LNvl9j5uwe4yaYgz3SedMy232OTwRtqpEtNOy3P7JVSJ7Awvuf2l6C/jk7p3955s6uwzTBjED0ZzT2RggUzCSIsd4zd5YGwYYxADxvzKbdr3Q07Srp/HibfQ6ML7r08uzl2G/9vGLS8h4JwwUwyGPuSOvnnalBy+qZO8uLvuK3IPEBqkhjJq6ME3+76JIecwoaWL/gtnwbeWxkny9XLz/m2oK4XPrsPdPecR1ci6iefluUVy3XsZwwujxYFXjmzq7j92pzCH1/7TVXt1tRQ2fMPnNVVrNPQsbca2+8OY49jC/Lue1u0ox6cfLP4LedpUendvtD8U155s7Sen/g5ZZZxi435NhbXBtSCZcJ783GONZseSvrv130jziGM47Xw9w1og8jmMoT0N9+1+S0NcsuUypgTG806IT+yjwAoXXOjvVgiQAaos39EXE81eDFWlTxL2tGWcUjgyLJZp/rCphAYx58eEqPycoaibYLJgYtFX56MD826GEbbITpVRHlMY9Faf11v+AeNqzmVxuzIjpd0cbdfFC2AEHqZdqzrTbfLK0Gi3jr9OnFOScs8PBXM03btltvmfwtMFwQDBNmrtD2YT83/PWQ0LNgaiTxUbLVQbUEFkRwhJBYGaGNZUHDxrflBrnmClt4NIdBwKgz8eZY3ecMFJXIJ/H5MEgbVbLPr1TXFZbrNm/N+gT6vee8WayVbUf8bP0WEnad45gVV0x/EhGxaKFk0nESI6FvNDHB2WKkGuwbXX41+fH9LRGY6nL0SejrMGtGHqtH3XW7b8frb741RKSxX/nHmTN7mqNYyg/DN8PiHuwQFPiIl5am6NjutF3Dg09PEWEWn0c+iprXXmfTvlMm4jBRVE2bgrmkjYerOr9UY+Ky+fIbzZtpBdBCZH10856xa0jEIb7bcuMK2vM8BplnMe9jQUE/tnZwPUuvBW1UEfm+8phjurPpGZ9Na2OBHkgDbvYNIcQyDLPPI7BBmOmFZ9k0vfnt29HbPl+uHuyTaj7DmBcyNz4czNc+DoxKNeTXBtNeeLHwkXr6bWFmVd5AsGcWEfTLcn2fhTd+bBBCUWOYvF86DJOfl3w1MOvMmnZyn2i1HiP/THoe6vZgEJznzRswb3l90EecJQJuHr3prhvzk5eu1muNwLVcmQiJs0KXvPTM14YD7wVTagKp8f1iDYBFFcLAPFzz8qt0rRF9uMiyA+Gy0ejRo+00Hnvbh0oym/MDRQ0uIRBCMa/Fw0/axkDM+PuDulescXFZeSGZrWS1fnLZ56r5DTNZHXUvYqtLX3sqk0by5ONPla8XEmDzYWLhawyemdCRB3bg9RATJyZU+LQhnWURBDPZqIWo9yvI1s9/PD5y6dJLdZsyEZWtHCGdNAbPm0Dhs3BMCMxgPoD44/CHGSiRtYjqd9FlV1Q0VSxXdj332LjTEz4+RG8Ce/MVOOPs86Mfi6Wb5UwE0SJ8/MondqvH0fvrsVWGkV+8lVvoWno/mPl8zLyXdNYn7ZnskdDhRp988qmdpsdxPrqfM9cigZeW+WAt6cNzTpgkaJuZYfr7fjGKNOybX62sqcXss17ClINFO1JZfLj4jmxArjfPufXclptt0kNimC27y0etm8HzgaEId90bKloMkScR1IzyhApo75HuwwRhLo1vLaHMaxnDMN/NI5hao3L52Zhsaf3x06C5zKMF3IIBAU9RMAnfhxjrKkUVtLJ4zszH8Qf1AjtLY0fzJ7Xf2SPP872TJ3OGH7stLdtaFJHvK0VY86xnqP04tfxy3YIXv0DOKw9hTl8xeL4dve3zeXW3a/h8r7bquCgEBHNMt/iL38Ivv2HJCo+YkxkVLV65X0+/tXzrPS4Q+o8RmrVy5IUZ/p36c7bIqJXwpzJzuHLPPh2YxzzNPmb7lahtdltuEnxO+4IagWu5erFmrbSnLc/j420MHr9vvfOu4Du7C6eRsd95wnbR/QLG78UgWENr77/7mLCGf43ow+XGJEyIYZ6z1Ns+lM2P3wRNIcow3/xqq5Saaa63Trd5JlZj/UEpCkUSlblZqXoDuMyNuuPXZDTtxZftNPfofZl8kAsWkBD19Yvw3ExyLsLwsC3AYQfuHzVpSNUs8ElO8rou1YPlwgsulJZVtC+aJfDO4978jUX/ESd+NUr8fB3w9cMM75jDD0muumhi8h9f/4pl1S9HTFUxUTDpOotIom95+jTsj2RUialaaCE/eXYvTnneFniU4YUDlrc/wmwa+UnY9zOTMFu67NHX1TOGls7MDfid1eB5RtUHa7Fn/bFIqm2aUkvLoFn0Z2n8otKuVTry3dCfsNdffdVVYjAVIsBR1mAmkz7Tr2D+ekP+G60lH5z0CS/NYg0mHj8x6lWOGcvL376NvHvVXOsMe+nVSt7cmWcr9U3SsCdntbR80EYbDtnvK5uHX5Bl7/HbM3T1RCS0vsJiqZzknn5gfcl/Pyaooy6VxoN3KvgGk0e9ZO1oRJ8vVweYCixOsvOf98cueh7cbC5EOFyub9fTb4vKrfa6ae9IT/CUcuTftZ+TvMm/T1Mur8F+rxG49gVG+CYSvIx4BZ7Q6hHcCf/0E4NmDyureqgRfbje+aee+pZ7hm+VIF9Q1kzThDasx7Bs6w9KNXhsptvUxX+UrQd+cvwZM4afXNZ3rmwGZW5mfe6qzdc2Ai6Tda9vYUayVNKlqVpt3MpxD6WiTD1T94Z7sUyULCSZxBnQK0U19PnjC3LaKT9JFwCYHGAOgRMyAyYTDD5WFqDFP9vX536xYdq5ojK9z5RnhElPIJFv/fCkGKxlr912TdBSEK7fpH/gtuuOE6KUtLd7/RXVr9rrmLERRh/KmsoRWMWi+ZljelG+84eQ5kZZSTfMmW18iyYwz+acZ5FS28KQBRl9w8hvPltpQPZMWlZCxyLEtNgsQijHE33A/ChZ3BWZ6fKM92vyeXhmlEHR+1P5dJyz+TCbCM8ukLpm0/vfBNEwbSETBcz6W+E75RvHhBft5d577JYrBfT5lDtvbq7dGqJcftl7l191bWo2lb1nv+Mmy/YjHG384V3SZyoF7nGPNuR03NgxJYF4YEJeeXVmlB4jUED7tmQIbIJ1wkAkr9XGh9GEPHl1tf6Zp03IS881vzXJc9NeLEoWry8+J9pxUSIiGxqV07ZamuwRE09M0pGEM2f5McWnpS+Z6bofE/yCxs+H/lk7r3Tf0pU72viXTTM3+zzvGuEf3xZ7TKKhLucDaXUtYeynz7DLc/1YhKE3bawksPDv8hOnyf84jKlGSwZ//XLzg6XzRwJUVBPcpJbvzeffl+d9iWu5evMNZqMA56XP883H/5c/5nwCR7FHI++N7x3CKoCtcAic5PtHXv4D5Vpf9aH7gnbOzIfNTJO5zrSI3k1ibmPRzeB1EvyiCg4vU0OCp1SKpJl5pPBnLfvr+Uw6Y939lcaf+2AYRNX6xxVXFRbiF9IznMkiixgmS4hIfnkRGIsyhbGxgYKF8N6HHNlD0mdMRVEefXV9pjOX8n5aeeVZWGLueXMOnxazTPA1jPlo2CLC/FMIz9sXDB6LftuqAYdYwucXESZQRlkp7fMvvJCGXcYHp4jQyplmjsWRXxTxDMz7mquvGh8nYl0Rg7dyCFdulF3MeW0zDBwDdJGE2PvQZB2CCYhj/S/PDBfJtUWvWmbpJXP9KKgj/d++AauzHb3WAUf8vhgYWXwZc0e5fzrr3Bji3+pgx7b2tjBAd2tF7bqXHGbfu6Xh6McAf71R52Dl8aomX3zhDHveZzlfmmryqzWND0WOH05e0IP5RnYHGqo1/75Oj2+hEfNBo/unSXwpI2+PSSubY1HwG0tj5l+MKz4Ak92vdPyMvjK6a3lAWUQYzSMWfUZEfzWa8eqrdpruGZpeyJx4piBzq8RXCw1/VihIenyNbGzKPt8ffR7BCWZsFoBm82ylMr9tccjlcoF1Mo/V9RNT6CIyAV72vjfl9VqnbDp+e4b2oyAwM8K8z4g0tfrWgynWMwOV+gvXcngwz/cWM8Y5gknxh7UYQYu23GzTLsFP+L1mcHPoj+iQ5dpddK+v+hDrMgLhocEzM00fPZNom/1F6dfe6ZzbK1Vm4kWXlSQ59aTvlfyu58fhB+xTz2PxmVrqXm8hOJoawZxhOphH2OPaZAND57V0nmHwETWz+Zzyw+8ml086N7niwvPTaGZbbLJxmuzK667PXaT7PYfSxHPh5LY7705LYbL2pnzpjXDCQsGHTifqltESiy8W9/7Lm+xx1D7x/3wrjcDJQJOXzvIqd8/S5B0/DXb6RMzkb4dtt8lLkl7DgdYoG+XSBwHBDM377tgzHL2m4vWcyevp555Lk5dzlvb5PB8YU09I3m1yRaKEZDmPCEZgQSmQ3mclrBZch2ezzB/XfDhrzB5N0sc9Tz6qnb/Oue0vxTkO0d7Eh2ueMDsjTRG2Pq0/987+mAvnLX7xESsqG2mlMXmYrBSRX+gUpanm+mgXxbGa9OXS+Oh8FhgjL/3OE7ZLvnT80cmXTzgm1UTnpav1GnvIGRUFOsKPaaASghsjxogiQqNF34x9OAgUqiHmDDOR5nvlGyxHywXBkQmHsunQHJn0+P2wDUs95LWT67tQ39m8/ELGC6D4rkyjh2CJbyqPGB9t3Mm77xm6JQKmeTQ2aBeKqNF93rtq+DKxtOAvz7fYp8s798GlfH3z0tZ77cOPuhgs+llRG3w9fDkwCjZO8ny5CN0s+I08s+ojUfKNM4fnEXnb2PO5OVsu5KUbKNf6G9dG44BJs/Xl7ByONhx/Yu9P5sf0RtdlXsrv8WDVCLFuQNFiwjrWUVgF9Rd1M3gVJhRfQUwnvflk3OuuYOFoe9/59D4vzmHustq7WrSCnTXUPVt2tb+vueHGlMFgUXnaf53U41E0TN/5+lfT65PveyA952SSC/vOgvnEY44suc8PnFsxTcQskcAP7DcEeYmojwwWb4Z/qNFt/yq7NreOaBKIIgYxAfz6tP/uMdHBEP/+lz9PmV9MAD0TcdYffpOcf8bpyd/PObNkrylrA4sZG3AYaLKOuv4j8gyPPW9HFt7s47Lvnrv30LJ4CQ8TNQvdPOL9+3svT59Rkgx/Qs8E5b0XmFC/yL4tbNuQJUKTmy8c2iL2GcoSjrwsJCEmYpMa+3R333d/+nPCtlv3MO1jUGfPKqNHciROK63YFe6XNC/N2ejX0nNE+2iaQRZsecIGsN96i838YyXnMMrWJ1igsqeZvXOfkDzwA2DD+z122dHfqnjuTU95j1lCG+D3Osve57eZpDCYW7REn44tRMys2F+v9tw7+68aHLcbRX5LCIQwG8/ZD9DnjyM6fnK8wxHDR4QN5t/yt3t17jWOeUIYxjDT0veqoD56mI2djWlBwJD1vaVYxr+Dw16k9E3+2Hy3Glp26fIa8mwefLOUkyUWZ5gXG3mfZ7tWzfFhtzckAhveTZboK+PXXjO9TEQ5TxawC0wOOWDflOm0NHw/B+1XXrDrmca8/sr3uuP221qWPY6N6PNegOcFXVYYWq0vHntU/Pvqicel0TTtfqWjMfYwUcxtfUEzX38zzXbrzTdJz+0EAesaYeP5Ipr6xJPprd1C1EBvzm83dttphzRIEHPBk08/a7eiZtJ8NZnL9t9rj/SenWD+Sd6MPWBqawq7PxCP/Y1rozFh2wbryyccdXju/OsFMjNeea3RVZgn8/NaTHz7TcDmx5/+aFirFYrjY2dHe9LUnK+ZsnR2RIu3rtPcocWbePFlPcw1IzN48s/tsR5HmEPP3JGg+uiZIWBJqHMjnDZ7VCxzAbPBk3/+i+TkH3wnTuIsrGFGeIFENNtwvXVjwAYmM4goP1kzQswS2JzxoP32jmk4siE5WyuwqIMxGRNCCxvhg2TRFK+67sZ0A+EtN90kOfO3v4qbm+OrtPEG60eTTyvbnp+bx2/94CfJuX/6fWTsWDhfOvGc8B4fj2aOmO4h6TXzDiaxb3zvRyXVu/WOu+PgzsUvHXd03GT3jnsmRzNOsGUDd2ufn2wsE8zNbJsFJuGzTv91DFU9+YEH01DNpGVjUzOtg2nEZ8LTfQ88nOy1+y7xEgvdMUE6/GQIEfxq2MB5+LDhcfPVtUIEQHPeZ8HnNZiW18233Rk34qbOLGaPPeKQ5Iaw+foHQaI+buyYZNuttkzbA1PjFzKWB8dbg5aTiROCIURrNPn+B6OwYf11xycbBPNVo/uDdM0mUbvGkU1FYYrAn3ofHwbuG265LZT5aty/EK1z+m6CsCTP982CJrAIySuDcthTyxhFNBxsEIvkFuYbRqicuSrPQxdffmVywlGHRVNCgsJ88bij4uLg5emvRKaJ6Is+aEQeY9yVU/5/sE5DyAc/WPwoiYSFaeuKYRsI3q31j/wcgmlx6Aurju7S4CAowAQDDSYTH9Lp3jIp74Yw/RYQh41w8dEhLD790AsyiupXdB0mnL66bTBxhjgiMX/qmWcjc85344VHU8L+Z8bQFOVZy3XCcZsZOZseIwSBaRoV9mpkzzvCqg9kYtH6j39emRAGHxofmLdlQwTWaS++GMb7t+J3jqbd+g/9zDNK5dq2yrgx6e3ng+9LNcS4graDzYeJRIl/Mzja4oK54eYQfbgeYj9A9h61yIW77Lh9HMN5Z2iw6SvepPvBRx7t4ZN4WdhChjGA+vBtfOn4Y2JdmRvp04yDZjJcVMfpM7pNPYkweuwRh0YhFt/B0kH7t2EYE80HMC+PRvR5/HON+LYREIIDYxImcNSFcQUfZARSCKawOpn2wktdjz1bbKKF0MvmNa81tfIadSRoj5lI02/R4uHDD6GFgYG3euSVyZzA2oR9SmkjAraXpk+PVhf4VBON2Pub8+6zzOrfL7ksOfTA/WM5lEmgDsaEt955J84P5G8CPUwDi1w48urXX9cGAq6NbDsKhR232zZ+s6w1eM/sg0lkV75h1nFeyDH1ie4ozY2sx7yWF8JL+ixmzjZ3M1/k7TU7N9uWMngU2hEW3i3Dq2PwYNxg6DxzZufVat+ymjvqQJ7ltH2k8USd5xYxyJ1+xlnJV048NhbJBLvT9j2lh9isH/+1f081Gr5+fw4+P/i/GDPCJPmFvff0SeI5H9Rp//u79DoLZRaia4UFGRQXRGEy94QJqN9c1N/r63Mm0q/9x/eT0391ahgcWuL+V5tstGEIJV4aMIHFwb9//yc9Bm+2I9hi089FrRoTDXvp2H46vu6Y7LDBZpaYUIguapFKWezwx0TCZAsxeXjTOxyFswTOV19/U2Q2qQdpNt14o2yy+JuJfeKFFwdfqG7/AkvIB3/ltden4YaZ/IyxtzQc0dDB9BcR75StNkxSvlrQ6PCXJRYHeRsvW7qJF16SHBOYTBg8tJN5mi/ezYVhEs4ycPRRm/y9JtnytiMLTUw4LHw8g11Wm8ogSDkmtbZn7UiEzfMDpkcdelB8XzCeRO7iL0s33Xp7j36UTZP3m03uJ4S9FiEG42w/Y2FM4Ca0IXnEJu4wQtQNXGxLD58WhoxFbD0Eo27MDn3WzIaJauY1w3Xl/dAjsc0IqCAWpRYcx+f3StiaJE9w4dPUev7oY48HgcT4iCvtyuvLfH95/bvWsvoqPeMy79/2PmIO4C9LTO6TLrq0oqmlPWcmPfz2Jt52P3sES94hi671x3cLeSwdjDnffCVTT0ufd2S+w191rTVWj/2cccAzdfYMffKW27vN7e06Y6BniGF8s98y9Xxu2rQoHLXn/JExFlN+s15g3NhpQumcSyApxldjDvzznN/fyz7PIm27rbeKi17ygynjD4EtfQFCYHbQ/vvE8ZU5hnEvHft+dn1Mk/cPJtcIQUFf0WNhvYYwx9wnKNeXTbn0bbufV49JF/8jMNiHxT4B047QLs+C4fqbb83170VocPnV1yb77NGlYWZu9VYsVibv/JIgSJkXaCDg2kicugTW4XsL8yNzG9+bCQSz5TA/1LLHafb5wfYbQS9baBkxjjMP9Cc1+8Lb27uj7/nrRecwcjBknmDyrrnw7Gh2aZE27b6ZcsLYofEzhtDu52kA7V7RsdY6F+Vj122T6LAGzSUCf/z+z39N/Zp8IhaumCXgL+YjAvo0nJ/0s9Pi4j8vMhkfzDVh0jj2y19PzfPs+a99+/vJdTfd0kMyRrlMMF4rlq0/m68bZTtduXv2DEe0mEbejMyuMdETBbNIG4W08/v/+dPU7NSe4/h+0Gztf/ixCYv2rOSP+2gyb797cnLAkcdHjSnXPPH8d35ySpQQg0ce0W5TmZPmzsn35iWL9Tv3gr+HvV7eztVgYLJDRC/2vyOiZBE9TbjhK68u2RfMp4UpO3vipIrRDHnnd997f+5gQTvYUPfiy67wWfc4B59z//b3HoFcLCHtQJuZJzX1ErvnQrvLEcwTm/zmaX5gVsG1I2jdyxHmtxeEuiAVzyOuU1fanUeVNPqYkiEQ8Pu1WT5ogs+ZeGEPJtfuc+T9ExKd/pH9lsjzsquuKQlKkU3jf+f1VfoFwgFvTurL7+35DTffFrUzueNPqD/v7wKYk4zwzNfbn2fr432iO9y3yNh25rkT40Iy+zzf99XX31gSuKQjs5VBNftR+S8/W4b/7evVo/6uznkRmlnYX3PDTQmCgCzxPhF0MDYw3mXJ3rfNM3bftNLkaVYbdi/vyGbqCGNgorJEVOVJl1yae69aDCxPhF0IbbJCH+7DPDKe8i0VEUzDFddcl6t5ZsF/1vkXlMylfqN7yxOz8zvvuS/3e0UgQF81Mnzttx3r7fM8z/fOeETgm6L8GTf/cObZsW/njX1Wj+zRBDlcLwp6VO0783XL67fMEcxb2XdJ/mhr77hrclo9X6ZdpF2M3/RvX5bdp+8yV5ULPoTbAcGV8vot9QKDM846L3cvOyunnmN2LLE8/JhSNCZ4LPLS9DeuReOttbHW40OBUTknrBVMGOuf571z/bxJF0XBib/HuY1r2f5RCUPLxz+X7cM+D5/OnrWj1cGnt3u1Hv379jjn5YOm09fLm23mpZ8b15omfH4/PycGDd6IpKV1eE1l52niasogJK6LuWublbS7PcdqLbO36ZdYfLEoBRsZTP0IkoFpTTWTs5WLhASzNSIkElKYgRE/sGqIgCWYPlIujEQjOnM15VabpstsY+Vk0eBgz4AANnmDelF+PI+0lw8Gk8xyDHM2DzRUOPUj0cUcyH90pMWkh06fXcBm87HfaHLAmwGHCJK1vGPLA8koAQWI4vheMMHDNwZcaiHahVbSItexNQFmQkg8ayE0NkigFxg9Oi5SMTHO7t/k88PkiLpDv/njmaH93dHyfDp/btI/yqB+MCv19FHavOjCi0SNMFEMaXM9+fi6+XPyXyqE5mexiha62j7h8wBP3ivaZQtG4O/35hwTNupI36v1PVdTLlJ0tmyh/W+Eb6U3Gp9qyvNpYGrQQPEd1DI2+Dz6+xxTt8WClJv+jpAEQUqthNnq4Qd/IT6G2RymznmE1hltMcQiGeYGou9hOsd3wXfWF/2EctDmWXTYetqKj9VCYVymnvS1LKNBGZUI7RhjEWMwApZ6+mtv+jyaqxEjRob33e2Lm1dntPv0b5jDX0/r0vL5dAePHh9/fvOrX4zzFO8M66C5RbwLtJ68Rx/IptrymVux0MDXmPf5dhAqFO1vWpQnGLH9D98OQrtq1z5F+Q2E6wMB10bjgJUL264QMJC1iygfAdaJ+C9CfPe/DWul3tKkD6f2yMLGjh43ci70YPCamsK+NvPlmyblPF9yqR5GL5p6Bk1gLWaZVujsTz4Ki/f+VYFaXXQUAoMVgf5ahAxWPNUuIeARIKiW+bqhxSzy2yhi8HxeOh94CBQt0mBUEZ5B5Rj7gdci1UgICIEsAgfut3fqf4/FweT7H8gmqfl30dhRbUYlPng8BMPUPvuzpGXYiGrzSNN537us+WWaaM5Jbxg7sqCOYu6yqOq3EGgsAminzLel3oh8ja2RchMCgwsBH1jreQvMMbiaqNbkIOB94IrMM3Me0yUhIAQGCAJYiqHJXjsEKbLgalgV3P/QQwOihj0YPGrVHjYsbW5prTqipm+JMXkczQdv3bXXKImMWY+2zpdB5EzqKBICQqBvEfD+d2lUuL4tUrkLgSGFgJlcY6Y3GMzUhtTL60VjCZRmVG3kVEuvoxAQAv2PwIH77RUD8fmaEPm8Fj9c/2yjz3MZPAppC75tw0aO6lV5xsjZsVeZuYepm0gICIG+RwA/EvN50yKk7/FWCUMLAXyN8efiG8vup5lFAr8O+xbzAuRk0+v3wEYAfy3eJ/tqKhrhwH5Xqp0QqIQAY/K1N94cY2JUSju37vfwwfMFN7cOS1qHj/SX+v28bdanYTuH2qJ99nulVQEhIASEgBAQAkJgyCHQWz+aIQeYGiwE5hEECNg0bFhr2N/4X3UFjarUzN6OHYUaPAqGkQpbn8fImpUqMjfuEzFTzN3cQFplCAEhIASEgBAQAkJACAgBIZCHwECP/lyyD15eA9r7eSsCqxPMHXURCQEhIASEgBAQAkJACAgBISAEhEA+AhUZPB6DscI0sr+IssXc9Rf6KlcICAEhIASEgBAQAkJACAiBeQWBsiaavhGYRs4ODsGtYSP0puYWf6vPzomWSUAVjiIhIASEgBAQAkJACAgBISAEhIAQKI9A1Qwe2cBozf7047BH3vC69skrX5XSu+xzp60QSjHRLyEgBISAEBACQkAICAEhIASEQDkEamLwLCMYr462tqR52LCkpXW4XW7IEVPMjhBuVJuYNwROZSIEhIAQEAJCQAgIASEgBITAEEKgtTVo49rq2DQcBiwGPgnPtrQMS5pb69sYHazRDMIwtreH7Q86xslDXwAABDVJREFUO4cQ/GqqEBACQkAICAEhIASEgBAQAkKgcQi0Ng8bkRBppaMOJi9WIzBkaN34a2pqTppaWoKPXjg2cWwKx7CLa9hqoYs6A/8W/jo4todjR9LZHo6BWRQJASEgBISAEBACQkAICAEhIASEQO8QiCaarYHJawv51M3kzakDjFpnm5i13r0SPS0EhIAQEAJCQAgIASEgBISAEKgPgXSbBJg8zDVFQkAICAEhIASEgBAQAkJACAgBITBvIpAyeFQfc83WESPnmFXOmw1SrYWAEBACQkAICAEhIASEgBAQAkMVgRIGDxCaQ8CU1hHzzbW97oYq8Gq3EBACQkAICAEhIASEgBAQAkKg0Qj0YPAogI3Mh40c1ed73TW6McpPCAgBISAEhIAQEAJCQAgIASEwlBEouw8eG5o3h6iYcd+7dsKwiISAEBACQkAICAEhIASEgBAQAkJgoCKQq8HzlUWbh8lm64hRSXNzWX7QP6ZzISAEhIAQEAJCQAgIASEgBISAEJjLCFTNsaHJa26ZL+5bx4bknWFj8rCb3VyurooTAkJACAgBISAEhIAQEAJCQAgIgSIEqmbwLAM2Mm8Nf0nYUaGjbXbS0REYvbhZuZg9w0hHISAEhIAQEAJCQAgIASEgBIRAfyBQM4PnK9ncOixpTobFS50dYZPzzvbA8IWNzuN5OHYGpg++r4lTMYAeO50LASEgBISAEBACQw+BSR9OHXqNVouFgBCYqwj0isHzNW1qbg58XHMw4/RXdS4EhIAQEAJCQAgIgSGKwIdDtN1qthAQAg1HYPioBarOs2KQlapzUkIhIASEgBAQAkJACAgBISAEhIAQ6FcExOD1K/wqXAgIASEgBISAEBACQkAICAEh0DgExOA1DkvlJASEgBAQAkJACAgBISAEhIAQ6FcEGuaD16+tUOFCQAgIASEgBISAEBhgCBy55BYDrEaqjhAQAkMBAWnwhsJbVhuFgBAQAkJACAgBISAEhIAQGBIIiMEbEq9ZjRQCQkAICAEhIASEgBAQAkJgKCAgBm8ovGW1UQgIASEgBISAEBACQkAICIEhgYAYvCHxmtVIISAEhIAQEAJCQAgIASEgBIYCAmLwhsJbVhuFgBAQAkJACAgBISAEhIAQGBIIiMEbEq9ZjRQCQkAICAEhIASEgBAQAkJgKCAgBm8ovGW1UQgIASEgBISAEBACQkAICIEhgUDrWquvMiQaqkYKASEgBISAEBACQkAICAEhIAQGOwLS4A32N6z2CQEhIASEgBAQAkJACAgBITBkEGiaNWtW55BprRoqBISAEBACQkAICAEhIASEgBAYxAhIgzeIX66aJgSEgBAQAkJACAgBISAEhMDQQkAM3tB632qtEBACQkAICAEhIASEgBAQAoMYATF4g/jlqmlCQAgIASEgBISAEBACQkAIDC0E/j+cloO/CB6iJgAAAABJRU5ErkJggg==;" vertex="1" parent="1">
          <mxGeometry x="370" y="-140" width="348.25" height="40" as="geometry" />
        </mxCell>
        <mxCell id="fpwWL5qKGAFFPtYYpQE2-5" value="" style="endArrow=classic;html=1;rounded=0;strokeColor=#FF0000;entryX=0.01;entryY=0.519;entryDx=0;entryDy=0;entryPerimeter=0;" edge="1" parent="1" target="fpwWL5qKGAFFPtYYpQE2-6">
          <mxGeometry width="50" height="50" relative="1" as="geometry">
            <mxPoint x="389" y="430" as="sourcePoint" />
            <mxPoint x="450" y="420" as="targetPoint" />
          </mxGeometry>
        </mxCell>
        <mxCell id="fpwWL5qKGAFFPtYYpQE2-6" value="Link ảnh, bắt đầu từ /hoangphuc/ link ảnh" style="text;html=1;align=center;verticalAlign=middle;resizable=0;points=[];autosize=1;fontColor=#FF0000;" vertex="1" parent="1">
          <mxGeometry x="450" y="410" width="240" height="30" as="geometry" />
        </mxCell>
        <mxCell id="fpwWL5qKGAFFPtYYpQE2-7" value="" style="shape=curlyBracket;whiteSpace=wrap;html=1;rounded=1;flipH=1;labelPosition=right;verticalLabelPosition=middle;align=left;verticalAlign=middle;strokeColor=#FF0000;" vertex="1" parent="1">
          <mxGeometry x="350" y="50" width="20" height="270" as="geometry" />
        </mxCell>
        <mxCell id="fpwWL5qKGAFFPtYYpQE2-8" value="Range giá hiện hiện ở trang ngoài cùng" style="text;html=1;align=center;verticalAlign=middle;resizable=0;points=[];autosize=1;fontColor=#FF0000;" vertex="1" parent="1">
          <mxGeometry x="385" y="170" width="230" height="30" as="geometry" />
        </mxCell>
        <mxCell id="fpwWL5qKGAFFPtYYpQE2-9" value="" style="shape=curlyBracket;whiteSpace=wrap;html=1;rounded=1;flipH=1;labelPosition=right;verticalLabelPosition=middle;align=left;verticalAlign=middle;strokeColor=#FF0000;" vertex="1" parent="1">
          <mxGeometry x="710" y="490" width="20" height="240" as="geometry" />
        </mxCell>
        <mxCell id="fpwWL5qKGAFFPtYYpQE2-10" value="Các loại hàng muốn bán cho sản phẩm này&lt;div&gt;VD: Nước muối có thể bán 1 chai hoặc 1 thùng&lt;/div&gt;" style="text;html=1;align=center;verticalAlign=middle;resizable=0;points=[];autosize=1;fontColor=#FF0000;" vertex="1" parent="1">
          <mxGeometry x="730" y="590" width="270" height="40" as="geometry" />
        </mxCell>
      </root>
    </mxGraphModel>
  </diagram>
</mxfile>
